<svg width="32" height="32" version="1.1" viewBox="0 0 32 32" xmlns="http://www.w3.org/2000/svg">
	<path fill="rgb(144, 35, 41)" class="icone" d="m20.947 19.315c0-0.5701 0.46215-1.0323 1.0322-1.0322 0.5701-1e-5 1.0323 0.46215 1.0322 1.0322 1e-5 0.57009-0.46215 1.0322-1.0322 1.0322-0.5701 1e-5 -1.0322-0.46215-1.0322-1.0322zm5.9791 2e-3c0-0.5701 0.46215-1.0323 1.0322-1.0322 0.5701-1e-5 1.0323 0.46215 1.0322 1.0322 1e-5 0.5701-0.46215 1.0322-1.0322 1.0322s-1.0322-0.46215-1.0322-1.0322zm-23.916-8e-3c-1e-5 -0.57009 0.46215-1.0322 1.0322-1.0322 0.57009-1e-5 1.0322 0.46215 1.0322 1.0322 1e-5 0.5701-0.46215 1.0323-1.0322 1.0322-0.5701 1e-5 -1.0323-0.46215-1.0322-1.0322zm5.9791 2e-3c-1e-5 -0.5701 0.46215-1.0323 1.0322-1.0322 0.57009-1e-5 1.0322 0.46215 1.0322 1.0322 1e-5 0.5701-0.46215 1.0322-1.0322 1.0322-0.5701 1e-5 -1.0323-0.46214-1.0322-1.0322zm7.0154-16.912c0.5701-1e-5 1.0323 0.46215 1.0322 1.0322 1e-5 0.57009-0.46215 1.0322-1.0322 1.0322-0.5701 1e-5 -1.0323-0.46215-1.0322-1.0322-1e-5 -0.5701 0.46215-1.0323 1.0322-1.0322zm-1e-3 5.2938c0.5701-1e-5 1.0323 0.46215 1.0322 1.0322 1e-5 0.5701-0.46215 1.0322-1.0322 1.0322-0.5701 1e-5 -1.0322-0.46214-1.0322-1.0322s0.46215-1.0323 1.0322-1.0322zm-1e-3 5.2938c0.57009-1e-5 1.0322 0.46215 1.0322 1.0322 1e-5 0.5701-0.46215 1.0322-1.0322 1.0322-0.5701 0-1.0323-0.46215-1.0322-1.0322-1e-5 -0.5701 0.46215-1.0323 1.0322-1.0322zm-1e-3 5.2938c0.5701-1e-5 1.0323 0.46215 1.0322 1.0322 1e-5 0.5701-0.46215 1.0322-1.0322 1.0322s-1.0323-0.46215-1.0322-1.0322c-1e-5 -0.5701 0.46215-1.0323 1.0322-1.0322zm2.9093-16.396v14.519h10.7c-0.53921-6.5085-4.7262-12.109-10.7-14.519zm-5.8186 0c-5.9741 2.4095-10.161 8.0102-10.7 14.519h10.7zm2.9093-1.8853-2.2311 0.62789v16.454h-12.269v4.4618h12.366l-0.84779 8.7604 2.9802 1.6956 2.9802-1.6956-0.84778-8.7604h12.366v-4.4618h-12.268v-16.454l-2.2311-0.6279z"/>
</svg>
