<svg width="32" height="32" version="1.1" viewBox="0 0 32 32" xmlns="http://www.w3.org/2000/svg">
	<path fill="#902329" class="icone" d="m 3.0489566,24.073504 c -1.050674,-1.050509 -1.650545,-2.46947 -1.671875,-3.955077 -0.02232,-1.542626 0.580872,-3.028314 1.671875,-4.119141 -2.22891104,-2.229236 -2.22891104,-5.843029 0,-8.0722663 2.22945,-2.230158 5.844769,-2.230157 8.0742194,0 l 2.019531,2.017578 -0.740234,-2.759765 c -0.816648,-3.045838 0.991011,-6.174553 4.037109,-6.99023506 1.435105,-0.384655 2.96448,-0.19503299626 4.26172,0.529297 1.347116,0.75198206 2.333242,2.01756206 2.732425,3.50781306 3.04503,-0.815676 6.176068,0.990244 6.992188,4.035156 0.816649,3.0458383 -0.991012,6.1765063 -4.03711,6.9921883 l -2.759765,0.740234 2.759765,0.740234 c 2.474955,0.662742 4.132025,2.853257 4.228516,5.285156 0.02227,0.561208 -0.03829,1.133984 -0.191406,1.705079 -0.81612,3.044911 -3.947158,4.854737 -6.992188,4.039062 -0.399183,1.49025 -1.385309,2.753877 -2.732421,3.505859 -1.29724,0.724331 -2.826615,0.915906 -4.26172,0.53125 -2.997223,-0.802594 -4.78939,-3.848577 -4.068359,-6.847656 -2.222593,3.48188 -3.4778704,5.040419 -5.1347434,5.670563 -1.555169,0.591464 -2.805809,-2.19586 -2.805809,-2.19586 2.986996,-0.177484 4.893333,-1.720273 6.7413314,-4.408297 -2.2782804,2.278986 -5.8935994,2.278986 -8.1230494,0.04883 z"/>
</svg>
