<svg width="257" height="38" version="1.1" viewBox="0 0 340 50" xmlns="http://www.w3.org/2000/svg">
	<path fill-opacity=".4" d="m210.54 47.821c-0.35104-0.90952-1.4669-1.6537-2.4797-1.6537-1.267 0-1.8414-1.6506-1.8414-5.2918 0-2.9105-0.59485-5.2918-1.3219-5.2918s-1.3219 0.50601-1.3219 1.1245c0 0.61846-1.7414 3.5303-3.8698 6.4708l-3.8697 5.3463-8.3577-1.7956c-4.5967-0.98758-13.414-2.4779-19.594-3.3118-6.1798-0.83392-12.426-1.7028-13.88-1.9309-1.4541-0.22807-5.618-0.76972-9.2532-1.2037-3.6352-0.43394-8.0966-1.0576-9.9142-1.386-1.8176-0.32836-7.1637-0.96278-11.88-1.4098s-9.039-1.0995-9.6056-1.4499c-0.56657-0.35045-3.251-0.86309-5.9653-1.1392-8.4748-0.86208-21.389-2.6471-51.862-7.1682-10.542-1.5641-24.818-3.4135-31.725-4.1097-22.986-2.3172-25.073-3.0165-22.631-7.5834 2.1523-4.0249 15.188-5.3729 73.524-7.6034 29.189-1.116 48.449-2.0953 49.868-2.5355 0.92712-0.28766 10.608-0.90257 21.514-1.3665 10.906-0.46388 23.695-1.2172 28.421-1.674 4.7257-0.45682 11.554-0.87082 15.174-0.92 6.0567-0.082255 6.7299 0.22723 8.4373 3.8794 4.7302 10.118 9.0766 10.511 9.6985 0.87668 0.38777-6.0074 0.51903-6.1785 5.0248-6.55 4.2232-0.34827 4.9368 0.13548 8.1846 5.5487 1.9569 3.2616 5.2286 6.794 7.2704 7.8497 4.9952 2.5828 27.36 4.1021 58.34 3.9632 17.006-0.0762 26.043-0.61174 27.033-1.6018 0.81732-0.81798 2.4986-1.4872 3.7361-1.4872 1.3116 0 2.8267-1.6553 3.6325-3.9689 0.76034-2.1829 1.8701-3.9689 2.4662-3.9689 2.199 0 10.951 6.768 10.951 8.4685 0 0.96708 1.258 3.359 2.7956 5.3153 2.5649 3.2633 2.6584 4.0478 1.1325 9.5021-3.2335 11.558-13.164 17.659-16.469 10.119-0.71767-1.6372-2.2048-3.0048-3.3047-3.0393-1.0999-0.03443-4.9741-0.36629-8.6093-0.73742-10.66-1.0884-22.418-1.7275-44.944-2.4429-11.633-0.36945-22.996-0.9644-25.252-1.3221-3.3966-0.53863-4.355-0.09317-5.5778 2.5927-0.84753 1.8616-2.2307 2.9535-3.2471 2.5631-1.0359-0.39782-3.9324 2.0378-6.9801 5.8693-4.2399 5.3304-5.9166 6.5083-9.0088 6.3286-2.0896-0.1214-4.0865-0.96487-4.4376-1.8744zm-98.175-22.858c0-0.66185-0.88885-0.862-1.9752-0.44477-1.0864 0.41722-1.6401 1.3012-1.2306 1.9645 0.85666 1.3872 3.2058 0.27362 3.2058-1.5197zm-16.524 0.03651c-0.44933-0.72762-0.1519-1.323 0.66095-1.323s1.0782-0.6472 0.58976-1.4382c-0.5921-0.95882-1.3288-0.99724-2.21-0.11527-1.2158 1.2167-0.42356 4.1994 1.1154 4.1994 0.36352 0 0.29331-0.59533-0.15603-1.323zm8.7906-0.66147c0-0.69125-0.63946-1.4701-1.421-1.7309-0.78157-0.26074-1.421 0.51816-1.421 1.7309 0 1.2127 0.63946 1.9916 1.421 1.7309s1.421-1.0396 1.421-1.7309zm173.42-1.7115c-0.41949-1.6054-1.2882-2.9189-1.9304-2.9189-1.5311 0-1.4731 0.92591 0.26127 4.1691 1.7763 3.3218 2.6858 2.6406 1.6691-1.2503zm16.73 0.38851c0-4.31-1.925-4.3092-2.1735 9.42e-4 -0.10485 1.8185 0.34128 3.3065 0.99141 3.3065 0.65012 0 1.182-1.4883 1.182-3.3074zm9.2532 0c0-1.8191-0.59485-3.3074-1.3219-3.3074-1.4768 0-1.8119 4.3604-0.44063 5.7328 1.4572 1.4583 1.7625 1.0382 1.7625-2.4254zm-213.6-0.18712c0.69619-1.8157 0.50277-1.8976-1.1805-0.49948-2.2938 1.9052-2.5325 2.671-0.83263 2.671 0.64925 0 1.5551-0.97719 2.0131-2.1716zm136.83-3.5291c-0.0783-3.5585-0.27133-3.806-1.229-1.5756-1.5854 3.6925-1.5854 7.5954 0 6.6148 0.72704-0.4497 1.2801-2.7173 1.229-5.0392zm14.634 3.0547c0-1.4553-0.53916-2.6459-1.1981-2.6459-0.65898 0-0.88703 1.1907-0.50678 2.6459 0.38026 1.4552 0.91941 2.6459 1.1981 2.6459 0.27872 0 0.50677-1.1907 0.50677-2.6459zm2.8051-0.893c-1.1521-1.9828-1.41-2.04-1.443-0.31972-0.0427 2.228 1.3472 4.234 2.2841 3.2964 0.309-0.30923-0.0695-1.6487-0.84107-2.9766zm3.2602-1.4155c-1.4217-1.4228-2.1764 0.56986-1.1784 3.1113 0.93616 2.384 1.0069 2.3882 1.4698 0.08583 0.2675-1.3303 0.13638-2.769-0.29142-3.1971zm4.1463 2.3085c0.10959-1.4553-0.35873-2.6459-1.0406-2.6459-0.68185 0-1.2397 1.1907-1.2397 2.6459 0 1.4552 0.46826 2.6459 1.0406 2.6459 0.5723 0 1.1302-1.1907 1.2397-2.6459zm9.5964-0.33075c-0.0164-2.407-0.26546-2.5969-1.3016-0.99222-1.6562 2.5649-1.6562 3.9689 0 3.9689 0.72704 0 1.3128-1.3395 1.3016-2.9766zm4.3689 0.33075c0.38025-1.4553 0.22157-2.6459-0.35261-2.6459-0.57416 0-1.3551 1.1907-1.7353 2.6459-0.38026 1.4552-0.22158 2.6459 0.3526 2.6459s1.3551-1.1907 1.7353-2.6459zm4.9045-0.73956c0-1.0485-0.59484-1.9064-1.3219-1.9064-0.72703 0-1.3219 1.2258-1.3219 2.724 0 1.4982 0.59485 2.356 1.3219 1.9064 0.72705-0.4497 1.3219-1.6755 1.3219-2.724zm15.863 1.4791c0-3.059-2.2784-3.6037-3.0307-0.72468-0.44553 1.705-0.0332 2.631 1.1716 2.631 1.0225 0 1.8591-0.85786 1.8591-1.9064zm3.4216-3.048c-1.444-1.4452-2.4342 0.85312-1.3975 3.2436 0.98307 2.2667 1.0543 2.2646 1.602-0.04653 0.31527-1.3303 0.22321-2.769-0.20457-3.1971zm16.869 1.6046c-1.0486-2.7347-1.7837-2.4124-1.7837 0.78193 0 1.4982 0.56888 2.3721 1.2642 1.9421 0.69529-0.43006 0.92906-1.6558 0.51951-2.724zm10.113 0.78193c0-1.4123-0.59088-2.9333-1.3131-3.38-0.76096-0.47068-1.1956 0.60905-1.0336 2.5678 0.32456 3.9248 2.3466 4.6247 2.3466 0.81219zm10.217 1.7685c-0.43925-0.43961-1.5794-0.48661-2.5336-0.10445-1.0545 0.42233-0.74128 0.73581 0.79865 0.79929 1.3935 0.05745 2.1742-0.25524 1.735-0.69485zm-245.51-2.8388c0-1.0308-0.70638-1.6385-1.5697-1.3505-2.3967 0.79955-2.735 3.2247-0.44981 3.2247 1.1108 0 2.0196-0.84338 2.0196-1.8742zm148.93-1.9844c-0.3667-0.90954-0.66674-0.16537-0.66674 1.6537 0 1.8191 0.30004 2.5632 0.66674 1.6537 0.36671-0.90954 0.36671-2.3979 0-3.3074zm4.4121 1.4975c0-0.72763-0.59485-0.95503-1.3219-0.50533-0.72705 0.44969-1.3219 1.413-1.3219 2.1406 0 0.72762 0.59485 0.95502 1.3219 0.50532 0.72703-0.44969 1.3219-1.413 1.3219-2.1406zm22.472 0.81763c0-1.0914-0.53121-1.9844-1.1805-1.9844s-1.5228 0.893-1.9413 1.9844c-0.46348 1.2088-3e-3 1.9844 1.1804 1.9844 1.0678 0 1.9414-0.89299 1.9414-1.9844zm23.271-1.6261c-1.3437-1.3448-2.4524 0.67986-1.3499 2.4652 0.83283 1.3486 1.1442 1.3497 1.592 5e-3 0.30615-0.91917 0.19724-2.0309-0.24201-2.4705zm-220.23 0.96465c0-0.72762-0.62996-1.323-1.3999-1.323s-1.0323 0.59533-0.58293 1.323c0.44934 0.72763 1.0793 1.323 1.3999 1.323 0.32061 0 0.58293-0.59533 0.58293-1.323zm5.2876 0c0-0.72762-0.92739-1.323-2.0608-1.323-1.1335 0-1.6932 0.59533-1.2439 1.323 0.44934 0.72763 1.3767 1.323 2.0608 1.323 0.68414 0 1.2439-0.59533 1.2439-1.323zm10.575 0.26219c0-0.58341-2.082-1.1198-4.6266-1.192-2.5446-0.07223-4.6266 0.40515-4.6266 1.0608s2.082 1.192 4.6266 1.192c2.5446 0 4.6266-0.47735 4.6266-1.0608zm132.19-1.5851c0-1.4553-0.59485-2.6459-1.3219-2.6459-0.72703 0-1.3219 1.1907-1.3219 2.6459s0.59485 2.6459 1.3219 2.6459c0.72704 0 1.3219-1.1907 1.3219-2.6459zm-8.7815 0.3064c0.34526-0.55911-1.7016-0.79425-4.5486-0.52252-2.847 0.27172-5.1764 0.72917-5.1764 1.0166 0 0.9854 9.0967 0.52328 9.725-0.49403zm-48.06-0.8898c0-0.32086-0.59485-0.95133-1.3219-1.401-0.72704-0.44969-1.3219-0.18716-1.3219 0.5834s0.59485 1.401 1.3219 1.401 1.3219-0.26253 1.3219-0.5834zm68.738-2.724c0-1.0056-0.44614-2.1042-0.99142-2.4415s-0.99142 0.76141-0.99142 2.4415 0.44614 2.7788 0.99142 2.4415 0.99142-1.4359 0.99142-2.4415zm-124.72 0.351c-0.90291-0.57557-0.27995-0.98022 1.5275-0.99222 1.702-0.01131 2.6908 0.56498 2.2353 1.3027-1.4415 2.3342 19.964 1.6596 22.325-0.70367 1.6066-1.6079 3.8043-1.8442 10.637-1.1436 4.7365 0.48566 8.3552 1.2984 8.0417 1.8062-0.31355 0.50772 0.27044 0.92312 1.2977 0.92312 2.7525 0 3.66-3.5022 0.94867-3.6608-5.2852-0.30916 8.6239-2.5239 23.342-3.7169 8.7533-0.70945 17.13-1.9404 18.614-2.7355 4.9613-2.6573 11.718 3.4017 9.1498 8.2048-1.5209 2.8442 1.4051 3.2451 5.4111 0.74124 2.3832-1.4895 2.4149-1.7828 0.42989-3.978-1.1786-1.3034-2.8072-3.7053-3.6189-5.3374-1.0591-2.1294-2.7682-3.032-6.0512-3.1956-2.5164-0.12546-4.9714 0.41339-5.4556 1.1974-0.48417 0.78402-2.5727 1.5571-4.6412 1.7179-2.0685 0.16083-8.2223 0.6583-13.675 1.1055-5.4528 0.44719-17.336 1.1502-26.406 1.5623-10.584 0.48083-16.851 1.3146-17.495 2.3274-0.74192 1.1679-1.0078 1.1174-1.0228-0.19414-0.0165-1.4442-3.9974-1.6091-21.501-0.89086-11.814 0.4848-23.563 1.0895-26.107 1.3438-2.5446 0.2543-13.847 0.94522-25.116 1.5354l-20.489 1.073 21.15 1.3399c24.746 1.5677 48.648 1.757 46.469 0.36796zm11.694-1.0884c2.9082-0.60202 7.0721-1.087 9.2532-1.0778 3.3866 0.01429 3.5796 0.18278 1.3219 1.1537-1.4541 0.62534-5.618 1.1104-9.2532 1.0778l-6.6094-0.05914 5.2875-1.0946zm29.495-2.1508c0.95424-0.38216 2.0944-0.33516 2.5336 0.10445 0.43926 0.4396-0.34149 0.75228-1.735 0.69484-1.5399-0.0635-1.8532-0.37696-0.79864-0.79929zm26.416 2.2868c-0.88744-1.4222-1.7988-2.4004-2.0252-2.1738-0.78357 0.78421 1.2602 4.7595 2.447 4.7595 0.65542 0 0.46558-1.1636-0.42185-2.5857zm21.746-0.70519c-0.43682-2.287 0.0631-3.5566 1.6386-4.1616 2.314-0.88867 5.0333 1.7832 3.818 3.7513-0.35846 0.58046-0.0218 1.0554 0.74816 1.0554 2.5002 0 1.4768-5.0891-1.1939-5.9374-3.509-1.1146-8.3956 1.6257-7.4228 4.1627 0.41991 1.0951 0.76347 2.5378 0.76347 3.2059 0 0.66812 0.51236 1.2148 1.1386 1.2148s0.85571-1.4809 0.50998-3.2909zm143.76 2.7075c0-0.32087-0.59485-0.95134-1.3219-1.401-0.72703-0.4497-1.3219-0.18717-1.3219 0.58339 0 0.77058 0.59485 1.401 1.3219 1.401 0.72704 0 1.3219-0.26253 1.3219-0.5834zm-173.61-2.7908c0-0.88565-1.337-1.5306-2.9712-1.4332-1.9721 0.11752-2.5718 0.65897-1.7835 1.6103 1.605 1.9368 4.7547 1.8195 4.7547-0.17705zm18.59-0.50301c-0.10576-1.4048-0.63764-2.2788-1.182-1.9421-0.54437 0.33671-0.65467 1.4861-0.24512 2.5543 1.0327 2.6934 1.6558 2.4261 1.4271-0.61219zm-14.184-0.09168c0-0.72763-0.62995-1.323-1.3999-1.323-0.76994 0-1.0323 0.59533-0.58292 1.323 0.44934 0.72762 1.0793 1.323 1.3999 1.323 0.3206 0 0.58292-0.59533 0.58292-1.323zm21.15-0.5834c0-3.059-2.2784-3.6038-3.0307-0.72468-0.44551 1.705-0.0331 2.631 1.1716 2.631 1.0225 0 1.8591-0.85786 1.8591-1.9064zm-140.48-1.5388c-0.43925-0.43961-1.5794-0.48661-2.5336-0.10445-1.0545 0.42233-0.74129 0.73581 0.79864 0.79929 1.3935 0.05745 2.1742-0.25524 1.735-0.69484zm13.577-0.7642c0-1.4104-6.2509-1.4104-7.1218 0-0.36764 0.59533 1.0844 1.0824 3.2267 1.0824 2.1423 0 3.8951-0.48709 3.8951-1.0824zm5.618-0.63563c-0.90879-0.367-2.3959-0.367-3.3047 0s-0.16524 0.66728 1.6524 0.66728c1.8176 0 2.5612-0.30027 1.6524-0.66728zm153.01-1.7697c0-0.72762-0.62996-1.323-1.3999-1.323-0.76995 0-1.0323 0.59533-0.58293 1.323 0.44934 0.72763 1.0793 1.323 1.3999 1.323 0.32061 0 0.58292-0.59533 0.58292-1.323zm-101.45-0.87617c-0.9088-0.367-2.3959-0.367-3.3047 0-0.9088 0.36701-0.16524 0.66729 1.6524 0.66729 1.8176 0 2.5612-0.30027 1.6524-0.66729zm7.9313 0c-0.9088-0.367-2.3959-0.367-3.3047 0-0.9088 0.36701-0.16524 0.66729 1.6524 0.66729 1.8176 0 2.5612-0.30027 1.6524-0.66729zm12.227-0.44679c0.46336-0.75032-0.64722-1.323-2.5658-1.323-1.8605 0-3.3827 0.59533-3.3827 1.323 0 0.72762 1.1546 1.323 2.5658 1.323s2.9334-0.59533 3.3827-1.323zm14.871-0.94758c-1.9994-0.30312-5.271-0.30312-7.2704 0-1.9994 0.30312-0.36352 0.55114 3.6352 0.55114 3.9987 0 5.6345-0.24801 3.6352-0.55114z"/>
	<path fill-opacity="1" d="m213.82 49.224c-1.2723-0.33276-2.3133-1.1567-2.3133-1.831 0-0.67428-0.89228-1.226-1.9828-1.226-1.3516 0-1.9893-1.3687-2.0031-4.2996-0.0368-7.8109-1.7349-8.0418-7.0217-0.95462-3.8837 5.2063-5.5532 6.4796-7.8668 6-9.4425-1.9574-22.6-3.9328-36.645-5.5018-10.746-1.2004-12.216-1.4051-13.219-1.8403-0.36352-0.15775-2.7583-0.48175-5.3218-0.72-8.8924-0.82645-15.208-1.6796-23.099-3.1201-6.9483-1.2685-14.68-2.3135-35.691-4.8236-2.9081-0.34744-10.395-1.5042-16.638-2.5706-6.2428-1.0664-16.653-2.5482-23.133-3.2929-6.4804-0.74471-13.27-1.652-15.087-2.0163-1.8176-0.36425-7.4687-1.0215-12.558-1.4606-5.0893-0.4391-9.6372-1.1858-10.107-1.6593-0.46933-0.4735-0.33978-2.2004 0.28787-3.8375 1.2371-3.227 7.8029-4.3298 7.876-1.323 0.022109 0.90954 0.66742 0.57447 1.434-0.74458 1.1582-1.9928 2.995-2.3679 10.865-2.2184 5.2093 0.09892 9.769 0.08295 10.132-0.03552 3.2357-1.0545 14.541-1.2333 14.541-0.22998 0 0.69795-2.828 1.2263-6.2845 1.1741-3.4565-0.05219-7.4717 0.59383-8.9227 1.4356-2.276 1.3203-1.7307 1.5648 3.9712 1.7808 3.6352 0.13767 8.394 0.36997 10.575 0.51623 2.1811 0.14625 8.2783 0.34938 13.549 0.4514 5.271 0.10201 9.5837 0.64827 9.5837 1.2139 0 0.56563-2.9742 0.96488-6.6094 0.8872-3.6352-0.07769-6.6094 0.35252-6.6094 0.956 0 0.60348 0.74356 1.1468 1.6524 1.2075 0.90879 0.06062 3.1395 0.3945 4.9571 0.7419 1.8176 0.3474 7.3198 0.74429 12.227 0.88196 4.9074 0.13768 8.9226 0.57583 8.9227 0.97367 1.49e-4 0.39784 2.231 0.67236 4.9573 0.61003 2.7264-0.06231 5.4032 0.50517 5.9485 1.2611 0.64632 0.89601 1.4324 0.68752 2.2583-0.59897 1.795-2.7961-0.62041-4.8408-3.1936-2.7035-1.1821 0.98186-2.0389 1.1215-2.0389 0.33237 0-0.7486-1.1897-1.0497-2.6438-0.66916-1.4541 0.38055-2.6438 0.12638-2.6438-0.56485 0-1.3575-0.18493-1.3916-9.6353-1.7771-9.8417-0.40151-6.3756-1.4017 6.8775-1.9845 7.3188-0.32184 12.011-0.02193 12.011 0.76783 0 0.71281 0.59485 1.296 1.3219 1.296s1.34-1.0418 1.3621-2.3152c0.03738-2.1553 0.13038-2.1604 1.3459-0.07452 1.0968 1.8821 2.822 2.1349 10.781 1.5794 5.2115-0.36369 9.9595-0.96063 10.551-1.3266 0.5916-0.36592 1.0756-0.03483 1.0756 0.73573 0 0.77056 0.89228 1.401 1.9828 1.401 1.0906 0 1.992-0.74416 2.0031-1.6537 0.0135-1.1025 0.44738-0.99222 1.3016 0.33075 1.0255 1.5882 1.2854 1.3577 1.3016-1.1542 0.0169-2.6262 0.34099-2.8722 1.9849-1.5068 1.0806 0.8975 3.9873 1.3955 6.4594 1.1066 2.838-0.33159 4.2944-3e-3 3.9513 0.89211-0.67436 1.7588 4.4669 2.2869 5.5284 0.56794 0.42904-0.69479 1.7341-0.28533 2.9412 0.92284 1.4203 1.4214 2.3426 1.6535 2.6697 0.67162 0.27481-0.82508 1.406-1.5001 2.5137-1.5001 1.2846 0 1.7265-0.75008 1.22-2.0709-0.60957-1.5898-0.18172-1.8764 1.8414-1.2338 1.5091 0.47934 2.6355 0.23361 2.6355-0.57497 0-0.77666-0.99141-1.4121-2.2032-1.4121-1.2117 0-1.9302-0.27311-1.5967-0.60692 0.33353-0.3338 5.1426-0.95152 10.687-1.3727 10.599-0.80521 12.847 0.12149 10.39 4.2843-1.2511 2.1203-1.4479 2.0562-2.2281-0.72583-0.54865-1.9563-1.5439-2.7872-2.773-2.3152-1.0545 0.40496-2.4634 0.73629-3.131 0.73629-0.66757 0-1.2138 0.57665-1.2138 1.2814s0.79697 0.97536 1.771 0.60127c0.97407-0.3741 2.4509 0.13967 3.2818 1.1417 1.2137 1.4636 0.93046 1.7573-1.4406 1.4934-1.6232-0.18065-4.1411-0.42507-5.5951-0.54315-1.4642-0.11891-1.9066-0.5124-0.99142-0.88197 2.5318-1.0224 1.9629-3.0927-0.84999-3.0927-1.3763 0-2.8634 0.94169-3.3047 2.0926-1.1764 3.068-0.98421 4.5221 0.59753 4.5221 0.76994 0 0.9801-0.74416 0.46701-1.6537-0.7463-1.323-0.57685-1.323 0.84731 0 2.1446 1.9922 19.758 2.287 19.758 0.33075 0-0.72763-0.53916-1.323-1.1981-1.323-0.65898 0-0.8711-1.2516-0.47139-2.7813 0.41991-1.6071-0.0509-3.3354-1.1152-4.0937-1.4521-1.0346-1.3613-1.1581 0.42904-0.58384 1.249 0.40068 2.6226 0.15917 3.0523-0.53668 1.2081-1.9563 8.0431-1.494 9.8336 0.66507 2.2094 2.6643 0.49023 9.9515-2.3734 10.06-1.4342 0.05447-1.063 0.54126 1.0591 1.3889 1.7971 0.71775 3.7864 2.0195 4.4208 2.8928 0.74123 1.0204 0.86586 0.70402 0.34875-0.88524-0.67009-2.0594-0.25544-2.368 2.4791-1.8448 1.8061 0.34553 2.9692 0.11891 2.5848-0.50361-0.38442-0.62251-0.069-1.1318 0.70094-1.1318 0.76996 0 1.3999-0.65902 1.3999-1.4645 0-0.87588-0.92978-1.0814-2.3133-0.51139-5.0377 2.0756-7.3564 2.0436-3.3655-0.04653l4.2354-2.2181-2.8196-3.8168c-1.5508-2.0992-2.4895-4.1472-2.086-4.551 0.4035-0.40383 2.0125 1.435 3.5755 4.0862 2.358 3.9997 3.1736 4.5449 4.7905 3.2019 1.0718-0.8902 1.9486-3.5806 1.9486-5.9787 0-6.6566 1.1885-8.5454 5.377-8.5454 3.0478 0 4.5703 1.2201 7.9279 6.353 2.2856 3.4941 5.7294 7.0381 7.6528 7.8754 9.6022 4.1802 72.393 5.1976 88.743 1.4379 1.0818-0.24877 2.689-2.0895 3.5714-4.0904 2.9961-6.794 9.5554-3.1257 16.222 9.072l2.9697 5.4339-3.7726 7.7842c-2.7544 5.6832-4.6646 7.9908-7.0774 8.5495-3.6034 0.83449-7.9313-1.1246-7.9313-3.5902 0-2.8577-8.1187-3.7323-46.266-4.9843-14.177-0.46527-28.848-1.1623-32.602-1.5488-6.0582-0.6239-6.9224-0.39647-7.6899 2.0239-0.54857 1.7298-1.9952 2.7268-3.9564 2.7268-2.1956 0-4.4679 1.9172-7.84 6.6148-2.6116 3.6381-5.1955 6.5457-5.742 6.4613-0.54648-0.08444-2.0346-0.42572-3.3069-0.75848zm-49.901-15.483c0-0.28597-0.89228-0.8626-1.9828-1.2814-1.0906-0.41882-1.9828-0.18486-1.9828 0.51993s0.89228 1.2814 1.9828 1.2814c1.0906 0 1.9828-0.23398 1.9828-0.51994zm28.663-2.374c-0.42196-1.0554-0.7352-0.74188-0.79862 0.79929-0.0574 1.3946 0.25501 2.176 0.69428 1.7364 0.43924-0.43961 0.4862-1.5807 0.1043-2.5357zm-47.83 0.24805c0.44933-0.72762 0.18702-1.323-0.58293-1.323s-1.3999 0.59533-1.3999 1.323 0.26231 1.323 0.58292 1.323 0.95057-0.59533 1.3999-1.323zm13.88 0.81578c0-1.1744-5.348-1.7883-6.0252-0.69158-0.40716 0.65932 0.78195 1.1988 2.6424 1.1988s3.3827-0.22823 3.3827-0.50717zm40.979-0.81578c0-0.72762-0.26232-1.323-0.58292-1.323-0.32062 0-0.95057 0.59533-1.3999 1.323s-0.18702 1.323 0.58292 1.323c0.76995 0 1.3999-0.59533 1.3999-1.323zm20.378-0.8486c0.6962-1.8157 0.50277-1.8976-1.1805-0.49948-2.2938 1.9052-2.5325 2.671-0.83263 2.671 0.64926 0 1.5552-0.97719 2.0131-2.1716zm-81.934-1.9325c-3.8431-1.5062-7.1826-1.3716-7.1826 0.28953 0 0.82568 1.1655 1.1722 2.6424 0.78568 1.4534-0.38037 2.9816-0.14242 3.3961 0.52876 0.41447 0.67118 1.4166 0.81026 2.2269 0.30906 0.94189-0.58259 0.55135-1.2726-1.0828-1.913zm-9.3455-0.51864c-0.41689-1.0873-1.2905-1.6475-1.9414-1.2449-0.65086 0.40258-1.1834 0.2046-1.1834-0.43995 0-0.64454-1.7845-0.90977-3.9657-0.5894-2.1811 0.32038-3.9657 1.1504-3.9657 1.8445s1.041 0.93776 2.3133 0.54153c1.2723-0.39624 3.2056-0.14781 4.2961 0.55207 2.9836 1.9147 5.3026 1.5685 4.4466-0.66382zm42.48 0.65387c0.44934-0.72762 0.22212-1.323-0.50491-1.323-0.72704 0-1.6895 0.59533-2.1388 1.323-0.44934 0.72763-0.22212 1.323 0.50491 1.323 0.72704 0 1.6895-0.59533 2.1388-1.323zm-6.3456-1.8537c-0.72276-2.17-3.1993-2.3404-3.9915-0.2745-0.51416 1.341 0.0608 1.8914 1.836 1.7576 1.4215-0.10716 2.3915-0.77456 2.1555-1.4831zm142.53-2.96c-0.73414-5.7387-0.99264-6.0782-3.8054-4.998-1.2133 0.46596-2.172 2.294-2.172 4.1416 0 2.3105 0.56466 3.0905 1.8734 2.5879 1.0304-0.39572 2.2014 0.13592 2.6023 1.1814 1.3368 3.4866 2.1248 1.9581 1.5017-2.9129zm-195.01 1.5064c0-1.0914-1.041-2.0552-2.3133-2.1418-7.4654-0.5078-8.7479-0.3484-9.2499 1.1496-0.32053 0.95659 0.56036 1.6537 2.0897 1.6537 1.4541 0 2.9215-0.74416 3.261-1.6537 0.41889-1.1223 0.92447-0.90979 1.5735 0.66148 1.1685 2.8289 4.6391 3.0763 4.6391 0.33074zm162.59 0c0-1.0914-0.59485-1.9844-1.3219-1.9844-0.72703 0-1.3219 0.893-1.3219 1.9844s0.59485 1.9844 1.3219 1.9844c0.72705 0 1.3219-0.89299 1.3219-1.9844zm24.455 0.66148c0.44934-0.72763 0.18702-1.323-0.58292-1.323-0.76995 0-1.3999 0.59533-1.3999 1.323 0 0.72762 0.26232 1.323 0.58293 1.323 0.3206 0 0.95057-0.59533 1.3999-1.323zm11.897 0c0.44934-0.72763 0.18702-1.323-0.58293-1.323-0.76994 0-1.3999 0.59533-1.3999 1.323 0 0.72762 0.26231 1.323 0.58293 1.323 0.3206 0 0.95057-0.59533 1.3999-1.323zm-132.19-1.323c-0.44933-0.72762-2.7151-1.2525-5.0351-1.1664l-4.2181 0.15653 3.9657 1.0099c5.749 1.4641 6.1917 1.4641 5.2876 0zm65.175-0.6028c0.82474 1.423 1.5176 1.8825 1.5397 1.0211 0.0242-0.94306 1.3549-1.3275 3.3449-0.96634 3.1376 0.5694 3.6034-0.06975 3.2163-4.4131-0.15424-1.7307-8.2968-1.7344-9.3944-4e-3 -0.83925 1.3229-1.0559 1.3237-1.072 4e-3 -0.0111-0.90952-1.2099-1.6537-2.664-1.6537-1.8133 0-2.6438 0.88197-2.6438 2.8079 0 2.4699 0.26851 2.5893 2.2303 0.99222 1.9396-1.579 2.1238-1.5307 1.413 0.37016-0.44955 1.2022-0.43084 2.5727 0.0415 3.0454 0.47242 0.47278 1.2257-0.18676 1.674-1.4657 0.75572-2.1561 0.92407-2.1371 2.3145 0.26194zm34.627 0.711c0-2.714-1.7141-5.4-3.4462-5.4-1.0128 0-1.8414 0.59533-1.8414 1.323 0 0.72763 0.59485 1.323 1.3219 1.323 0.72703 0 1.3219 0.89299 1.3219 1.9844s0.59485 1.9844 1.3219 1.9844 1.3219-0.54664 1.3219-1.2148zm15.863-2.0926c0-3.7053-2.5573-4.6125-2.7971-0.99222-0.14604 2.2049-0.18212 2.2049-0.75788 0-0.81502-3.1213-3.0544-2.95-3.0544 0.23374 0 2.2031 1.5503 3.2827 5.618 3.9124 0.54528 0.08444 0.99142-1.3349 0.99142-3.1539zm-67.416-2.6459c0-2.5467-0.59485-4.6303-1.3219-4.6303s-1.3219 2.0837-1.3219 4.6303c0 2.5467 0.59485 4.6303 1.3219 4.6303s1.3219-2.0837 1.3219-4.6303zm7.8893 0.17644c-0.0401-2.6902-0.12797-2.7089-1.8768-0.39946-1.7412 2.2994-1.862 2.2656-2.3692-0.66148-0.46377-2.6767-0.67122-2.7783-1.5694-0.7692-1.5708 3.5138-9e-3 6.1879 3.1327 5.3656 1.6982-0.44444 2.7088-1.7764 2.6826-3.5354zm23.253-0.71096c-0.49246-0.79745-1.3857-1.4499-1.9851-1.4499-1.3498 0-2.7165 4.8542-1.6634 5.9082 1.2495 1.2505 4.626-2.8754 3.6485-4.4583zm3.777 2.9911c1.1067-2.8862-0.3627-4.2278-1.9242-1.7568-1.5632 2.4737-1.5965 3.9305-0.0898 3.9305 0.64925 0 1.5555-0.9782 2.0139-2.1738zm4.7369-0.47213c0-1.4553-0.52548-2.6459-1.1677-2.6459s-1.4788 1.1907-1.8591 2.6459c-0.44934 1.7197-0.0405 2.6459 1.1677 2.6459 1.0225 0 1.8591-1.1907 1.8591-2.6459zm3.9657 0c0-1.4553-0.59484-2.6459-1.3219-2.6459-0.72703 0-1.3219 1.1907-1.3219 2.6459 0 1.4552 0.59485 2.6459 1.3219 2.6459 0.72705 0 1.3219-1.1907 1.3219-2.6459zm15.863 0c0-3.2489-2.5836-3.5544-2.7971-0.33075-0.14603 2.2049-0.18212 2.2049-0.75787 0-0.62364-2.3884-4.3763-3.2955-4.3763-1.058 0 1.4659 3.8829 3.936 6.279 3.9944 0.9088 0.02213 1.6524-1.1504 1.6524-2.6057zm30.403-0.5834c0-1.7761-0.59485-3.5972-1.3219-4.0469-0.77122-0.47703-1.3219 0.86823-1.3219 3.2293 0 2.2258 0.59485 4.0469 1.3219 4.0469 0.72703 0 1.3219-1.4532 1.3219-3.2293zm5.2876-0.07809c0-1.8191-0.59485-3.3074-1.3219-3.3074-0.72703 0-1.3219 1.4883-1.3219 3.3074s0.59485 3.3074 1.3219 3.3074c0.72705 0 1.3219-1.4883 1.3219-3.3074zm5.2875 2.7875c0-0.28597-0.89227-0.86261-1.9828-1.2814-1.0906-0.41882-1.9828-0.18485-1.9828 0.51994 0 0.70478 0.89228 1.2814 1.9828 1.2814 1.0906 0 1.9828-0.23396 1.9828-0.51993zm10.575 0.0127c0-0.27895-1.1897-0.81855-2.6438-1.1991-1.4541-0.38056-2.6438-0.15232-2.6438 0.50718s1.1897 1.1991 2.6438 1.1991 2.6438-0.22823 2.6438-0.50718zm-129.54-4.1231c0-1.8191-0.59485-3.3074-1.3219-3.3074-0.72703 0-1.3219 1.4883-1.3219 3.3074 0 1.8191 0.59485 3.3074 1.3219 3.3074 0.72704 0 1.3219-1.4883 1.3219-3.3074zm89.365-0.30318c-1.3437-1.3448-2.4524 0.67986-1.3499 2.4652 0.83283 1.3486 1.1442 1.3497 1.592 5e-3 0.30615-0.91917 0.19724-2.0309-0.24202-2.4705zm15.064 1.6872c0-0.81532-1.1897-1.5721-2.6438-1.6817-2.4903-0.18774-3.4548 1.0295-1.9828 2.5027 1.2546 1.2556 4.6266 0.65729 4.6266-0.82093zm18.506-0.72252c0-0.72762-0.59485-1.323-1.3219-1.323s-1.3219 0.59533-1.3219 1.323c0 0.72763 0.59485 1.323 1.3219 1.323s1.3219-0.59533 1.3219-1.323zm-145.46-4.6902c-1.7771-2.143-0.60893-4.5705 2.1995-4.5705 1.4295 0 1.7423 0.79332 1.1052 2.8024-0.64264 2.0264-0.39278 2.637 0.90234 2.2049 0.9851-0.32863 1.7911-2.0362 1.7911-3.7947 0-2.454-0.79443-3.2896-3.4179-3.5948-4.8277-0.56165-7.3421 2.7793-5.3631 7.1262 0.83702 1.8385 2.1431 2.9586 2.9023 2.489 0.94465-0.5843 0.90695-1.4249-0.11936-2.6626zm30.453 2.0443c0-0.72763-0.59485-1.323-1.3219-1.323-0.72704 0-1.3219 0.59533-1.3219 1.323 0 0.72762 0.59485 1.323 1.3219 1.323 0.72703 0 1.3219-0.59533 1.3219-1.323zm3.9859-2.3933c0.0174-1.9279 0.19734-1.9628 1.3016-0.25266 1.0418 1.6133 1.2852 1.4424 1.3016-0.91414 0.023-3.2871-2.1078-5.2562-2.9566-2.7322-0.43782 1.3019-1.0349 1.2686-2.7567-0.15375-2.6256-2.1691-3.0012 0.16116-0.43922 2.7252 0.96722 0.968 1.4849 2.5817 1.1504 3.586-0.36826 1.1057-0.019 1.4616 0.8852 0.90233 0.82134-0.50803 1.5025-1.9304 1.5136-3.1608zm108.37 1.8099c0-0.32087-0.59485-0.95134-1.3219-1.401-0.72703-0.4497-1.3219-0.18717-1.3219 0.58339 0 0.77058 0.59485 1.401 1.3219 1.401 0.72704 0 1.3219-0.26253 1.3219-0.5834zm-114.34-3.3855c0.44934-0.72763 0.22212-1.323-0.50492-1.323-0.72703 0-1.6895 0.59533-2.1388 1.323-0.44934 0.72762-0.22211 1.323 0.50492 1.323 0.72704 0 1.6895-0.59533 2.1388-1.323zm-1.1402-6.5538c-0.19277-3.9102-2.885-7.3969-4.141-5.363-0.45279 0.73321-0.2003 1.3331 0.56107 1.3331 1.7004 0 1.2528 5.5969-0.55067 6.887-0.71787 0.51351-0.0448 0.83863 1.4958 0.72249 2.1142-0.15939 2.7602-1.037 2.6349-3.5796zm5.7668-1.3516c0-0.46728-0.83807-1.9967-1.8624-3.3986-1.7741-2.4282-1.8524-2.3879-1.6524 0.84952 0.11553 1.8692 0.95359 3.3986 1.8624 3.3986 0.9088 4.96e-5 1.6524-0.38224 1.6524-0.84953zm-70.412 10.38c-1.272-0.71243-2.8961-0.93453-3.609-0.49354-0.73916 0.45719-0.95606-0.08553-0.50466-1.2628 0.87256-2.2757 6.0235-4.0135 8.7051-2.9368 0.94 0.37741-0.0754 0.75214-2.2566 0.83273-3.765 0.1391-3.8368 0.2441-1.4184 2.0752 3.044 2.3048 2.3668 3.6241-0.9164 1.7852zm-38.974-0.74113c1.2723-0.33276 3.3543-0.33276 4.6266 0 1.2723 0.33276 0.23134 0.60502-2.3133 0.60502-2.5446 0-3.5856-0.27226-2.3133-0.60502zm12.888-0.45253c0-0.70478 0.89227-1.2814 1.9828-1.2814 1.0906 0 1.9828 0.23396 1.9828 0.51993 0 0.28597-0.89228 0.86261-1.9828 1.2814-1.0906 0.41882-1.9828 0.18485-1.9828-0.51994zm-62.129-3.7943c0-0.72107-2.8255-1.534-6.279-1.8065-4.3711-0.34494-3.1424-0.56796 4.0437-0.73397 6.6018-0.1525 10.028 0.23841 9.5057 1.0845-0.44934 0.72762-0.23659 1.323 0.47277 1.323s1.5004-0.63262 1.758-1.4058c0.28093-0.84348 7.4632-1.7172 17.956-2.1842 15.585-0.6937 17.487-0.54435 17.487 1.3731 0 1.7833-0.60229 1.9223-3.52 0.81207-2.4002-0.91332-3.9561-0.9029-4.891 0.03274-1.7622 1.7636-7.8768 1.8079-6.7908 0.04921 0.44934-0.72763 0.23659-1.323-0.47278-1.323-0.70936 0-1.488 0.50868-1.7304 1.1304-0.6465 1.6585-27.539 3.2684-27.539 1.6486zm51.132-3.5881c0.62521-1.6306 2.0145-1.9714 5.9068-1.4489 2.7991 0.37573 5.3924 0.19236 5.7628-0.40751 0.37044-0.59987 5.8729-1.1267 12.228-1.1706 6.3548-0.043955 13.934-0.31054 16.842-0.59237 2.9082-0.28184 4.2466-0.25232 2.9742 0.065585-1.2723 0.31792-2.3133 1.4296-2.3133 2.4704 0 1.0408-0.59485 1.8924-1.3219 1.8924-0.72704 0-1.3219-0.59533-1.3219-1.323 0-1.9837-15.48-1.6718-16.413 0.33074-0.61688 1.323-0.92533 1.323-1.5422 0-0.42412-0.90952-2.5412-1.6537-4.7046-1.6537s-3.6044 0.53295-3.2022 1.1843c0.40225 0.65138-0.13844 1.5184-1.2015 1.9267-1.0631 0.40828-2.2845 0.17299-2.7142-0.52286-0.42971-0.69584-2.2684-1.2652-4.086-1.2652-1.8665 0-2.9492 0.57573-2.4878 1.323 0.44934 0.72763-0.0917 1.323-1.2024 1.323-1.314 0-1.7338-0.74469-1.2019-2.132zm28.512-0.10286c1.2723-0.33276 3.3543-0.33276 4.6266 0 1.2723 0.33276 0.23133 0.60502-2.3133 0.60502-2.5446 0-3.5856-0.27226-2.3133-0.60502zm18.506 0.021531c3.8099-0.63758 4.7953-2.3895 1.9828-3.5253-0.9088-0.367 0.57832-0.71428 3.3047-0.77173 3.1302-0.065982 4.9645 0.50502 4.9773 1.5493 0.0148 1.2103 0.28085 1.2438 0.99215 0.12513 1.185-1.8637 24.772-3.9065 25.805-2.2348 0.40108 0.64948-1.7212 1.0438-4.7163 0.87621-2.995-0.16756-6.1903 0.31399-7.1006 1.0701-0.91032 0.7561-3.3194 1.5812-5.3534 1.8337-6.255 0.7762-23.756 1.7242-19.891 1.0775zm6.9399-1.7555c0.44934-0.72763 0.18702-1.323-0.58293-1.323s-1.3999 0.59533-1.3999 1.323c0 0.72762 0.26231 1.323 0.58292 1.323s0.95057-0.59533 1.3999-1.323z"/>
</svg>
