<svg width="32" height="32" version="1.1" viewBox="0 0 32 32" xmlns="http://www.w3.org/2000/svg">
	<path fill="rgb(144, 35, 41)" class="icone" d="m3.0059 0a1.0001 1.0001 0 0 0-1.0059 1v7c0 4.8167 0.22692 9.9194 2.4668 14.453 2.242 4.5381 6.3624 8.1266 11.262 9.5098a1.0001 1.0001 0 0 0 0.54297 0c4.8993-1.3831 9.0197-4.9717 11.262-9.5098 2.2399-4.5337 2.4668-9.6365 2.4668-14.453v-7a1.0001 1.0001 0 0 0-1.3008-0.95312c-4.1 1.2921-8.4004 1.9531-12.699 1.9531s-8.5992-0.66099-12.699-1.9531a1.0001 1.0001 0 0 0-0.29492-0.046875zm0.99414 2.2559c0.99171 0.27974 1.9912 0.52857 2.998 0.74609l-2.998 2.998zm17.369 1.375-15.93 15.93c-0.83442-2.404-1.1994-4.9993-1.3438-7.6562l8.0957-8.0957c1.2655 0.12081 2.5355 0.19141 3.8086 0.19141 1.7975 0 3.5897-0.13297 5.3691-0.36914z"/>
</svg>
