<svg width="32" height="32" version="1.1" viewBox="0 0 32 32" xmlns="http://www.w3.org/2000/svg">
	<g>
		<path d="m24.7 26.6c-0.201-0.234-0.865-0.823-0.928-0.823-0.0271 0-0.0814 0.161-0.121 0.358-0.128 0.638-0.263 0.38-0.319-0.609-0.0641-1.12-0.226-1.57-0.95-2.63-0.291-0.423-0.779-1.23-1.09-1.8-0.306-0.565-0.612-1.07-0.68-1.12-0.0677-0.0525-0.389 0.133-0.714 0.413-0.325 0.28-0.883 0.763-1.24 1.07-0.358 0.311-1.01 0.748-1.45 0.972-0.865 0.44-1.01 0.732-0.547 1.11 0.191 0.157 0.65 0.216 1.79 0.229 1.59 0.0183 2.21 0.152 2.32 0.493 0.134 0.44-0.489 0.641-2.09 0.673-0.843 0.0168-2.32-0.242-2.79-0.491-0.751-0.393-0.854-0.505-0.854-0.92 0-0.267-0.0471-0.332-0.199-0.273-0.11 0.0425-0.558 0.179-0.997 0.303-1.13 0.319-1.2 0.351-1.2 0.57 0 0.278 0.243 0.346 1.96 0.546 1.06 0.124 1.62 0.253 1.83 0.424 0.565 0.465 0.0803 0.924-0.67 0.634-0.29-0.112-0.5-0.113-0.729-5e-3 -0.177 0.0838-0.385 0.103-0.463 0.0426-0.0777-0.0603-0.583-0.156-1.12-0.212-0.786-0.0823-1.13-0.199-1.75-0.589-0.64-0.405-0.77-0.547-0.77-0.843 0-0.236-0.0636-0.356-0.189-0.356-0.104 0-0.425-0.176-0.712-0.391-0.44-0.329-0.661-0.393-1.4-0.407-1.43-0.0254-2.13-0.583-3.89-3.1-0.868-1.24-1.21-1.52-1.99-1.62-1.47-0.203-2.76 2.04-2.13 3.72 0.283 0.748 1.01 1.6 1.72 2.02 0.657 0.39 0.842 0.744 0.304 0.58-1.57-0.477-2.75-2.25-2.62-3.93 0.16-2.09 1.56-3.67 2.98-3.37 0.75 0.157 1.2 0.528 2.38 1.98 0.825 1.02 1.22 1.4 1.56 1.52 1.19 0.401 1.81-0.614 2.4-3.93 0.309-1.73 0.682-2.7 1.57-4.1 1.48-2.32 3.09-3.73 4.98-4.34 1.35-0.439 2.31-0.273 4.56 0.788 1.4 0.66 1.43 0.656 2.23-0.242 0.448-0.508 0.468-0.565 0.399-1.14-0.0596-0.5-0.0307-0.661 0.161-0.903 0.3-0.377 0.5-0.368 1.22 0.0546 0.729 0.426 0.89 0.288 0.654-0.563-0.219-0.789-0.202-1.04 0.0791-1.15 0.362-0.144 0.753 0.193 1.02 0.875 0.216 0.562 0.258 0.599 0.542 0.486 0.169-0.0675 0.538-0.214 0.82-0.325 0.295-0.116 1.27-0.238 2.3-0.287 2.12-0.1 2.15-0.0819 2.15 1.25 0 1-0.241 1.69-0.774 2.2-0.219 0.21-0.711 0.776-1.09 1.26-0.383 0.481-1.06 1.14-1.51 1.46-1.18 0.853-1.65 1.61-2.99 4.82-1.1 2.63-1.19 2.92-1.34 4.13-0.125 1.03-0.131 1.51-0.0296 2.3 0.0709 0.551 0.181 1.08 0.244 1.18 0.0656 0.102 0.372 0.179 0.714 0.179 0.497 0 0.609 0.0474 0.657 0.277 0.0674 0.324-0.11 0.439-0.677 0.439-0.507 0-0.457 0.255 0.126 0.641l0.43 0.285-0.326 0.175c-0.421 0.226-0.56 0.227-0.748 9e-3z" fill="#902329"/>
	</g>
</svg>
