<svg width="32" height="32" version="1.1" viewBox="0 0 32 32" xmlns="http://www.w3.org/2000/svg">
	<g transform="translate(-171 -546)">
		<path d="m198 547c-0.254 0-0.713 0.357-1.13 0.885-0.228 0.285-0.718 0.825-1.09 1.2-0.37 0.373-1.25 1.28-1.96 2s-1.41 1.43-1.56 1.55c-0.395 0.329-1.35 0.954-1.54 1.01-0.0942 0.0265-0.348-0.0259-0.615-0.126l-0.455-0.173-0.609 0.168c-1.19 0.328-2.27 0.868-3.17 1.59-0.621 0.498-0.991 0.924-1.39 1.6-0.414 0.696-1.28 1.47-3.59 3.21-0.582 0.439-1.19 0.923-1.34 1.08-0.472 0.462-1.02 0.713-1.93 0.887-0.211 0.0403-1.26 0.0966-2.33 0.124-1.7 0.0438-1.97 0.0651-2.13 0.179-0.563 0.398 0.18 1.71 2.13 3.76l0.971 1.02-0.477 0.522c-1.12 1.23-1.86 2.71-3.16 6.35-0.451 1.26-1.38 4.06-1.41 4.24h25.8l-8e-3 -1.77-0.01-1.9 0.182-0.369c0.0995-0.202 0.414-0.711 0.699-1.13 0.285-0.42 0.553-0.9 0.596-1.07 0.0771-0.305 0.0441-1.58-0.0469-1.83-0.0395-0.111 3e-3 -0.126 0.338-0.126 0.211 0 0.383-0.0332 0.383-0.0738 0-0.0404-0.0226-0.0747-0.0508-0.0758-0.0282-1e-3 -0.155-0.0962-0.283-0.211l-0.234-0.208 0.809-0.4-0.238-0.107c-0.243-0.111-0.48-0.306-0.48-0.396 0-0.0278 0.172-0.0928 0.381-0.143l0.379-0.0906-0.293-0.206c-0.162-0.113-0.398-0.321-0.523-0.463l-0.229-0.259 0.264-0.0906c0.366-0.126 0.411-0.197 0.166-0.255-0.301-0.0713-0.593-0.494-0.789-1.14-0.288-0.951-0.319-1.3-0.164-1.8 0.13-0.419 0.532-1.24 0.979-2 0.119-0.202 0.352-0.65 0.518-0.994 0.371-0.772 1.07-1.55 1.92-2.16 0.719-0.51 1.21-1.09 1.53-1.78 0.254-0.567 0.405-1.42 0.33-1.87-0.161-0.958-0.488-1.17-1.47-0.95l-0.391 0.0864-0.176-0.225c-0.208-0.267-0.598-0.484-0.754-0.419-0.0966 0.04-0.0865 0.0884 0.0703 0.377 0.0987 0.182 0.153 0.354 0.121 0.385-0.0581 0.0575-1.37 0.444-1.51 0.444-0.04 0 0.0287-0.292 0.152-0.651 0.124-0.358 0.38-1.17 0.572-1.8 0.504-1.66 0.47-2.15-0.205-2.99-0.179-0.224-0.295-0.448-0.311-0.598-0.0526-0.518-0.964-1.84-1.27-1.84z" fill="#902329"/>
	</g>
</svg>
