<svg version="1.1" viewBox="0 0 32 32" xmlns="http://www.w3.org/2000/svg">
	<path fill="rgb(144, 35, 41)" d="m13.918 0-3.1523 4.3887c0.1293-0.021787 0.2582-0.045877 0.39258-0.048828 1.5607-0.03442 2.8776 1.2612 2.8672 2.8223v0.011719l-2e-3 0.013672c-0.01424 0.61388-0.0217 1.3286-0.21875 2.1543 0.53313-0.53377 1.1672-1.2638 1.6074-1.7988 0.86769-1.0546 1.7879-2.2388 2.8809-3.4043l-3.8852 0.2929zm-7.5352 1.0449-0.17906 4.2343-3.1188-1.0404 1.7666 3.1851-3.6538-0.15808 1.4941 2.7564-2.6919 3.3392 3.541 1.2617-0.12891 1.8984c0.21539-0.35808 0.41089-0.69799 0.54102-0.99805 0.4973-1.1467 0.70056-2.2716 1.8027-4.0957 0.42259-0.6994 0.94839-1.1606 1.3184-1.4766 0.36997-0.31598 0.54578-0.56144 0.43945-0.36328 0.46067-0.85855 0.79649-1.4675 0.8418-1.582 0.034274-0.31578 0.066607-0.57902 0.060547-0.79297v-0.00977c-0.029175-1.3907 0.99976-2.5804 2.3359-2.8125l-0.8503-3.5322-1.2129 2.4992zm22.518 15.137c-0.14256 0.22877-0.32278 0.43843-0.54297 0.61719l-2e-3 2e-3c-0.01956 0.01638-1.2956 1.0843-2.1172 1.7012-0.77415 0.58129-1.556 1.1193-2.332 1.6328-0.6667 0.44116-1.3804 1.0623-2.0586 1.5586l-4e-3 4e-3c-1.0006 0.72664-3.9851 3.3065-6.5664 4.6719l-0.01172 0.0078-0.01172 0.0059c-0.29748 0.15035-0.59791 0.27022-0.89648 0.37891l-0.51267 4.2752 1.7056-2.8133 1.9858 3.2834 1.2531-4.4269 4 4.9198-0.95001-6.3254 5.77 3.6932-2.627-5.9939 5.1508 1.3585-2.3741-4.2121 4.2413-2.7391zm-6.597-13.293c-0.29354 0.0127-0.57423 0.12393-0.79662 0.31594 0 0-1.1575 0.95679-1.8174 1.634-1.1636 1.194-2.1417 2.4698-3.1185 3.657-0.44022 0.53503-1.3949 1.9012-2.344 2.5648-0.92711 0.64827-2.6601 1.3729-3.7283 1.6102-0.13869 0.0308 0.09092-0.15395 0.15797-0.27347 0.17527-0.31243 0.33861-0.60779 0.47729-0.86626 0.33559-0.62544 0.90435-1.3869 1.2094-2.4697 0.17065-0.66265 0.16627-1.2419 0.18175-1.9092 0.0049-0.73518-0.59835-1.3292-1.3334-1.313-0.71982 0.0158-1.2907 0.61184-1.2756 1.3317 0.011514 0.40662-0.036703 0.74685-0.083229 1.1822-0.14106 0.50077-0.55478 1.1206-0.99705 1.9448-0.28208 0.52573-1.2209 0.95507-1.7954 1.9058-1.0033 1.6605-1.1436 2.6098-1.7104 3.9168-0.88965 2.0515-3.0426 4.1351-2.6533 6.1612 0.4251 2.2123 3.1378 4.8547 5.6831 5.2094 0.60581 0.0844 1.1896-0.4942 1.6401-0.82288 0.97111-0.70839 3.132-0.89402 4.5768-1.6242 2.2945-1.2136 5.2138-3.7107 6.385-4.5612 0.58363-0.42704 1.3331-1.0804 2.1164-1.5988 0.76049-0.50322 1.5174-1.0245 2.2591-1.5814 0.75261-0.56511 2.0739-1.668 2.0739-1.668 0.81212-0.65774 0.31904-1.9707-0.72528-1.9313-0.24489 9e-3 -0.47952 0.10069-0.66583 0.25989 0 0-1.3506 1.1219-1.9873 1.6-0.69472 0.52163-1.418 1.0203-2.1555 1.5083-0.63148 0.41785-1.4141 0.80278-2.1996 1.3775-0.78049 0.35805-0.10389-0.24679-0.1292-0.32633 0 0 2.9107-2.2835 4.1242-3.1421 1.0695-0.75672 2.0021-1.553 2.9402-2.1945 0.5987-0.40947 2.0518-1.2807 2.0518-1.2807 1.1452-0.66171 0.69225-2.4112-0.63016-2.434-0.24919-5e-3 -0.4944 0.0629-0.7066 0.19364 0 0-1.4114 0.83637-2.1877 1.3673-1.0928 0.7474-2.0352 1.5539-2.9742 2.2183-0.76072 0.53827-1.8372 1.4089-2.716 2.1385-0.15106 0.12541-0.29912 0.44139-0.43823 0.32443-0.16725-0.14064 0.29385-0.58601 0.29385-0.58601l2.1945-1.9941 3.0472-2.7669 3.0455-2.7652c0.8928-0.78739 0.35113-2.2611-0.83908-2.2829-0.33905-7e-3 -0.66742 0.11872-0.91552 0.3499l-6.091 5.5339-1.6561 1.5032c-0.203 0.18433-0.64806 0.5932-0.90193 0.35669-0.26088-0.24304 0.09083-0.76549 0.20213-1.0225 0.25247-0.58308 0.87297-1.096 1.1941-1.4862 1.0129-1.231 1.9505-2.4452 2.9725-3.4939 0.41642-0.4273 1.6255-1.4556 1.6255-1.4556 0.97394-0.79293 0.37489-2.3692-0.87985-2.3151z" fill-rule="evenodd" style="paint-order:fill markers stroke"/>
</svg>
