<svg width="32" height="32" version="1.1" viewBox="0 0 32 32" xmlns="http://www.w3.org/2000/svg">
	<path d="m19.5 20.5c2-3.56 5.55-9.31 8.32-14.1-2.42 0.704-4.9 1.47-7.33 2.36 0.0587-1.09 0.0825-2.21-2e-3 -3.29 3.9-1.6 7.85-2.9 11.5-4.12-0.0796 1.25-0.237 2.53-0.416 3.78-1.66 2.96-7.93 13.2-8.95 14.9 2.19-0.26 4.51-0.423 6.89-0.572-0.179 1.24-0.387 2.49-0.665 3.72-3.53 0.0101-6.77 0.0418-9.65 0.4 0.147-1.04 0.243-2.06 0.32-3.09zm-8.9 3.1c0.722-2.68 1.58-5.47 3.21-9.09 0.575-1.27 1.15-2.47 1.74-3.69-0.777 0.365-1.54 0.748-2.3 1.15-1.53 0.826-2.96 1.75-4.3 2.77-0.174-0.816-0.389-1.65-0.699-2.42 1.36-1.1 2.83-2.12 4.41-3.04 2.09-1.22 4.29-2.29 6.52-3.25 0.102 0.99 0.106 2.02 0.0749 3.03-1.74 3.27-3.23 5.92-4.64 9.14-0.673 1.58-1.17 2.95-1.59 4.18 0.758-0.325 1.53-0.612 2.32-0.857 1.05-0.35 2.16-0.634 3.3-0.869-0.0588 1.01-0.136 2.01-0.261 3.04-0.853 0.127-1.67 0.287-2.46 0.488-1.68 0.371-3.33 0.954-4.9 1.72-0.122-0.785-0.276-1.55-0.442-2.31zm-6.86 5.75c0.173-3.69 0.428-6.07 1.42-11.2-1.68 1.75-3.11 3.64-4.27 5.62-0.269-0.538-0.568-1.09-0.918-1.55 1.74-3.22 4.17-6.3 7.23-8.98 0.307 0.691 0.532 1.45 0.719 2.19-1.47 5.39-1.95 8.01-2.39 12 1.32-1.29 2.81-2.43 4.41-3.4 0.181 0.736 0.35 1.47 0.488 2.23-2.22 1.16-4.24 2.69-5.92 4.48-0.238-0.465-0.5-0.908-0.769-1.35z" fill="#902329"/>
</svg>
