<svg width="64" height="64" version="1.1" viewBox="0 0 64 64" xmlns="http://www.w3.org/2000/svg">
	<path transform="rotate(180 32 32)" fill="rgb(144, 35, 41)" d="m31.993-2.9712e-6c-1.2024 0.013-2.403 0.0931-3.5963 0.24l-2.3651 7.2472-6.7117-4.8561c-1.9212 0.82071-3.7575 1.826-5.4827 3.0016l10.355 7.4917-0.92936 2.848h5.9521l2.7781-8.5128 8.0341 24.617 4.8148-3.4833-5.0482-15.469 10.383-7.5115c-1.7256-1.1753-3.5622-2.1802-5.4838-3.0005l-6.7388 4.8754-2.3729-7.2709c-1.1912-0.13887-2.3893-0.21128-3.5886-0.21688zm-19.578 6.6451c-1.6562 1.2694-3.1842 2.6964-4.5622 4.261l2.573 7.8847h-7.682c-1.0006 2.172-1.7539 4.4487-2.2457 6.7876l6.2263 4.5038-6.7244 4.8649c0.1901 2.0731 0.58283 4.1228 1.1726 6.1199l10.368-7.501 2.4309 1.7587 1.8394-5.6366-7.2728-5.2607h26.016l-1.8399-5.6366h-16.336zm39.151 0.0187-3.9574 12.127h-2.9893l1.8394 5.6366h8.99l-9.6806 7.0029-6e-3 -0.0181-4.8154 3.4833 6e-3 0.0182-6.5381 4.73 4.8154 3.4827 8.3775-6.0594 4.8392-3.5009 10.37 7.5032c0.59299-1.9941 0.98942-4.041 1.1837-6.1117l-6.7382-4.8754 6.1986-4.484c-0.48452-2.3449-1.2317-4.6284-2.2275-6.8074h-7.6726l2.568-7.8698c-1.3784-1.5633-2.9065-2.9891-4.5627-4.2572zm-31.98 20.575-5.0482 15.469h-12.818c0.69981 1.9604 1.5899 3.8482 2.6576 5.6366h8.3211l-2.3734 7.2731c1.77 1.6181 3.7166 3.0335 5.8034 4.2198l6.2219-4.501 2.5719 7.8825c2.0375 0.45608 4.1149 0.71344 6.2025 0.76843l-3.959-12.134 2.4392-1.7642-4.8154-3.4833-7.2928 5.275 8.0413-24.642zm5.8714 9.4276-1.8316 5.6141 13.216 9.5608-0.0431-3e-3 0.0216 0.0154-3.9634 12.147c2.0915-0.0631 4.1718-0.32932 6.2114-0.79485l2.5675-7.8687 6.2064 4.4895c2.0919-1.18 4.0443-2.5899 5.8205-4.2032l-2.3751-7.2781h8.3205c1.066-1.7886 1.9544-3.6764 2.6526-5.6366h-12.812l-0.92106-2.8227-4.816 3.4833 2.7781 8.5122z"/>
</svg>
