<svg width="116" height="96" version="1.1" viewBox="0 0 116 96" xmlns="http://www.w3.org/2000/svg">
	<path fill-opacity=".2" d="m26.252 95.009c-1.9024-1.8854-1.0956-8.508 1.3291-10.911 2.1223-2.1033 2.0263-2.8502-0.88759-6.9058-3.625-5.0453-2.9639-7.6923 1.9213-7.6923 2.3331 0 2.9548-0.70399 2.2436-2.5406-0.54105-1.3974-0.11926-3.6815 0.9373-5.0758 1.614-2.1301 1.568-2.2232-0.28798-0.58294-1.215 1.0737-3.3509 1.9522-4.7464 1.9522-2.7277 0-12.591-8.7815-12.591-11.21 0-0.80775-0.59213-1.106-1.3158-0.66266-2.499 1.5307-12.867-2.6463-12.855-5.1786 0.012765-2.5591 7.3856-6.8548 9.5206-5.5471 0.66598 0.40792 3.0026-1.3686 5.1925-3.9479 2.1899-2.5793 4.7365-4.6896 5.6592-4.6896 0.92269 0 1.6776-1.0542 1.6776-2.3427 0-3.7153 4.4032-2.7234 7.2893 1.642 1.9873 3.0059 3.0607 3.5334 4.37 2.1475 1.1126-1.1778 1.17-2.0565 0.15971-2.4483-4.1158-1.596-5.1127-3.5448-6.0787-11.883-0.80677-6.9645-0.56784-8.9803 1.0644-8.9803 1.4421 0 1.8862-1.4749 1.4108-4.6854-0.54584-3.6859-0.10448-4.6854 2.069-4.6854 1.5196 0 3.728 1.2299 4.9076 2.7331 2.0365 2.5953 2.2318 2.5886 3.8719-0.13138 2.2121-3.6687 8.4252-2.3344 13.763 2.9555 3.6197 3.5874 3.6813 3.9638 1.2489 7.6429-3.3281 5.0339-3.2347 7.1032 0.32044 7.1032 2.2998 0 2.7398-0.9387 2.1876-4.6674-0.48869-3.2999 0.05295-4.9504 1.8488-5.6334 1.3988-0.53199 2.54-2.7202 2.54-4.8705 0-2.6756 0.68357-3.6445 2.1718-3.0785 1.1945 0.45427 2.8711 0.13289 3.7258-0.71419 1.0215-1.0123 2.3988-0.7029 4.0191 0.90294 3.086 3.0584 4.92 3.0832 7.4179 0.10038 4.33-5.1707 9.9768-1.7994 6.3919 3.8161-1.0337 1.6191-0.50692 2.7192 1.8695 3.9045 4.9812 2.4843 5.0153 5.0572 0.09065 6.837-2.4268 0.87707-3.526 1.6502-2.4426 1.718 1.0834 0.06782 1.9698 1.1775 1.9698 2.466 0 1.2885 1.0637 2.3427 2.3638 2.3427 1.3001 0 2.3638 1.0542 2.3638 2.3427s-0.75099 2.3427-1.6689 2.3427-1.2093 0.73694-0.64764 1.6376c0.69924 1.1213 1.716 1.0662 3.2247-0.17473 2.8245-2.3232 7.1881-0.71671 6.0483 2.2268-0.57477 1.4845 0.10224 2.1665 1.9964 2.0114 1.7409-0.14262 2.8733 0.81467 2.8844 2.4384 0.0243 3.5615 2.2912 5.5404 7.0731 6.1749 5.7296 0.76018 4.8225 4.6397-1.5759 6.7393-3.0336 0.99548-6.2198 3.3519-7.0804 5.2366-0.8607 1.8847-2.3864 3.1142-3.3904 2.7324-1.004-0.38185-2.2195 0.79895-2.7011 2.624-0.80433 3.0483-1.1054 3.1196-3.701 0.87662-1.554-1.3429-3.6457-2.1452-4.6482-1.7829-1.0026 0.36228-2.867-0.81877-4.1432-2.6245-2.2798-3.2257-2.3326-3.201-3.0157 1.4121-0.59237 4-0.21215 4.6476 2.5674 4.373 2.7169-0.26841 3.2868 0.59201 3.407 5.1439 0.07931 3.0064-0.75577 8.1928-1.8558 11.525-1.5236 4.6156-1.5674 6.7455-0.18374 8.9413 1.3952 2.2141 1.3491 3.3441-0.19912 4.8736-1.6343 1.6147-2.5822 1.2529-5.0123-1.9132-2.6377-3.4366-3.3906-3.6642-6.2825-1.8993-3.977 2.4271-6.8576 1.0228-5.8369-2.8455 0.48971-1.8559 0.04928-2.5652-1.2792-2.0599-1.1143 0.42379-2.4751 0.05049-3.0238-0.82953-0.54879-0.88003-2.0388-1.2042-3.3112-0.72027-1.2723 0.48387-2.3133 0.0157-2.3133-1.0403 0-1.4292-0.54067-1.4754-2.1148-0.18064-1.1632 0.95671-2.5356 1.3225-3.0498 0.81283-0.51425-0.50966-2.5569 0.19924-4.5393 1.5753s-4.4352 2.502-5.4508 2.502c-1.0156 0-4.1239 2.1084-6.9074 4.6854-4.9874 4.6172-7.9187 5.6876-9.9805 3.6442zm7.5845-6.8194c-0.9431-1.5124 3.7776-6.4989 5.2808-5.5781 0.58017 0.35536 1.0549-1.0516 1.0549-3.1265 0-2.5-0.70796-3.5034-2.0987-2.9744-1.1543 0.43898-2.4371 0.79816-2.8508 0.79816-0.41363 0-0.24729 0.80942 0.36964 1.7987 0.61693 0.98929 0.06548 2.5706-1.2255 3.514-1.2909 0.94342-3.1598 3.2276-4.1531 5.076-1.5962 2.9705-1.4452 3.2672 1.3007 2.5556 1.7087-0.44284 2.7536-1.3714 2.322-2.0635zm46.52-8.7203c0-1.1883-0.70914-2.1606-1.5759-2.1606-0.86673 0-1.5759 0.778-1.5759 1.7289s-1.0637 1.3243-2.3638 0.82991c-1.3709-0.52138-2.3638-0.02647-2.3638 1.1781 0 1.3734 1.3347 1.8242 3.9397 1.3307 2.1668-0.41051 3.9397-1.7187 3.9397-2.907zm-34.073-2.4472c-0.71248-1.1309-1.4394-2.999-1.6154-4.1515-0.50292-3.2927-2.1848-4.2521-3.5674-2.035-0.78052 1.2516-0.0012 3.4307 2.0374 5.6993 3.4122 3.7966 5.427 4.1086 3.1455 0.48717zm13.188-1.8119c1.5417-3.3534 1.3647-3.6-2.1109-2.9415-4.2279 0.801-4.1631 0.70659-2.8371 4.1313 1.3437 3.4704 2.9871 3.0752 4.9479-1.1898zm10.305-8.8119c0.52973-2.0076 0.21584-2.7732-0.86553-2.1108-1.1047 0.67667-1.3098 0.03994-0.5876-1.8252 1.1198-2.892-1.1104-5.3863-4.8577-5.433-2.2469-0.028-0.9071 4.3646 2.3168 7.596 1.1818 1.1845 1.7614 3.1537 1.2881 4.376-0.47328 1.2223-0.24509 1.8455 0.50708 1.3848 0.75219-0.46071 1.7416-2.2552 2.1988-3.9877zm-10.444 1.9022c3.0977-1.9534 0.64593-9.7333-3.0674-9.7333-1.7809 0-4.578-1.202-6.216-2.671-2.47-2.2154-3.2073-2.3035-4.3218-0.51632-0.73903 1.1851-1.0992 3.9684-0.80031 6.1851 0.29887 2.2167 0.59225 4.5575 0.65197 5.2017 0.05969 0.64424 1.3496 1.1159 2.8664 1.048 1.6475-0.07368 1.9647-0.44045 0.78794-0.91105-3.4059-1.362-2.1503-3.9183 1.3792-2.8081 2.2537 0.70891 2.9964 0.48792 2.2708-0.67566-0.65507-1.0504 0.19526-1.7291 2.1665-1.7291 3.696 0 3.8893 0.57358 1.6134 4.7881-1.6743 3.1005-0.56226 3.8595 2.6692 1.8217zm22.173-1.3061c-0.52365-0.51898-1.8828-0.57445-3.0204-0.12331-1.2571 0.49857-0.88371 0.86864 0.95209 0.94359 1.6612 0.06782 2.592-0.30132 2.0683-0.82028zm-42.549-3.1236c-0.52364-0.51896-1.8828-0.57445-3.0204-0.1233-1.2571 0.49856-0.88372 0.86863 0.95208 0.94358 1.6612 0.06782 2.592-0.30132 2.0683-0.82028zm0.4268-7.0497c0-0.85898-0.70914-1.1274-1.5759-0.59655-0.86672 0.53089-1.5759 1.6681-1.5759 2.527 0 0.85899 0.70914 1.1274 1.5759 0.59655 0.86673-0.53088 1.5759-1.668 1.5759-2.527zm-6.2565-3.0262c2.3947-4.4345 0.7613-3.7109-2.393 1.0602-1.4897 2.2532-1.9296 3.6197-0.97765 3.0366 0.95198-0.58308 2.4688-2.4266 3.3706-4.0968zm43.912 0.34404c-0.78674-0.28812-0.97155-1.3423-0.41069-2.3427 0.56086-1.0004-0.22778-0.65639-1.7525 0.76442-1.5248 1.4208-2.2963 3.3465-1.7146 4.2794 0.74292 1.1913 1.6902 1.1197 3.1829-0.24058 1.1689-1.0652 1.4815-2.1724 0.69481-2.4605zm-46.017-5.9396c8.9378-0.43722 9.2844-0.52748 7.1596-1.8643-1.0944-0.6885-4.4628-1.0588-7.4854-0.8229-3.0226 0.23592-5.4956-0.28568-5.4956-1.1591 0-0.87342-0.75383-1.1263-1.6752-0.56199-0.92134 0.56434-3.2138-0.27269-5.0944-1.8601-3.2451-2.7392-3.3054-2.7409-1.1839-0.03397 1.9317 2.4648 1.928 3.0449-0.02718 4.271-1.7085 1.0714-1.7573 1.4247-0.19962 1.4428 1.2117 0.01406 1.5876 0.82946 0.91101 1.9762-0.6335 1.0737 0.39271 0.60951 2.2805-1.0316 4.1836-3.637 6.5263-2.0693 2.878 1.9259-1.4392 1.5761-2.601 3.5132-2.5818 4.3045 0.01927 0.79136 1.3979-0.3182 3.0636-2.4657 1.8343-2.3648 4.7722-3.9898 7.4503-4.1208zm54.257 3.7043c-1.5564-1.531-1.7374-1.3516-0.88216 0.87428 0.59178 1.5403 1.4729 2.4071 1.9581 1.9262 0.48518-0.48085 9.92e-4 -1.7411-1.076-2.8005zm-40.303-5.547c-0.71668-5.9371-0.75626-5.9958-2.355-3.4914-0.84378 1.3218-0.86436 3.3278-0.04964 4.8366 0.8866 1.6418 0.70361 3.3465-0.50393 4.6942-1.5793 1.7626-1.4525 1.7848 0.75901 0.1325 1.6298-1.2177 2.4598-3.6009 2.1495-6.1718zm29.077-0.6187c-3.6298-3.3515-4.927-3.5585-3.783-0.60385 0.46524 1.2016 0.01277 2.6951-1.0056 3.3188-1.3945 0.85414-1.3586 1.436 0.14554 2.3573 1.0984 0.67277 3.272 0.43417 4.8302-0.53024 2.7112-1.678 2.7031-1.8735-0.18707-4.542zm17.334 4.2395c0-1.2885-1.0917-2.3427-2.4259-2.3427-2.0043 0-2.0728 0.39679-0.39396 2.2833 2.5831 2.9026 2.8199 2.9076 2.8199 0.05939zm-38.609-2.3427c0.53566-0.85898-0.17348-1.5618-1.5759-1.5618-1.4024 0-2.1115 0.70281-1.5759 1.5618 0.53566 0.85898 1.2448 1.5618 1.5759 1.5618s1.0402-0.70281 1.5759-1.5618zm13.796-1.7893c-0.79731-0.7902-2.7574-0.93938-4.3557-0.33151-2.7869 1.0599-2.7816 1.15 0.13046 2.1984 3.6345 1.3086 6.2592 0.14883 4.2253-1.8669zm37.024 1.7893c6.0757 0 3.507-1.3994-4.369-2.3801-3.7999-0.47318-7.171-1.1201-7.4914-1.4377-0.32041-0.31754 0.55165-2.7511 1.9379-5.4079 3.4284-6.5705 1.9461-6.1257-2.0707 0.62135l-3.2457 5.4519 3.8671 0.96191c2.1828 0.54295 3.416 1.6852 2.8315 2.6225-0.6582 1.0555-0.03298 1.2793 1.7157 0.61429 1.5132-0.57547 4.5843-1.0463 6.8246-1.0463zm-18.198-4.3206c-1.0407-0.3438-1.9138-1.7964-1.9401-3.2281-0.04137-2.2447-0.28346-2.2012-1.7592 0.31613-1.2883 2.1976-1.1976 3.2337 0.36664 4.1919 1.1429 0.70001 2.786 0.83904 3.6514 0.30896 0.97637-0.59803 0.85541-1.201-0.31872-1.5889zm-28.682-2.7997c0-1.3392-0.72071-1.9934-1.6016-1.4539-0.88087 0.53954-1.1936 1.6352-0.69494 2.4349 1.3509 2.1663 2.2965 1.7623 2.2965-0.98099zm20.438-3.4219c-0.04113-3.6842-0.27732-3.9045-1.6612-1.5494-0.88728 1.51-1.1784 3.4427-0.64701 4.2949 1.6294 2.6128 2.3583 1.7458 2.3082-2.7455zm-23.593-1.9522c0.779 0 3.138-1.5813 5.2423-3.514l3.8259-3.514h-3.7621c-2.3622 0-3.4808 0.72642-3.0062 1.9522 0.47321 1.2222-0.63586 1.9522-2.9657 1.9522-3.8238 0-6.4309 3.7069-4.6338 6.5887 0.62253 0.99828 1.563 0.644 2.4472-0.92184 0.78985-1.3988 2.0735-2.5433 2.8525-2.5433zm35.353-2.0546c-1.0634-2.7463-5.8736-4.2768-8.4609-2.692-2.7696 1.6964 2.0306 5.0369 5.3978 3.7563 2.2845-0.86883 2.57-0.41456 1.7004 2.7062-0.84075 3.0171-0.72178 3.2422 0.60859 1.1514 0.9095-1.4294 1.2489-3.6443 0.75417-4.9219zm-45.812 2.8355c-0.49889-1.2885-1.4535-2.3427-2.1214-2.3427-0.66787 0-2.0971 1.0542-3.1761 2.3427-1.658 1.9799-1.3294 2.3427 2.1214 2.3427 2.9821 0 3.8386-0.63175 3.1761-2.3427zm23.725-1.3383c-1.0659-2.7529-6.9599-3.6035-6.9599-1.0044 0 0.85898 1.4183 1.5618 3.1517 1.5618 1.7335 0 3.1517 0.81994 3.1517 1.8221s0.37126 1.4541 0.82503 1.0044c0.45377-0.4497 0.3779-1.9724-0.1686-3.3839zm-16.534-7.6778c1.8302-2.3672 1.8047-2.6411-0.17608-1.8878-1.4247 0.54185-2.9865-0.49678-4.0559-2.6974-0.95648-1.9682-1.7871-2.7457-1.8457-1.7279-0.1249 2.1673 2.9448 10.581 3.5351 9.689 0.22102-0.33388 1.3652-1.8531 2.5426-3.3759zm22.767-0.48861c0.97779 0.22158 1.246 0.10812 0.5959-0.2522-0.65005-0.36028-1.1819-1.3408-1.1819-2.1789 0-0.8381 0.60671-1.1522 1.3482-0.698 0.74152 0.45419 1.0114-0.92034 0.59977-3.0545-0.41164-2.1342-1.4489-4.3093-2.305-4.8337-0.95123-0.58264-1.1432 0.33736-0.49358 2.3658 0.58463 1.8255 0.3887 3.3192-0.43539 3.3192-0.82411 0-1.8475 1.8103-2.2743 4.0229-0.51611 2.6757-0.24945 3.5011 0.79625 2.4647 0.86472-0.85699 2.3722-1.3769 3.35-1.1553zm-34.861-0.11952c-1.0834-0.43327-2.8563-0.43327-3.9397 0-1.0834 0.43326-0.19699 0.78774 1.9698 0.78774 2.1668 0 3.0532-0.35448 1.9698-0.78774zm51.183 0.09078c-0.52365-0.51898-1.8828-0.57446-3.0204-0.12331-1.2571 0.49856-0.88371 0.86864 0.95209 0.94359 1.6612 0.06782 2.592-0.30132 2.0683-0.82029zm-52.759-4.7761c-1.0834-0.43327-2.8563-0.43327-3.9397 0-1.0834 0.43326-0.19699 0.78774 1.9698 0.78774 2.1668 0 3.0533-0.35448 1.9698-0.78774zm9.201-7.5555c1.4842-2.8794 1.4357-2.9099-0.62046-0.39044-2.4112 2.9546-5.8227 3.6696-5.8227 1.2204 0-0.83203-1.1775-1.065-2.6167-0.51763-2.2395 0.8517-2.1259 1.1751 0.78794 2.2433 1.8725 0.68651 3.4155 2.1494 3.4288 3.2508 0.02612 2.165 1.88-0.05763 4.8432-5.8064zm18.771 3.9045c-0.92772-1.718-2.0413-3.1236-2.4747-3.1236s-0.02884 1.4056 0.89883 3.1236c0.92772 1.718 2.0413 3.1236 2.4747 3.1236 0.43336 0 0.02884-1.4056-0.89883-3.1236zm16.215-6.2472c0.9743-3.6925 0.14644-3.9443-2.933-0.89245-2.8334 2.8081-2.8548 4.016-0.07127 4.016 1.199 0 2.5509-1.4056 3.0042-3.1236zm-37.676-2.4238c0.53816-1.3899 0.27397-2.0168-0.61933-1.4696-0.85681 0.5248-1.5578 1.6155-1.5578 2.4238 0 2.2465 1.1295 1.7515 2.1771-0.95419z"/>
	<path fill-opacity=".4" d="m26.176 94.933c-1.136-1.1259 0.5258-8.3894 2.4857-10.864 1.4226-1.7964-1.0391-7.9268-4.0554-10.099-2.0701-1.491 0.37012-4.4695 3.6618-4.4695 1.9627 0 3.0902-1.4203 3.5403-4.4598 0.5401-3.647 0.15528-4.3288-2.1115-3.7414-6.0845 1.5769-14.943-5.2803-14.12-10.931 0.09373-0.64424-0.61458-1.1713-1.574-1.1713-0.95946 0-1.3222-1.0907-0.80599-2.4238 0.57114-1.4751 0.28667-2.0246-0.72676-1.4038-0.91589 0.56099-1.2496 2.0935-0.74158 3.4055 0.75525 1.9506-0.0059 2.2012-4.177 1.3745-9.4871-1.8805-9.9008-6.3304-0.74686-8.0324 3.2449-0.60331 6.2644-2.6323 8.218-5.5223 1.6986-2.5127 3.9748-4.5706 5.0582-4.573 1.0834-0.0023 1.9698-1.0587 1.9698-2.3472 0-3.4938 2.5302-2.8376 6.0219 1.5618 3.5904 4.5237 4.4233 4.7083 7.4976 1.6614 2.3113-2.2906 0.42712-5.009-2.3099-3.3325-2.6109 1.5992-5.3224-3.6848-4.3538-8.4844 0.53276-2.64 0.27471-4.6815-0.59173-4.6815-2.3931 0-1.8053-4.249 0.72075-5.2096 1.2415-0.47214 2.4825-3.0828 2.7578-5.8014l0.50055-4.943 4.3337 3.998c4.7188 4.3533 5.583 7.2707 2.1536 7.2707-1.199 0-2.5892-1.5506-3.0892-3.4458-0.50008-1.8952-1.3494-3.0096-1.8873-2.4764-0.53796 0.53315-0.18656 2.4352 0.78088 4.2267 1.5379 2.848 1.3064 3.2801-1.8422 3.4385-2.6997 0.13582-2.906 0.36088-0.82409 0.89909 1.5274 0.39486 2.3043 1.4761 1.7264 2.4028-0.59289 0.95076-0.31994 1.2373 0.62643 0.65764 2.4529-1.5025 6.6146 0.48173 5.7413 2.7373-0.4652 1.2015-2.6661 1.6686-5.81 1.2333-2.7836-0.38548-4.604-0.21677-4.0454 0.37491 0.55865 0.59167 3.883 1.115 7.3875 1.1629 4.034 0.05517 6.692 0.91402 7.2444 2.3408 0.70964 1.8328-0.52282 2.1031-6.5996 1.4475-7.422-0.80072-5.6023 0.1556 5.4529 2.8657 4.6024 1.1282 4.9622 1.6513 4.0944 5.9513-0.74394 3.6865-0.46972 4.4987 1.2577 3.7253 1.215-0.54398 3.45-1.4229 4.9668-1.9531 1.5168-0.53022 2.7578-1.9363 2.7578-3.1246s0.70914-2.1605 1.5759-2.1605c0.86674 0 1.5759 1.0542 1.5759 2.3427 0 1.2885 1.3592 2.3427 3.0204 2.3427 1.6612 0 3.3454 0.87851 3.7427 1.9522 0.57782 1.5618 1.1399 1.5618 2.8103 0 2.3063-2.1563 4.7978-2.6115 4.2746-0.78089-0.18414 0.64424 0.54995 2.7527 1.6313 4.6854 1.2937 2.3121 1.3912 3.514 0.28534 3.514-0.92443 0-2.089-1.0542-2.5878-2.3427-1.3581-3.5074-4.2165-2.8252-3.2654 0.77934 0.45308 1.7171 0.07375 3.5814-0.84288 4.1429-1.0791 0.661-0.81406 1.6387 0.75203 2.7736 1.3303 0.96403 2.6859 3.1409 3.0126 4.8374 0.38136 1.9807 1.9981 3.1878 4.5175 3.373 2.4437 0.17961 2.8518-0.01687 1.0821-0.52093-2.1293-0.60648-2.4154-1.3181-1.1417-2.8391 1.2555-1.4992 1.0714-2.2688-0.70425-2.9441-1.3222-0.50286-2.3932-1.8148-2.3799-2.9155 0.0169-1.3993 0.48358-1.2967 1.5517 0.34144 1.3263 2.0339 1.5308 2.0048 1.5517-0.22114 0.01336-1.4178 1.7766-2.9997 3.9446-3.539 2.4666-0.61355 5.1083-3.2827 7.1235-7.1974 3.6223-7.0369 2.1364-8.4908-1.9697-1.9272-1.4778 2.3622-2.7057 3.4164-2.7288 2.3427-0.08581-3.9941-3.1979-1.7878-3.3044 2.3427-0.09751 3.7813-0.26807 3.9214-1.4261 1.1713-0.72347-1.718-0.92206-4.8205-0.44131-6.8944 0.68015-2.9342 0.33988-3.5677-1.5336-2.8552-1.3242 0.50361-3.2032 0.12721-4.1755-0.83646-1.3066-1.2949-1.7679-1.0594-1.7679 0.90294 0 1.4603-0.70914 2.6551-1.5759 2.6551-0.86674 0-1.5759-1.0542-1.5759-2.3427 0-1.3015-1.4008-2.3427-3.1517-2.3427-1.7335 0-3.1517-0.74428-3.1517-1.654 0-0.90968 0.70914-1.2196 1.5759-0.68872 0.86674 0.53088 1.5759 0.29052 1.5759-0.53414 0-0.82466-2.5037-1.4291-5.5638-1.3431-3.8775 0.10894-5.3253 0.77212-4.7771 2.1881 0.93238 2.408-3.1999 2.7632-4.6726 0.4016-0.55914-0.89662-0.14612-2.6697 0.91783-3.9402 1.5948-1.9044 1.4802-2.1373-0.65227-1.3263-3.3703 1.2817-3.2656 0.40661 0.7604-6.3559 1.8409-3.0922 3.0001-5.9662 2.5759-6.3865-0.42415-0.42036-1.6618 1.3667-2.7504 3.9712-1.0885 2.6045-2.6441 4.7354-3.4569 4.7354-0.81272 0-1.0444-0.69475-0.51491-1.5439 0.57439-0.92108-0.14288-1.1234-1.7781-0.50154-2.0508 0.77995-1.6747-0.34292 1.494-4.4602 5.7137-7.4241 5.2816-9.6935-0.55678-2.9241-4.7615 5.5208-6.802 3.4579-2.3499-2.3756 3.027-3.9663 3.0575-6.2861 0.05011-3.8125-1.7031 1.4008-2.3638 1.4405-2.3638 0.14221 0-2.4008 5.1714-4.2891 5.8906-2.1508 0.31023 0.92234 2.0603 1.2892 3.8891 0.81522 2.7571-0.71454 3.1784-0.306 2.4666 2.3916-0.61765 2.3408-0.24543 3.0203 1.327 2.4222 2.9958-1.1393 2.7966 3.374-0.35961 8.1479-1.3998 2.1172-2.2862 3.9297-1.9698 4.0276 0.31636 0.09792 2.5867 0.41191 5.0452 0.69771 3.6824 0.42808 4.2757 0.05271 3.3669-2.1303-2.5979-6.2409-2.508-7.7036 0.52202-8.4888 2.3329-0.60461 2.9108-1.7711 2.3409-4.7252-0.67676-3.5086-0.2654-3.8979 3.8993-3.6903 2.5607 0.12763 5.7191 1.1066 7.0185 2.1754 1.9241 1.5826 3.1083 1.3621 6.3797-1.1882 5.4154-4.2217 6.4432-3.9517 5.3615 1.4085-0.71381 3.5372-0.14813 5.0745 2.5608 6.9593 2.9868 2.0781 3.1437 2.6519 1.1132 4.0701-1.3001 0.90801-3.6058 1.3559-5.1238 0.99536-1.518-0.36055-2.4649-0.18247-2.1044 0.39574 0.36058 0.57821-1.1 1.8724-3.2457 2.8759-3.56 1.665-3.8584 1.527-3.4112-1.5773 0.33749-2.3428 1.962-3.7123 5.2177-4.3986 2.6002-0.54813 3.4684-1.0798 1.9294-1.1814-2.6187-0.17292-2.6365-0.49476-0.27777-5.0153 3.3545-6.4289 1.5879-7.8784-1.9964-1.6381-1.5438 2.6879-3.3388 4.8915-3.9889 4.8969-0.65005 0.0059-1.1819 1.0641-1.1819 2.3526 0 1.2885-0.70914 2.3427-1.5759 2.3427-0.86672 0-1.5794-0.5271-1.5837-1.1713-0.0047-0.64424-1.8203-3.2798-4.0356-5.8567l-4.0277-4.6854 4.227 7.4891c2.3249 4.119 3.8386 7.874 3.3638 8.3445-0.47476 0.47052-2.0315-1.3836-3.4594-4.1202-3.4289-6.5716-4.9087-4.9206-1.6197 1.8071l2.5524 5.221-4.0633-4.6854c-2.8963-3.3397-3.7549-3.7883-2.9893-1.5618 0.59073 1.718 2.4385 4.6292 4.1062 6.4694 2.3059 2.5444 2.5327 3.5219 0.94708 4.0811-1.1468 0.40442-1.5414 1.3118-0.87691 2.0163 0.6645 0.70458 2.0473 0.44939 3.0729-0.56708 1.0256-1.0165 6.1551-1.981 11.399-2.1434l9.534-0.29532-9.0613-0.56352c-9.737-0.60555-12.251-2.5272-4.0554-3.0993 2.7498-0.19192 5.4855-1.1282 6.0794-2.0806 0.71098-1.1401 2.4923-0.43432 5.2148 2.0663 4.8156 4.4231 4.0738 5.8295-3.0748 5.8295-6.1882 0-8.2221 2.5043-4.7935 5.9022 2.1837 2.1642 2.8575 2.1947 5.308 0.24057 3.9096-3.1177 9.5496-6.1428 11.453-6.1428 0.8785 0 1.5973 1.3836 1.5973 3.0746 0 2.0204 0.7705 2.7815 2.2472 2.2199 1.562-0.59402 2.4029 0.49242 2.7578 3.5631 0.4277 3.7005 1.3856 4.5444 5.9009 5.1986 7.771 1.1258 7.7685 4.1622-6e-3 6.4705-4.0879 1.2138-6.9317 3.0961-7.4087 4.9037-0.52209 1.9786-1.7506 2.6807-3.7736 2.1564-2.3772-0.61612-2.8006-0.15624-2.0406 2.2168 0.68444 2.1372 0.20371 2.9941-1.6797 2.9941-1.752 0-2.3191-0.82516-1.6877-2.4558 0.52298-1.3507 0.25728-3.7403-0.59048-5.3101-2.3511-4.3539 2.4693-5.4082 5.4492-1.1919 2.7268 3.8583 3.2429 2.4916 0.7808-2.0678-1.333-2.4685-1.1199-2.9684 1.1819-2.7735 5.2684 0.44629 8.3236-0.25515 8.3236-1.911 0-0.90968-0.78844-1.171-1.7521-0.58081-0.96363 0.59024-2.3819 0.1046-3.1517-1.0792-1.1741-1.8055-1.6498-1.7748-2.9514 0.19036-1.3391 2.0217-1.5551 1.9808-1.5759-0.29827-0.01324-1.4525 0.68501-3.0753 1.5517-3.6062 0.86672-0.53088 1.5534-1.8023 1.5259-2.8253-0.0274-1.023-1.4793 0.03784-3.2263 2.3575-1.7668 2.346-4.137 3.8522-5.3412 3.3943-1.7262-0.65648-1.4833-1.9857 1.1988-6.5603 2.8135-4.7986 2.905-5.3724 0.55958-3.508-2.5576 2.033-7.3239 9.6795-7.3239 11.75 0 0.47215 1.4183 0.85846 3.1517 0.85846 1.7335 0 3.1517 0.70281 3.1517 1.5618 0 1.9304-1.0217 1.9656-4.4387 0.15325-1.7084-0.90615-4.3414-0.67286-7.3818 0.65404-2.6515 1.1572-3.6 2.1183-2.1606 2.1895 1.4111 0.06981 3.6786 1.7082 5.0389 3.6409 1.7968 2.5528 2.496 2.8519 2.556 1.0932 0.0455-1.3314-0.76832-3.2641-1.8084-4.2949-1.2481-1.2369-1.3097-1.8742-0.18123-1.8742 1.7052 0 7.5187 7.6336 6.5318 8.5769-2.097 2.0043-6.2036 0.95438-9.1122-2.3297l-3.4581-3.9045 0.81824 4.8481c0.45003 2.6664 0.03392 5.6254-0.92472 6.5755-1.2734 1.262-0.51461 1.6389 2.8162 1.3991 4.0078-0.28858 4.5715 0.20413 4.6608 4.0741 0.0559 2.4213-0.77648 6.9338-1.8497 10.028-1.0733 3.094-1.5501 7.6139-1.0597 10.044 1.075 5.327-2.3953 6.127-5.4626 1.2593-1.5805-2.5082-2.6118-2.8301-5.0031-1.5618-4.214 2.2351-4.7952 2.039-4.7952-1.6181 0-1.7687-0.71415-2.7783-1.587-2.2437-0.87285 0.53462-2.0172-0.13914-2.5431-1.4973-0.52586-1.3581-2.1164-2.2812-3.5346-2.0512-2.7657 0.44846-3.0477-1.8262-1.0114-8.1595 1.0819-3.3649 0.92744-3.6258-1.14-1.9253-1.3153 1.0818-3.545 1.5282-4.9549 0.992-1.5406-0.58588-2.5635-0.18115-2.5635 1.0143 0 3.4376-1.8015 0.37517-2.2706-3.8598-0.35523-3.2072 0.24007-4.0473 2.8813-4.0663 2.7269-0.01956 2.9015-0.29773 0.9652-1.5379-1.9989-1.2803-1.9188-1.5177 0.51919-1.5379 2.3862-0.0198 2.704 0.78351 1.8446 4.6615-1.1504 5.1909-0.17922 5.867 3.372 2.3475 1.409-1.3964 1.9555-3.5977 1.3571-5.4663-0.57523-1.7962-0.28557-3.1284 0.68021-3.1284 0.92514 0 1.6821 0.97902 1.6821 2.1756 0 1.1966 1.1315 2.6059 2.5145 3.1319 2.2233 0.84554 2.1246 1.6112-0.85196 6.6111-1.8516 3.1101-3.0354 5.9829-2.6307 6.384s1.9328-1.565 3.3959-4.369c2.2542-4.3202 2.8821-4.7051 4.1148-2.5221 1.0028 1.776 0.6075 3.9208-1.2729 6.9053l-2.7275 4.3292 3.9488-3.9045c2.7039-2.6736 3.4844-4.5199 2.4756-5.8567-2.0622-2.7328 1.4393-6.5072 5.1457-5.5466 1.6309 0.42269 4.1014 0.13842 5.4899-0.63169 1.8923-1.0495 1.0364-1.5019-3.4172-1.8063-10.652-0.72801-11.457-0.87002-11.457-2.0191 0-0.62422 0.70914-1.5693 1.5759-2.1002 2.6796-1.6413 1.7348-3.8655-1.1819-2.7822-2.3597 0.87642-2.4624 0.66398-0.71142-1.4718 1.3757-1.678 1.5048-2.8278 0.39398-3.5082-0.90882-0.55666-1.6524-0.33657-1.6524 0.48907 0 0.82566-1.9501 2.125-4.3336 2.8874-4.8177 1.5411-11.425 0.95864-11.425-1.0071 0-0.69906-1.3776-1.628-3.0612-2.0644-2.5241-0.65418-2.8478-1.5767-1.8448-5.258 0.8975-3.2939 0.56386-4.9489-1.2724-6.3117-1.9933-1.4793-2.0966-2.2412-0.51903-3.8264 3.6775-3.6951 2.1752-4.4225-6.4348-3.1157-0.72228 0.10964-1.0591 0.95483-0.74855 1.8782 0.31058 0.92341 1.1768 1.5662 1.925 1.4284 1.7821-0.32821 4.0897 3.417 3.0916 5.0175-1.9087 3.0608-7.812 1.0005-10.489-3.6609-1.5438-2.6879-3.1961-4.5014-3.6716-4.0301-0.47555 0.47131 0.43301 2.8234 2.019 5.227s1.9973 3.8286 0.91386 3.1669c-1.1871-0.72504-1.9889-0.39075-2.0178 0.84131-0.02766 1.1798-0.77201 0.80922-1.76-0.87611-1.3881-2.3679-1.9808-2.5157-3.1326-0.78089-1.1617 1.7496-1.7168 1.6415-3.0459-0.59352-2.4464-4.1138-4.479-3.2857-3.8336 1.5618 0.31452 2.3622 0.62071 5.2595 0.68043 6.4384 0.09053 1.7883 0.52674 1.7995 2.6321 0.06782 3.0368-2.4978 15.118-3.1238 14.317-0.74179-0.30352 0.90243-1.7018 1.6438-3.1074 1.6474-1.4055 0.0035-3.6296 1.4122-4.9424 3.1302-3.0882 4.0413-3.1628 6.4045-0.12331 3.9045 1.8859-1.5511 2.3638-1.5511 2.3638 0 0 3.1384 4.085-0.93918 6.3356-6.3241 1.7916-4.2866 2.1102-4.4384 3.9889-1.9005 1.7 2.2965 1.6238 3.2175-0.45468 5.501-1.3731 1.5085-2.0163 3.2187-1.4293 3.8004 1.9952 1.9774 4.6505-2.4742 4.5583-7.6418-0.0864-4.8417-0.0035-4.9219 1.3909-1.3459 0.81551 2.0914 1.0903 4.816 0.61071 6.0547-0.4796 1.2387-0.06382 3.2173 0.924 4.3969 1.4725 1.7585 0.55503 2.187-5.0944 2.3793l-6.8904 0.23457 14.183 2.1853-5.9095 0.23456c-3.2502 0.12902-5.9095 0.87158-5.9095 1.6502s1.3001 1.0786 2.8891 0.66681c1.9213-0.49794 2.8891 0.09664 2.8891 1.7749 0 1.8905-1.0214 2.3117-4.071 1.6787-2.2391-0.46478-5.1347-0.15426-6.4348 0.69005-1.7682 1.1483-0.85127 1.5411 3.6387 1.559 6.7811 0.02706 6.6128 3.0382-0.18601 3.3287-2.668 0.11397-3.2179 0.44605-1.4829 0.89542 3.7313 0.96638 3.4766 3.9743-0.54742 6.4649-1.8179 1.1251-2.8877 2.4594-2.3775 2.9651 0.51025 0.50569 0.1379 1.8626-0.82744 3.0154-0.96533 1.1528-1.1365 2.0736-0.38029 2.0463 2.2453-0.08117 6.2216-3.6537 7.3326-6.588 0.56913-1.5032 2.1626-2.7331 3.5411-2.7331 1.3784 0 2.0715-0.69724 1.54-1.5494-0.53143-0.85219-0.31684-2.6995 0.47685-4.105 0.98571-1.7456 1.7914-1.997 2.5421-0.79327 0.60446 0.9693 0.22983 1.7624-0.8325 1.7624-2.5852 0-0.37992 2.0796 2.6768 2.5242 1.9209 0.27941 2.1972-0.66314 1.3483-4.6004-0.5872-2.7235-1.6556-5.6798-2.3742-6.5694-0.80826-1.0006-0.18193-1.6176 1.6421-1.6176 1.6218 0 2.5852 0.583 2.1408 1.2955-1.0773 1.7275 2.6129 6.0298 4.2905 5.0022 1.7415-1.0667 5.05 5.1489 3.8042 7.1468-0.53333 0.85524-1.622 1.1555-2.4192 0.66714-1.8044-1.1052-12.482 3.7778-15.667 7.1652-2.8692 3.0509-10.366 6.3046-11.633 5.0488zm55.492-8.9882c-1.3563-2.9501-1.3029-4.4205 0.22674-6.2472 1.6886-2.0164 1.479-2.3889-1.3442-2.3889-1.8396 0-3.3447-0.70281-3.3447-1.5618 0-0.85898 1.7729-1.5618 3.9397-1.5618 2.1668 0 3.9397-0.778 3.9397-1.7289 0-0.95088-1.1217-1.3023-2.4927-0.78089-1.371 0.52139-3.4157 0.94799-4.5438 0.94799-1.1281 0-2.495 1.2299-3.0375 2.7331-3.1955 8.8545-3.718 11.323-2.3967 11.323 0.79178 0 1.4396-1.0542 1.4396-2.3427 0-3.5665 2.7764-2.8005 5.6605 1.5618 3.2975 4.9877 4.2354 5.0099 1.9534 0.04627zm-57.893-33.9c1.2478-2.3107 1.2526-2.9256 0.0169-2.1687-0.94855 0.58099-2.5083 2.5076-3.4662 4.2814-1.2478 2.3107-1.2526 2.9256-0.0169 2.1687 0.94854-0.581 2.5083-2.5076 3.4662-4.2814zm32.354 2.1531c-1.5114-2.4236 2.0409-5.6735 6.4083-5.863 5.4189-0.2351 4.4133-3.0427-1.0898-3.0427-2.8935 0-4.0742-0.93928-4.4463-3.5372-0.27866-1.9455-1.0985-3.1747-1.8219-2.7316s-0.92344 2.2906-0.44455 4.1055c0.73864 2.7993 0.35766 3.1385-2.5117 2.2359-2.4773-0.77925-3.3825-0.40888-3.3825 1.384 0 2.8782 0.73384 3.0044 4.8312 0.8312 3.7819-2.0059 4.2315 0.8052 0.46308 2.8953-2.5973 1.4405-1.7486 4.9686 1.1952 4.9686 0.86674 0 1.2262-0.56066 0.79892-1.2459zm7.572-0.13892c0.47497-0.76166-0.19232-2.2533-1.4829-3.3148-1.6289-1.3398-2.3465-1.3939-2.3465-0.17696 0 0.96416 0.88643 1.8024 1.9698 1.8628 1.0834 0.06044 0.55156 0.71379-1.1819 1.452-2.5693 1.0942-2.6593 1.3625-0.48697 1.452 1.4656 0.06044 3.0534-0.5134 3.5284-1.2751zm-55.045-7.9859c0.53567-0.85899 0.22295-1.5618-0.69492-1.5618-0.91789 0-1.6689 0.70281-1.6689 1.5618 0 0.85898 0.31272 1.5618 0.69494 1.5618s1.1332-0.70281 1.6689-1.5618zm55.582-5.9543c0.34308-1.02-0.49902-1.8546-1.8713-1.8546s-2.4951 1.1128-2.4951 2.4728c0 2.758 3.3925 2.2777 4.3665-0.61821zm-41.618-2.6355c-0.49889-1.2885-1.6272-2.3427-2.5073-2.3427-0.92236 0-0.76921 0.99237 0.36156 2.3427 1.079 1.2885 2.2073 2.3427 2.5073 2.3427 0.30003 0 0.13734-1.0542-0.36157-2.3427zm37.251-11.713c0-0.85898-0.70914-1.5618-1.5759-1.5618-0.86672 0-1.5759 0.70281-1.5759 1.5618 0 0.85899 0.70914 1.5618 1.5759 1.5618 0.86674 0 1.5759-0.70281 1.5759-1.5618zm12.803-19.158c-1.5564-1.531-1.7374-1.3516-0.88216 0.87428 0.59179 1.5403 1.4729 2.4071 1.9581 1.9262 0.4852-0.48086 1e-3 -1.7411-1.076-2.8005zm-43.532 47.27c0.53566-0.85898 1.2867-1.5618 1.6689-1.5618 0.38222 0 0.69494 0.70281 0.69494 1.5618 0 0.85899-0.75099 1.5618-1.6689 1.5618-0.91788 0-1.2306-0.70281-0.69492-1.5618z"/>
	<path fill-opacity="1" d="m29.201 92.83c0.56871-0.91197 2.8912-2.3579 5.1612-3.2133 3.3264-1.2534 3.6789-1.8361 1.8168-3.0033-1.2707-0.79651-1.6013-1.5127-0.73454-1.5916 4.8589-0.44218 7.8829-1.4766 8.3465-2.8552 0.28841-0.85751 1.5555-1.167 2.8158-0.68768 1.8654 0.70942 2.0041 0.12266 0.74634-3.156-1.8612-4.8517-0.33834-6.1993 3.6992-3.2733 2.8329 2.053 2.7362 2.3624-2.1539 6.8896-2.816 2.607-5.8291 4.7401-6.6957 4.7401-0.86663 0-3.6826 1.757-6.2577 3.9045-4.7625 3.9716-8.6214 5.2569-6.744 2.2464zm41.793-4.9795c1.2491-1.0737 3.0918-2.9062 4.0949-4.0722 1.5052-1.7495 2.1199-1.5716 3.5184 1.018 1.4501 2.6852 1.2694 3.0278-1.252 2.3743-1.6206-0.42001-3.423 3.75e-4 -4.0053 0.93419s-1.8616 1.6979-2.8429 1.6979c-1.0685 0-0.87312-0.78307 0.48697-1.9522zm10.33-2.4788c-0.77218-1.2191-0.59281-2.8118 0.43093-3.8264 2.6677-2.6439 2.1071-4.2369-1.491-4.2369-1.7846 0-2.8783-0.58755-2.4305-1.3057 0.93084-1.4927 6.6657-1.3569 8.2315 0.1949 0.57454 0.5694 0.31072 1.9308-0.58625 3.0253-0.89697 1.0945-1.9011 3.3956-2.2314 5.1136-0.45614 2.3726-0.91854 2.6215-1.9233 1.0353zm-51.819-1.9148c1.548-1.6185 1.1342-3.0743-2.05-7.2118l-3.9896-5.1839 3.6259 0.02389c2.9191 0.01921 3.1651 0.31903 1.2621 1.5379-1.7547 1.1238-0.8171 1.5201 3.6387 1.5379 6.304 0.02507 6.8422 3.0012 0.60193 3.3287-2.6661 0.13989-2.8244 0.34391-0.69494 0.89542 3.7048 0.95951 3.472 2.4301-0.78794 4.9786-2.6869 1.6074-3.0759 1.63-1.6061 0.09336zm37.076-1.6577c1.4545-0.80672 3.2877-2.6056 4.0737-3.9976 1.1669-2.0666 1.429-1.8425 1.4287 1.2211-2.84e-4 2.9302-0.89244 3.8057-4.0737 3.9976-3.3118 0.19973-3.5789-0.02858-1.4287-1.2211zm-13.014-1.3672c0-0.85898 0.75099-1.5618 1.6689-1.5618 0.91789 0 1.2306 0.70281 0.69494 1.5618-0.53566 0.85899-1.2867 1.5618-1.6689 1.5618-0.38222 0-0.69494-0.70281-0.69494-1.5618zm5.3813-0.2153c-0.50894-0.81611 0.11535-3.0579 1.3872-4.9817 1.3728-2.0765 2.0862-5.9983 1.7554-9.651l-0.55711-6.1532 2.3432 4.4761c2.1441 4.0958 2.0734 4.9291-0.83168 9.809-4.1114 6.9061-4.0117 8.0073 0.37087 4.0971 6.0194-5.3705 8.1133-6.0298 5.2117-1.6409-2.7924 4.2237-8.1673 6.4696-9.6796 4.0446zm-8.7462-7.5936c-0.49938-1.2885 0.47222-3.7483 2.1591-5.4663l3.0671-3.1236-0.53667 3.1236c-0.38716 2.2534 0.27846 3.0554 2.3892 2.8789 2.0684-0.17297 2.4344 0.24244 1.2487 1.4175-1.1856 1.1751-2.3509 1.108-3.9761-0.22869-1.86-1.5299-2.4082-1.3532-2.8711 0.92517-0.46364 2.2818-0.74443 2.3717-1.4801 0.47339zm25.821-1.1186c2.3835-0.35784 4.3337-1.2594 4.3337-2.0034 0-0.74405 1.5956-1.8556 3.5457-2.47 3.443-1.0849 3.4545-1.1554 0.39396-2.4347-2.9335-1.2262-2.9425-1.2913-0.13059-0.94025 3.2545 0.40632 5.5292 4.2817 2.5132 4.2817-1.0009 0-2.8835 1.0542-4.1836 2.3427-1.3001 1.2885-4.2633 2.2374-6.5849 2.1087l-4.2211-0.23401zm-43.961-1.5162c1.5706-1.5566 7.3253-1.7576 6.3679-0.22244-0.44432 0.71249-2.3025 1.2954-4.1292 1.2954s-2.8342-0.48285-2.2387-1.073zm0.30251-7.5168c0.40415-2.577 0.31692-3.8069-0.19386-2.7331-1.1645 2.448-6.0956 2.5196-9.9335 0.14424-2.7838-1.723-2.7335-2.0168 1.0698-6.2472 5.0269-5.5914 7.9767-5.8581 3.5844-0.32406-4.0788 5.1391-4.121 6.8175-0.17119 6.8175 1.7805 0 4.7084-2.3532 6.8939-5.5408 2.7662-4.0344 4.0415-4.9147 4.6908-3.2378 0.49044 1.2667-0.0877 3.1086-1.2847 4.0932-1.1971 0.98458-1.7451 2.9043-1.2178 4.2661 0.79283 2.0476 1.5263 1.772 4.24-1.5938l3.2813-4.0697 0.1678 4.6031c0.15283 4.1926-0.29218 4.6032-4.9903 4.6032-2.8369 0-5.5436 0.87851-6.0148 1.9522-0.4712 1.0737-0.52605-0.15618-0.1219-2.7331zm39.466 2.1171c0.4583-0.7349-0.42427-1.3362-1.9612-1.3362-2.6065 0-2.6181-0.17488-0.1721-2.599 2.1305-2.1114 3.0677-2.2327 4.9963-0.64644 1.3056 1.0739 3.1059 1.5041 4.0007 0.95606 0.94542-0.57909 1.26-0.04908 0.75109 1.2653-0.48166 1.244-2.5795 2.5846-4.6619 2.9791-2.0824 0.39452-3.4112 0.11596-2.9529-0.61888zm-3.2813-7.6012c2.0997-3.3671-1.1446-4.8435-4.4741-2.0361-3.1202 2.6309-3.2055 2.6347-1.1856 0.05294 1.8911-2.4171 1.7842-3.0934-0.81509-5.1567-2.8428-2.2566-2.7957-2.3216 0.94806-1.3065 2.1668 0.58751 4.1761 1.6781 4.465 2.4235 0.2889 0.74544 1.5299 1.3554 2.7578 1.3554 3.0138 0 2.8477 4.1172-0.21317 5.2813-1.4024 0.53335-2.035 0.27152-1.4829-0.6138zm9.2168-2.3259c-0.16703-2.8688 0.56392-3.9034 2.7578-3.9034 1.6418 0 2.985 0.74428 2.985 1.654 0 0.90968-0.70914 1.2196-1.5759 0.68873-0.86672-0.53089-1.5759 0.48184-1.5759 2.2505 0 4.6024-2.3189 3.985-2.5911-0.68983zm7.9561 2.1025c-0.69666-1.1171-0.43228-1.3792 0.69494-0.68873 2.4523 1.502 2.3375-2.5548-0.15048-5.3199-1.684-1.8716-1.5572-1.8789 0.87397-0.05037 1.5641 1.1764 3.5392 3.4266 4.3891 5.0005 1.2558 2.3255 0.9619 2.8616-1.5689 2.8616-1.7128 0-3.6202-0.81139-4.2386-1.8031zm-36.222-2.5266c-2.142-1.7626-3.132-4.1765-2.8547-6.9605 0.23347-2.3442-0.24103-4.6698-1.0544-5.168-0.8134-0.49822-1.4789-2.0275-1.4789-3.3984 0-2.1796 0.39165-2.1413 3.1189 0.30476 2.8421 2.5491 3.2067 2.5706 4.1083 0.24206 0.54416-1.4054 1.9181-2.5553 3.0533-2.5553s2.4236-0.87851 2.8632-1.9522c0.55532-1.3564 1.1967-1.4408 2.1012-0.27653 1.6923 2.1782 6.8225 4.3534 10.555 4.4752 1.6223 0.05294 4.0233 1.6921 5.3354 3.6426 2.1655 3.2189 2.1477 3.4558-0.19192 2.566-1.4177-0.53917-2.5777-1.6079-2.5777-2.375 0-3.1594-3.1617-1.1142-3.2762 2.1193-0.06843 1.9327-0.48209 2.6355-0.91926 1.5618-0.43716-1.0737-2.3313-2.0338-4.2092-2.1334-2.7936-0.14823-2.8972-0.31405-0.56941-0.91207 3.3928-0.87162 2.7142-4.163-1.0057-4.878-1.6522-0.31758-2.6272 0.5177-2.6272 2.2507 0 2.5047-0.20566 2.4796-2.2577-0.27592-1.848-2.4814-2.6321-2.6655-4.3205-1.0144-1.6988 1.6613-1.6479 2.2995 0.28788 3.6163 1.8095 1.231 1.5344 1.3715-1.1951 0.61062-2.8962-0.80738-3.5457-0.36599-3.5457 2.4097 0 2.8742 0.6278 3.242 4.0717 2.3853 2.6403-0.65675 3.7156-0.44174 3.0587 0.61158-0.55714 0.89342-2.0939 1.6244-3.4151 1.6244-3.1595 0-1.8495 3.7586 1.5368 4.4094 1.555 0.29888 2.6272-0.49783 2.6272-1.9522 0-2.7457 2.44-3.3003 3.9397-0.89541 0.53567 0.85898 0.1811 1.5618-0.78793 1.5618-0.96904 0-1.3236 0.70281-0.78794 1.5618 1.6462 2.6398-6.0927 1.6658-9.5827-1.2061zm45.936 1.3605c0.347-0.34455-0.59907-1.5521-2.1024-2.6835-2.4379-1.8347-2.4561-2.0624-0.16846-2.1067 1.4106-0.02729 3.4411 0.9968 4.5122 2.2758 1.0711 1.279 2.5762 1.9403 3.3447 1.4696 0.76853-0.47073 1.3973-0.18594 1.3973 0.63288s-1.7132 1.3874-3.8071 1.2635c-2.0939-0.12388-3.5232-0.50714-3.1762-0.85171zm-78.902-1.7162c-0.53567-0.85898 0.17347-1.5618 1.5759-1.5618s2.1115 0.70281 1.5759 1.5618c-0.53567 0.85899-1.2448 1.5618-1.5759 1.5618s-1.0402-0.70281-1.5759-1.5618zm83.784-2.603c-2.1334-2.1143-0.96947-3.9599 1.3132-2.0824 1.6332 1.3433 2.3638 1.4024 2.3638 0.19123 0-0.96416 1.9501-1.6715 4.3336-1.5718 3.2753 0.13692 3.564 0.36465 1.1819 0.9325-1.7334 0.41323-3.8254 1.3859-4.6488 2.1615-1.7802 1.6769-3.1148 1.7852-4.5438 0.369zm-94.685-1.8767c-2.5287-0.5426-4.8928-1.8659-5.2535-2.9407-0.68093-2.0286 5.759-5.2572 7.9407-3.9811 0.68271 0.39935 4.1556-1.8833 7.7175-5.0725l6.4762-5.7986 2.9645 3.7178c5.2587 6.595 6.0901 8.6635 3.4823 8.6635-1.3057 0-3.4131-1.9913-4.683-4.4251-1.2699-2.4338-3.0814-4.4251-4.0256-4.4251-0.99234 0-0.58966 1.7046 0.95432 4.04 1.469 2.222 2.2065 4.5003 1.6389 5.0628-0.56763 0.56255-1.7232-0.20122-2.568-1.6973-1.8764-3.323-5.2253-3.6421-3.9612-0.37744 0.7229 1.867-0.52279 2.3427-6.1349 2.3427-3.8731 0-7.042 0.70281-7.042 1.5618 0 1.5752 3.7845 2.211 11.031 1.8529 3.5778-0.17676 3.6501-0.06571 0.78794 1.2091-3.5806 1.5948-3.1905 1.5836-9.3252 0.26717zm107.56-3.2591c-0.2907-0.83113-3.4515-1.714-7.024-1.962-4.4193-0.30673-6.2542-1.0748-5.7409-2.4031 0.9078-2.3489 3.0177-2.538 4.357-0.39044 0.53567 0.85898 2.5277 1.5726 4.4266 1.5857 4.4304 0.03069 8.2935 2.3634 6.1194 3.6951-0.88524 0.54222-1.8474 0.30584-2.1381-0.52529zm-80.268-5.0476c-1.8365-3.4009-3.4095-5.4914-7.5153-9.9881-1.1866-1.2996-1.7751-2.7418-1.3078-3.2049 0.46729-0.46313 2.0753 1.0119 3.5734 3.2778 2.6125 3.9516 10.609 9.2172 11.961 7.8767 0.35753-0.35433 0.65005 0.72791 0.65005 2.405 0 4.184-5.0399 3.9332-7.3617-0.36644zm61.183 2.4649c-0.48049-0.4762 0.15229-3.2993 1.4062-6.2735 1.2539-2.9742 1.7931-6.1881 1.1983-7.142-0.67632-1.0845-0.35963-1.2922 0.84524-0.55418 1.0597 0.6491 1.4999 2.2828 0.97805 3.6305-0.52181 1.3477-0.03829 3.0228 1.0745 3.7226 1.4961 0.9408 1.3176 1.2785-0.6851 1.2962-1.6681 0.01464-2.3834 0.86306-1.8624 2.2086 0.87248 2.2533-1.4029 4.6496-2.9547 3.1117zm-15.342-1.392c-0.53134-3.4752-0.84976-10.152-0.48419-10.152 1.6077 0 3.0134 6.0673 1.9901 8.5899-0.69692 1.718-1.3746 2.4208-1.5059 1.5618zm10.197-3.7821c1.8273-3.5021 1.9283-4.736 0.43443-5.3071-1.0705-0.40928-0.459-0.67428 1.359-0.5889l3.3054 0.15525-3.0671 5.1519c-3.7948 6.3743-5.2742 6.8031-2.0317 0.58889zm-5.4517-0.12242c0-0.85898 0.751-1.5618 1.6689-1.5618s1.2306 0.70281 0.69492 1.5618c-0.53566 0.85898-1.2867 1.5618-1.6689 1.5618-0.38222 0-0.69494-0.70281-0.69494-1.5618zm-48.852-2.7894c0-0.94142 0.72071-2.1531 1.6016-2.6927 0.88086-0.53954 1.1245-1.7459 0.54151-2.6809-0.70924-1.1373 0.19497-1.3671 2.7321-0.6943 2.0857 0.55307 4.8559 1.0259 6.1559 1.0508 2.0472 0.03924 2.0572 0.23746 0.07529 1.4801-1.2587 0.78915-2.899 1.0609-3.645 0.60398-0.74604-0.45696-2.73 0.40115-4.4089 1.9069-1.6789 1.5058-3.0525 1.9675-3.0525 1.0261zm33.093-0.81661c0-1.1243 0.97037-3.3594 2.1564-4.9668 2.0838-2.8244 2.2182-2.8082 3.9951 0.48239 1.0368 1.9201 1.1846 3.405 0.33877 3.405-0.825 0-1.8577-0.87851-2.2948-1.9522-0.43716-1.0737-0.85083-0.37092-0.91926 1.5618-0.12938 3.6545-3.2762 5.0663-3.2762 1.4698zm-17.397-6.4707c1.0445-1.2473 1.5021-3.5314 1.0169-5.0758-0.4852-1.5444-0.14275-3.8623 0.76097-5.1508 1.2812-1.8267 1.4234-1.5687 0.64577 1.1713-0.87851 3.0953-0.42132 3.514 3.8364 3.514 5.3772 0 5.5952-0.35721 3.0708-5.0319-1.4812-2.7429-1.1752-3.7042 1.9142-6.0137 3.6224-2.7079 3.7329-2.6676 7.4186 2.708 2.0578 3.0013 3.3762 5.8189 2.9297 6.2615-0.4465 0.44251-1.946-1.3692-3.3323-4.0259-1.3863-2.6568-3.293-4.8305-4.2371-4.8305-1.0148 0-0.63784 1.756 0.92193 4.2949l2.6386 4.2949-3.2847-3.7353c-4.9922-5.677-5.8138-2.586-0.98162 3.6928 2.3318 3.0298 3.6717 5.5625 2.9775 5.6283-0.69416 0.06571-2.5065 0.35543-4.0274 0.64379-1.5209 0.28836-2.3655-0.11678-1.8768-0.90039 0.48865-0.78358-0.21111-1.4247-1.555-1.4247-1.3439 0-3.3292 1.4056-4.4118 3.1236-1.0826 1.718-2.9483 3.1236-4.146 3.1236-1.7251 0-1.783-0.47134-0.27867-2.2677zm26.311 1.0964c-0.40006-0.64424 1.5082-1.2898 4.2406-1.4346 4.0275-0.21348 4.3714-0.01253 1.8163 1.0616-4.1062 1.7261-5.1758 1.792-6.0569 0.37308zm-47.26-1.4316c-0.57782-0.57266-1.0506-2.4157-1.0506-4.0957 0-2.2477 0.52029-2.6359 1.9698-1.4696 1.0834 0.87173 3.3881 1.9305 5.1216 2.3527 2.7935 0.68053 2.7382 0.78838-0.48697 0.94896-2.0013 0.09968-3.2004 0.88397-2.6648 1.743 1.0833 1.7371-1.2393 2.1556-2.8891 0.52059zm59.866-1.3721c0.48004-1.2398 1.5076-1.8653 2.2835-1.3901 1.9543 1.197 1.7744 1.7691-0.8728 2.7758-1.5232 0.5793-1.993 0.11792-1.4107-1.3857zm-49.082-2.2976c0.54441-0.87299 1.65-1.1829 2.4568-0.68873 2.1858 1.3388 1.7782 2.276-0.98983 2.276-1.3512 0-2.0114-0.71426-1.467-1.5873zm37.017 0.02542c0-0.85898 1.8147-1.5618 4.0327-1.5618 2.2872 0 3.6111-0.67602 3.0587-1.5618-0.53566-0.85898-0.22294-1.5618 0.69494-1.5618 3.2363 0 1.6186 3.2198-2.3734 4.724-5.0306 1.8955-5.413 1.8928-5.413-0.03866zm-47.221-6.1445c-0.89722-1.6615-1.5833-3.9456-1.5247-5.0758 0.05862-1.1302 0.87617-0.4736 1.8167 1.4591 1.0534 2.1647 3.1303 3.514 5.4089 3.514 2.0344 0 3.6989 0.70281 3.6989 1.5618 0 2.8507-7.7195 1.6524-9.3998-1.4591zm17.462 1.7574c-0.10058-1.1244-0.84355-1.6397-1.6511-1.145-0.80758 0.49465-0.40811-1.2069 0.88773-3.7813 1.2958-2.5743 3.0203-5.0875 3.8321-5.5847 1.8904-1.1579 1.9347 2.8626 0.05319 4.8246-0.7826 0.81604-1.7641 2.8893-2.181 4.6073-0.41695 1.718-0.84036 2.2036-0.94089 1.0792zm29.233 0.22232c-1.4475-1.4345 0.76767-5.206 3.0577-5.206 2.8601 0 2.8486 4.1027-0.01454 5.1916-1.2154 0.4622-2.5848 0.46869-3.0432 0.01441zm-35.67-5.5964c0.027538-1.0737 1.0913-3.3165 2.3638-4.9839 3.7565-4.9222 2.5418-6.7079-1.4826-2.1796l-3.6967 4.1595-2.1-3.8888c-1.9004-3.5192-2.2078-3.6177-3.2341-1.0359-0.85716 2.1562-1.149 1.7086-1.1951-1.8325l-0.060986-4.6854 3.8503 4.3365c3.7818 4.2593 3.8859 4.2801 5.8448 1.1713 2.0526-3.2574 5.964-4.3411 5.964-1.6524 0 0.83203 0.99198 1.1355 2.2044 0.67442 1.2124-0.4611 2.747 0.031861 3.4103 1.0953 0.84741 1.3589 0.4064 1.6296-1.4836 0.91085-1.9654-0.74743-3.5618 0.44258-5.9297 4.42-3.4459 5.7881-4.5356 6.642-4.4547 3.4905zm29.409-3.5386c-1.8586-3.8628-3.5202-5.4523-5.0796-4.8593-1.2746 0.48473-2.3174 0.2825-2.3174-0.44939s1.7974-1.6712 3.9942-2.0874c2.1968-0.4162 3.6434-0.40902 3.2146 0.01593-0.4288 0.42496 0.29887 2.8396 1.617 5.3659 1.3182 2.5263 2.1574 5.3046 1.865 6.174-0.29243 0.86944-1.7747-1.0025-3.2939-4.1598zm16.241 3.929c3.3946-1.0774 3.5036-1.2976 0.78794-1.5911-1.7335-0.18734-3.6836-0.2574-4.3336-0.15568-0.65005 0.10167-1.1819-0.51785-1.1819-1.3768 0-2.0112 2.5529-1.9893 6.4071 0.05494 4.4076 2.3378 3.7419 4.6553-1.2855 4.4747l-4.3336-0.15569zm-32.475-2.29c0.49524-3.3441 2.5337-4.9266 2.5337-1.9669 0 1.3809-0.64689 2.907-1.4375 3.3913-0.79065 0.48427-1.2839-0.15671-1.0962-1.4244zm-22.68-0.83354c0-0.85898 0.66729-1.5618 1.4829-1.5618 0.81557 0 1.9211 0.70281 2.4568 1.5618 0.53566 0.85899-0.13163 1.5618-1.4829 1.5618-1.3512 0-2.4568-0.70281-2.4568-1.5618zm43.387-1.481c-0.63465-1.0177-0.9056-1.9817-0.60213-2.1422 0.30348-0.1605 2.8278-1.8708 5.6095-3.8006 6.0896-4.2246 6.7683-4.3027 6.7371-0.77562-0.018437 2.0943-0.33574 2.2459-1.3573 0.64876-1.0112-1.581-2.2871-0.87636-5.2833 2.9178-2.6622 3.3712-4.3263 4.3989-5.104 3.1518z"/>
</svg>
