<svg width="32" height="32" version="1.1" viewBox="0 0 32 32" xmlns="http://www.w3.org/2000/svg">
<!--	<path id="carree" fill="rgb(144, 35, 41)" class="icone" d="M 32,-5.2949742e-6 20.400764,2.0111533 9.7652425,17.164364 14.835657,22.234787 29.988851,11.599255 Z M 29.658692,2.345627 12.996275,19.003757 11.921262,17.928742 21.915999,3.6861456 Z M 18.560397,22.533352 c 0.736843,0.736835 0.853353,1.81522 0.260248,2.408351 -0.593117,0.593119 -1.671501,0.476586 -2.408345,-0.260249 L 13.217422,21.484619 10.515354,18.782546 7.3185278,15.587666 C 6.5816833,14.850831 6.4651295,13.77243 7.0582798,13.179315 c 0.5931165,-0.59313 1.67151,-0.476598 2.4083438,0.260247 L 9.2299595,11.249208 C 8.5266116,10.545858 7.6607825,10.139066 6.8288346,10.049165 5.9968859,9.9592642 5.1995523,10.186334 4.633389,10.752499 3.5010726,11.88483 3.7236458,13.94454 5.1303309,15.351237 L 16.648793,26.869718 c 1.406684,1.406697 3.4664,1.629272 4.598728,0.496944 1.132316,-1.132331 0.909974,-3.189899 -0.496709,-4.596585 z M 9.3866121,20.475617 c -1.2909178,0.80158 -2.5275245,1.781511 -3.6531503,2.904715 -1.1235916,1.123642 -2.1024401,2.357252 -2.9054023,3.646681 L 4.968413,29.169322 C 6.2593029,28.367783 7.4940302,27.389691 8.6196399,26.26654 9.7432838,25.142882 10.723965,23.907394 11.526966,22.617926 Z m -8.3780257,5.819439 c -0.2878931,-0.03111 -0.56255569,0.0485 -0.75846974,0.244362 -0.39181776,0.391818 -0.31489088,1.103708 0.17186617,1.590467 l 3.44812547,3.448126 c 0.486757,0.486758 1.1986391,0.563685 1.5904568,0.171867 0.3918177,-0.391819 0.3148915,-1.103699 -0.1718655,-1.590457 L 1.8405727,26.711284 C 1.597195,26.467905 1.2964796,26.326166 1.0085864,26.295056 Z"/>-->
<!--	<path id="version1" fill="rgb(144, 35, 41)" class="icone" d="m32 0c-4 0-8 2-12 6l-12 12-1-1c-0.39052-0.39052-0.39052-1.0235 0-1.4141 0.39052-0.39053 1.0235-0.39053 1.4141 0 0.78105-0.78105 0.78105-2.0471 0-2.8281-0.097631-0.0976-0.20156-0.18268-0.3125-0.25586-1.1759-0.89574-2.8555-0.81838-3.9297 0.25586-1.0742 1.0742-1.1516 2.7518-0.25586 3.9277 0.073253 0.11087 0.15823 0.21682 0.25586 0.31445l3.9258 3.9258c-1.098 0.95624-2.1373 1.9798-3.0977 3.0742-0.68331 0.77865-1.3138 1.6013-1.9199 2.4414-0.42079-0.22774-0.84634-0.38336-1.248-0.42773-0.5242-0.0579-1.0059 0.06641-1.3789 0.43945-1.9896 1.9896 3.1042 7.0833 5.0938 5.0938 0.65818-0.65818 0.53517-1.6562 0.011719-2.625 0.84048-0.60628 1.6625-1.2383 2.4414-1.9219 1.0944-0.9604 2.118-1.9996 3.0742-3.0977l3.7031 3.7051c0.09763 0.0976 0.20355 0.18069 0.31445 0.25391 1.1759 0.89574 2.8555 0.82033 3.9297-0.25391 1.0742-1.0742 1.1496-2.7538 0.25391-3.9297-0.07322-0.1109-0.15628-0.21682-0.25391-0.31445-0.78105-0.78105-2.0471-0.78105-2.8281 0 0.39052 0.39052 0.39052 1.0235 0 1.4141-0.39052 0.39053-1.0255 0.39053-1.416 0l-0.77734-0.77734 12-12c4-4 6-8 6-12zm-1.1426 1.1426-19.857 19.857-2.293-2.293 12-12c3.4812-3.4812 6.8475-5.2242 10.15-5.5645z"/>-->
<!--	<path fill="rgb(144, 35, 41)" class="icone" d="M 31.816144,0.18370525 C 27.193912,-0.5686951 22.947882,0.99002694 19.078049,4.85987 L 7.4685516,16.469399 6.1248941,15.125739 C 5.600169,14.601012 5.4811054,13.869565 5.8589019,13.49166 6.2367119,13.113835 6.9681573,13.232899 7.4929763,13.757652 8.2486099,13.002017 8.010466,11.539019 6.961012,10.48961 6.8298353,10.358463 6.693736,10.240599 6.5517735,10.135167 5.0244648,8.8788974 3.0981416,8.6523584 2.0589053,9.6916516 1.0196619,10.730898 1.2457779,12.654908 2.5020435,14.182221 c 0.1055022,0.141896 0.2236273,0.280312 0.3548086,0.411494 l 5.2749302,5.274944 C 7.0428482,20.767119 6.0344082,21.754411 5.1304661,22.838406 4.4873322,23.609659 3.9134979,24.441679 3.3711362,25.298457 2.8420514,24.95614 2.3210321,24.696265 1.8485453,24.569441 1.2319105,24.403931 0.69866095,24.456971 0.33780567,24.81788 -1.5870488,26.74274 5.2572544,33.586966 7.1821274,31.662221 7.8188889,31.025457 7.489017,29.849046 6.7019089,28.631078 7.5590911,28.088579 8.390099,27.512864 9.161579,26.869434 c 1.083989,-0.903947 2.071346,-1.912265 2.969738,-3.001325 l 4.976083,4.978012 c 0.131175,0.131147 0.269199,0.24709 0.411127,0.352556 1.527309,1.256269 3.454,1.485061 4.493234,0.445768 1.039245,-1.039247 0.810442,-2.965944 -0.445767,-4.493247 -0.105472,-0.141922 -0.221372,-0.279946 -0.352554,-0.411128 -1.049464,-1.049467 -2.512458,-1.28761 -3.268033,-0.531965 0.524725,0.524726 0.643787,1.256173 0.265991,1.634079 -0.37781,0.377824 -1.111566,0.258383 -1.636269,-0.26635 L 15.530653,24.531355 27.140138,12.921838 C 31.009971,9.0519939 32.568687,4.8059499 31.816289,0.18370642 Z M 30.710726,1.2891259 11.499909,20.499995 8.4189042,17.418982 20.028402,5.8094517 c 3.367915,-3.3679244 6.930011,-4.7488665 10.68223,-4.5209028 z"/>-->
	<path fill="rgb(144, 35, 41)" class="icone" d="M 29.255859 0.00390625 C 25.61492 0.09675103 22.222364 1.7151275 19.078125 4.859375 L 8.1679688 15.769531 L 5.6777344 13.28125 C 4.9258457 12.485569 4.6087756 11.307062 4.96875 10.392578 C 5.044427 10.20032 5.2422186 10.074459 5.3945312 9.90625 C 5.3108242 10.356475 5.2485213 10.837107 5.4179688 11.166016 C 5.6429479 11.602717 5.9659056 11.901285 6.3984375 12.097656 C 7.0795111 12.406867 7.8525293 12.304139 8.3847656 12.021484 C 8.9170046 11.738833 9.2960239 11.317964 9.5292969 10.777344 C 9.9012979 9.9152198 9.7642499 8.9656848 9.3886719 8.2773438 C 9.2008809 7.9331718 8.9625016 7.6335305 8.6816406 7.3828125 C 8.4007796 7.1321005 8.0782885 6.9303521 7.7207031 6.7832031 C 6.5684331 6.3090421 5.3287033 6.4981854 4.3925781 7.0214844 C 3.4564549 7.5447854 2.7459912 8.3692461 2.3554688 9.3613281 C 1.5303557 11.457456 2.2188292 13.714491 3.6347656 15.212891 L 8.0917969 19.669922 L 8.1308594 19.869141 C 7.0419253 20.767601 6.0348015 21.753896 5.1308594 22.837891 C 4.4877255 23.609144 3.9134555 24.44205 3.3710938 25.298828 C 2.8420089 24.956511 2.320143 24.697136 1.8476562 24.570312 C 1.2310214 24.404802 0.69874591 24.45745 0.33789062 24.818359 C -1.5869638 26.743219 5.2567676 33.586854 7.1816406 31.662109 C 7.8184021 31.025345 7.48828 29.848827 6.7011719 28.630859 C 7.5583541 28.08836 8.3906294 27.512571 9.1621094 26.869141 C 10.246098 25.965194 11.232467 24.956248 12.130859 23.867188 L 12.328125 23.90625 L 16.787109 28.365234 C 18.285508 29.78117 20.542545 30.469644 22.638672 29.644531 C 23.630754 29.254009 24.455216 28.543546 24.978516 27.607422 C 25.501815 26.671296 25.690958 25.431567 25.216797 24.279297 C 25.069648 23.921712 24.8679 23.59922 24.617188 23.318359 C 24.36647 23.037498 24.066827 22.799117 23.722656 22.611328 C 23.034316 22.235749 22.084781 22.098703 21.222656 22.470703 C 20.682036 22.703976 20.261169 23.082996 19.978516 23.615234 C 19.695863 24.147471 19.593135 24.92049 19.902344 25.601562 C 20.098716 26.034094 20.397283 26.357051 20.833984 26.582031 C 21.162894 26.751479 21.643525 26.689171 22.09375 26.605469 C 21.925542 26.757781 21.799683 26.955576 21.607422 27.03125 C 210.692939 27.391226 19.514431 27.074152 18.71875 26.322266 L 16.230469 23.832031 L 27.140625 12.921875 C 31.010458 9.0520309 32.568804 4.8058372 31.816406 0.18359375 C 30.949738 0.042518684 30.096076 -0.017519468 29.255859 0.00390625 z M 29.3125 1.2792969 C 29.775578 1.2567756 30.24191 1.260567 30.710938 1.2890625 L 12.199219 19.800781 L 9.1171875 16.720703 L 20.029297 5.8085938 C 22.976222 2.8616599 26.070953 1.4369458 29.3125 1.2792969 z "/>
</svg>
