<svg width="200" version="1.1" viewBox="0 0 293 132" xmlns="http://www.w3.org/2000/svg">
	<path fill-opacity=".4" d="m37.315 130.94c-11.01-1.3576-26.994-6.9988-32.78-11.569-3.1467-2.4857-3.4269-3.2139-1.9261-5.0053 1.4686-1.7531 1.3987-2.4878-0.42676-4.4862-1.2006-1.3144-2.183-2.7402-2.183-3.1685 0-0.42831 4.8302-3.6044 10.734-7.058 11.501-6.728 21.555-16.623 26.751-26.327l3.1393-5.8626-2.987-2.0727c-1.6428-1.14-2.987-3.1352-2.987-4.4338 0-1.2986-1.1994-3.4365-2.6654-4.7508-1.8771-1.683-2.6654-4.0665-2.6654-8.0592 0-4.8654 0.61434-6.1195 4.3313-8.8422 2.3822-1.745 5.4268-3.5565 6.7658-4.0256 1.8776-0.65774 2.3381-1.9621 2.0129-5.7011-0.25195-2.8972 0.21304-5.0578 1.1555-5.369 0.86743-0.28645 1.2468-1.3736 0.84306-2.416-0.49468-1.2771 0.18163-1.8952 2.0739-1.8952 1.9195 0 2.808-0.8355 2.808-2.6406 0-1.4523-0.64255-2.6406-1.4279-2.6406-2.4111 0-5.2356 3.6145-5.2356 6.7 0 2.8696-0.06487 2.8583-3.2681-0.56584-1.7975-1.9214-4.4608-3.4935-5.9185-3.4935-1.4577 0-3.0531-0.64547-3.5452-1.4344-1.0827-1.7355 6.8093-10.091 10.651-11.277 1.5107-0.46634 3.1751-1.5105 3.6986-2.3203 0.57268-0.88583 5.0856-1.4473 11.328-1.4094 8.879 0.053868 11.173 0.56722 15.897 3.5578 3.0364 1.9222 6.7846 5.2533 8.3294 7.4025 2.9745 4.1385 3.6983 8.1211 1.4759 8.1211-0.73299 0-1.3327 1.058-1.3327 2.3511 0 1.3842-1.5962 2.948-3.8812 3.8025-2.1347 0.79825-4.8591 3.3247-6.0542 5.6144l-2.173 4.163 5.0444 2.0881c2.7744 1.1484 6.3058 2.2253 7.8475 2.3929s3.4283 0.68765 4.1925 1.1556c0.76418 0.46789 6.4042 0.91917 12.533 1.0028 6.1291 0.08367 11.744 0.53406 12.477 1.0009 0.73299 0.46681 13.927 2.1126 29.319 3.6573 22.864 2.2945 28.485 2.5034 30.71 1.1413 2.208-1.3519 3.1813-1.3355 5.1444 0.08664 3.5712 2.587 13.638 4.4118 29.082 5.2717 7.5309 0.41929 19.69 1.5513 27.02 2.5155 14.347 1.8874 19.061 1.9587 21.625 0.32736 0.89875-0.57195 4.6296-1.3914 8.2908-1.821 6.2344-0.7315 6.8893-0.51839 10.324 3.3592 2.0169 2.2772 4.7892 4.1403 6.1606 4.1403 1.3726 0 2.8067 1.187 3.1904 2.6406 0.43165 1.6353 1.8178 2.6406 3.641 2.6406 1.6192 0 4.144 1.3368 5.6107 2.9707 2.2545 2.5115 2.6291 4.6263 2.4234 13.681-0.26856 11.823-0.91109 13.715-4.6573 13.715-1.3969 0-3.1496 1.1287-3.8948 2.5082-1.8303 3.3881-12.183 6.8528-15.305 5.122-1.5918-0.88256-2.8229-0.83264-3.8196 0.15486-0.80893 0.80141-5.249 1.4571-9.8668 1.4571-4.6178 0-8.396 0.52667-8.396 1.1704 0 0.64371-2.8169 1.5889-6.2597 2.1004-5.1997 0.77247-6.5594 0.52397-8.0293-1.4675-1.4188-1.9222-2.2486-2.1011-4.1862-0.90229-1.4492 0.8966-8.7983 1.4952-18.357 1.4952-8.7673 0-18.474 0.67575-21.57 1.5016-3.096 0.82589-6.2149 1.1429-6.931 0.70447-0.7226-0.44242-1.302 0.76258-1.302 2.7079 0 8.1603-7.8424 15.135-17.018 15.135-8.913 0-16.3-8.0125-16.3-17.681 0-4.7262 1.8903-7.4064 3.1335-4.4427 0.38264 0.91224 0.5838 0.25884 0.44701-1.452-0.37898-4.7398 5.5681-8.5528 13.162-8.4391 3.4155 0.0511 6.8629 0.73983 7.6609 1.5304 1.8496 1.8324 7.1567 1.8658 8.2882 0.05209 0.4753-0.76189 4.2589-1.323 8.408-1.247 4.1491 0.07605 9.6542-0.39532 12.233-1.0475 2.5793-0.65217 5.8777-0.95345 7.3299-0.66952 2.7109 0.53006 13.349 1.1792 31.757 1.9378 8.8757 0.36577 10.648 0.0812 11.708-1.8795 1.4221-2.6313 10.333-3.2524 12.721-0.88666 1.9217 1.9038 14.426-4.3317 16.542-8.2491 1.2842-2.3773 1.1348-3.1682-0.87323-4.6228-1.3324-0.96519-2.9076-1.7549-3.5005-1.7549-0.5929 0-1.078-0.8912-1.078-1.9805 0-2.7782-3.3157-2.4681-5.5014 0.51463-2.5925 3.5377-13.231 4.7696-14.06 1.6281-0.74345-2.8165-13.521-6.7695-21.818-6.7497-3.2622 0.0079-15.944-0.9943-28.182-2.2268-21.592-2.1747-22.389-2.1672-26.92 0.25042-4.4156 2.3558-4.8071 2.3683-7.1934 0.22884-2.5387-2.2761-22.087-5.0126-47.877-6.7021l-10.952-0.71748 0.74582 3.6944c0.59751 2.9598-0.17096 4.6574-3.8646 8.5374-4.5632 4.7934-9.9576 6.273-13.874 3.8057-2.0993-1.3224-4.643-8.0909-3.6431-9.6937 0.43484-0.69704 0.06587-2.1325-0.81999-3.19-2.0801-2.4831-15.836-2.5969-19.202-0.15891-3.6234 2.6248-1.8305 14.833 3.1859 21.694 4.9909 6.8257 16.2 14.908 19.739 14.233 1.5134-0.28875 3.8546 0.303 5.2027 1.315 1.348 1.012 3.3506 1.8778 4.4501 1.924 1.0995 0.0462 3.0668 0.88649 4.3719 1.8674 2.1751 1.6347 1.7863 2.1664-4.6645 6.3791-3.8705 2.5276-11.835 6.9983-17.699 9.9348-10.207 5.1113-11.316 5.3665-25.988 5.9822-8.4293 0.35369-18.625 0.23637-22.656-0.26069zm122.61-6.7388c0-0.72616-1.2348-1.3203-2.7441-1.3203-1.5092 0-2.3734 0.59414-1.9204 1.3203 0.453 0.72616 1.6878 1.3203 2.7441 1.3203s1.9204-0.59414 1.9204-1.3203zm-121.28-3.9609c-0.78457-1.4523-2.305-2.6406-3.3786-2.6406-1.0737 0-1.9522-0.59413-1.9522-1.3203 0-2.701 4.7732-1.0786 7.9337 2.6965 3.6849 4.4015 9.5623 5.2447 12.977 1.8617 1.1344-1.1238 2.4235-1.6856 2.8648-1.2485 0.44125 0.43715-0.07996 1.3475-1.1582 2.0231-1.5439 0.96729-1.3141 1.2326 1.0811 1.2485 1.9418 0.013 3.4397-1.0461 4.1427-2.9288l1.1012-2.949 0.96703 3.0185c0.6707 2.0936 1.4432 2.6322 2.5208 1.7578 0.85459-0.6934 4.2525-2.0202 7.551-2.9484 7.0305-1.9784 6.1909-1.706 11.661-3.7846 2.4485-0.93037 4.3402-2.5941 4.3517-3.8272 0.01559-1.665 0.28211-1.7726 1.1259-0.45443 0.72452 1.1318 2.3438 1.4191 4.6983 0.83362 3.4609-0.86056 3.3425-1.0082-3.2279-4.024l-6.8207-3.1307-10.225 3.2442c-5.624 1.7843-13.224 3.3863-16.889 3.56-3.6649 0.17369-7.4132 0.85996-8.3294 1.525-0.91624 0.66508-1.6706 0.69088-1.6763 0.0573-6e-3 -0.63354-3.0966-1.2647-6.8686-1.4027-3.772-0.13792-7.2157-0.7891-7.6526-1.4471-0.43697-0.65799-2.4437-1.5962-4.4594-2.0849-2.0157-0.48873-3.6649-1.4714-3.6649-2.1838s-0.65706-1.2951-1.4601-1.2951c-0.80308 0-3.2342-1.2515-5.4024-2.781-3.4295-2.4193-4.2363-2.5407-6.2029-0.93328-1.2433 1.0163-3.9098 2.6652-5.9256 3.6643-2.0157 0.9991-3.6575 2.1617-3.6484 2.5837 0.02199 1.0237 8.9711 6.8793 13.977 9.1454 2.199 0.99546 5.3289 2.4303 6.9553 3.1884 1.6265 0.75818 5.2248 1.8138 7.9962 2.3458 8.4172 1.6158 8.6286 1.5746 7.038-1.3696zm112.55-4.561c-1.152-2.7316-2.3851-4.6788-2.74-4.3271-0.35498 0.35167 0.38736 2.785 1.6496 5.4073 2.9788 6.1884 3.809 5.3659 1.0904-1.0802zm18.539 3.1449c3.8405-2.9928 4.5487-5.1854 1.675-5.1854-1.0101 0-2.6951-1.2811-3.7444-2.8468-3.3746-5.0351-13.077-0.48564-13.077 6.1318 0 1.703 0.74965 3.3961 1.6659 3.7624 3.9051 1.5611 10.204 0.69097 13.48-1.862zm5.7179-1.894c0.84704-1.8093 1.1144-3.5502 0.59416-3.8687-0.52024-0.31855-1.611 1.1664-2.4238 3.2999-1.7954 4.7124-0.32432 5.1698 1.8297 0.56886zm2.814-9.7876c0.92876-0.49261-0.71856-0.86634-3.6607-0.83052-5.2124 0.0635-6.2988 0.6732-4.4547 2.5002 0.89147 0.88319 4.8299 0.0729 8.1154-1.6697zm-15.27-2.7377c1.326-5e-3 2.0402-0.60228 1.5872-1.3284-1.3744-2.2032-4.3183-1.495-8.2551 1.986l-3.7392 3.3063 3.9981-1.9778c2.199-1.0878 5.083-1.9815 6.409-1.986zm42.901 1.3122c0.45929-0.73623-0.53763-1.3114-2.2536-1.3001-2.4757 0.0162-2.6864 0.27041-1.0782 1.3001 2.4798 1.5877 2.3413 1.5877 3.3318 0zm34.317 0.4459c-0.91624-0.36627-2.4155-0.36627-3.3318 0-0.91624 0.36627-0.1666 0.66594 1.6659 0.66594s2.5821-0.29967 1.6659-0.66594zm-52.877-4.4068c2.5117 0 4.5667-0.55677 4.5667-1.2373 0-1.3931-9.3647-0.30568-11.145 1.2942-0.63246 0.56832-0.64653 1.8277-0.0313 2.7987 0.87451 1.3801 1.2196 1.2611 1.5808-0.54511 0.33248-1.6619 1.7442-2.3105 5.029-2.3105zm35.552 3.0865c-0.91623-0.36626-2.4155-0.36626-3.3318 0-0.91624 0.36628-0.16659 0.66595 1.6659 0.66595 1.8325 0 2.5821-0.29967 1.6659-0.66595zm-172.83-2.0771c0.45937-0.45509 1.622-0.52833 2.5837-0.16274 0.96166 0.3656 3.5856-0.27649 5.8311-1.4268 3.5697-1.8288 3.9855-1.8408 3.3095-0.0956-0.85266 2.2013-0.41008 2.3902 2.7688 1.1817 1.4486-0.55071 1.727-1.3098 0.85993-2.3448-0.84372-1.0072-0.54253-3.0434 0.88082-5.955 1.8712-3.8277 1.9048-4.6244 0.24858-5.907-1.0529-0.81543-1.9144-2.6709-1.9144-4.1232 0-1.467-0.88847-2.6406-1.9991-2.6406-1.0995 0-2.4663-0.59414-3.0375-1.3203-0.57112-0.72616-0.87098 2.8386-0.66634 7.9218l0.37204 9.2421-10.544 0.38945c-13.452 0.4969-14.28 0.17728-12.798-4.9413 0.9129-3.1534 0.75206-4.0301-0.73935-4.0301-1.0483 0-1.906-0.59414-1.906-1.3203 0-0.72617 1.1314-1.3203 2.5142-1.3203 1.7746 0 2.6867-1.1651 3.1009-3.9609 0.32274-2.1785 0.09096-3.9609-0.5151-3.9609-0.60603 0-1.1019 0.6297-1.1019 1.3993s-3.0856 4.6315-6.8568 8.582c-6.1338 6.4252-6.8133 7.8617-3.4716 7.339 0.54974-0.08595 0.99953 0.47782 0.99953 1.2529 0 0.78813 1.1261 1.0552 2.555 0.60591 2.0699-0.65084 2.4199-0.29174 1.8436 1.8915-0.40248 1.5247-0.06517 2.6948 0.7768 2.6948 0.81847 0 1.5064-0.74267 1.5287-1.6504 0.02249-0.91592 0.64504-0.62214 1.3989 0.66015 1.4526 2.4708 5.2241 3.1857 5.2241 0.99022 0-0.72616 0.63511-1.3203 1.4114-1.3203 0.77624 0 1.0724 0.54339 0.65805 1.2075-1.3058 2.0932 4.6889 3.0995 6.6849 1.1222zm123.18 0.45217c0-0.64847-0.9844-1.5533-2.1876-2.0107-1.8291-0.69536-1.9116-0.50216-0.50318 1.179 1.9193 2.291 2.6907 2.5295 2.6907 0.83163zm25.931-1.5528c-0.42171-0.67599 1.0678-1.2291 3.31-1.2291s4.0768-0.49123 4.0768-1.0916c0-1.607-8.2926-0.12362-10.272 1.8375-1.3409 1.3284-1.3502 1.8063-0.0444 2.2706 2.1974 0.78131 3.8886-0.25045 2.9298-1.7874zm30.043 0.61013c0-0.28539-0.89957-0.5189-1.999-0.5189s-1.999 0.57549-1.999 1.2789c0 0.70337 0.89957 0.93688 1.999 0.5189 1.0995-0.41799 1.999-0.99348 1.999-1.2789zm19.324 0.80141c0.45302-0.72617-0.076-1.3203-1.1754-1.3203-1.0995 0-2.3697 0.59414-2.8227 1.3203-0.45301 0.72616 0.076 1.3203 1.1754 1.3203 1.0995 0 2.3697-0.59414 2.8227-1.3203zm11.328 0.81413c0-1.1721-5.3917-1.7847-6.0745-0.69018-0.41049 0.65799 0.78834 1.1964 2.6641 1.1964 1.8757 0 3.4104-0.22778 3.4104-0.50617zm-186.23-3.7848c0.3116-0.90771-0.02989-2.6066-0.75887-3.7753-1.1948-1.9156-1.5612-1.9249-3.718-0.09536-2.2432 1.9028-2.2513 2.1359-0.1296 3.7333 2.8779 2.1667 3.8994 2.1972 4.6065 0.13737zm150.92 0.33007c0.469-0.75178-0.67873-1.3203-2.6654-1.3203-1.9867 0-3.1344 0.56852-2.6654 1.3203 0.453 0.72617 1.6524 1.3203 2.6654 1.3203 1.013 0 2.2124-0.59413 2.6654-1.3203zm13.993 0c0-0.72616-0.59972-1.3203-1.3327-1.3203-0.73299 0-1.3327 0.59414-1.3327 1.3203 0 0.72617 0.59971 1.3203 1.3327 1.3203 0.73298 0 1.3327-0.59413 1.3327-1.3203zm32.789-3.3118c1.9706-1.8093 2.9691-3.2897 2.2188-3.2897-0.75028 0-2.1107 0.8912-3.0232 1.9805-0.91249 1.0892-2.3706 1.9805-3.2402 1.9805-0.86963 0-2.7453 0.93168-4.1681 2.0704-2.4796 1.9845-2.4372 2.0388 1.0214 1.3092 1.9846-0.41865 5.2206-2.2415 7.1913-4.0508zm-108.42 2.4374c-0.91623-0.36626-2.4155-0.36626-3.3318 0-0.91624 0.36626-0.16659 0.66594 1.6659 0.66594 1.8325 0 2.5821-0.29967 1.6659-0.66594zm117.61-4.4068c0.45301-0.72617 0.18855-1.3203-0.58769-1.3203-0.77625 0-1.4114 0.59414-1.4114 1.3203 0 0.72616 0.26447 1.3203 0.58771 1.3203 0.32322 0 0.95834-0.59414 1.4114-1.3203zm-223.49-6.2545c0.22493-3.0769-0.21938-6.6417-0.98735-7.9218-1.0293-1.7156-1.1791-0.35716-0.57009 5.1679l0.82624 7.4954-8.3403 1.513 4.3313-0.33008c4.0789-0.31084 4.3551-0.65607 4.7403-5.9244zm-16.151 2.6237c0.08556-1.2708 0.43842-4.39 0.78409-6.9316 0.34567-2.5416 0.35337-3.4328 0.01709-1.9805-0.33624 1.4523-1.1603 3.205-1.8312 3.8949-1.49 1.5321-1.6266 7.3277-0.17274 7.3277 0.57592 0 1.1172-1.0397 1.2027-2.3105zm245.63 0.99023c0-0.72616-0.26446-1.3203-0.58769-1.3203-0.32324 0-0.95835 0.59414-1.4114 1.3203-0.453 0.72616-0.18855 1.3203 0.58771 1.3203 0.77624 0 1.4114-0.59414 1.4114-1.3203zm-240.45-4.6861c-0.31038-1.6957 0.09725-3.3016 0.90592-3.5687 0.90533-0.29897 1.064-1.4697 0.41302-3.0469-0.92414-2.239-1.2771-1.9797-2.8038 2.0596-2.4281 6.4243-2.4108 9.3347 0.04988 8.3992 1.2472-0.47415 1.787-1.9198 1.4349-3.8432zm7.3656-0.98639c-1.0726-1.0626-1.4708-0.84944-1.4708 0.7874 0 1.2345-0.74964 2.2536-1.6659 2.2647-1.1167 0.01357-1.0132 0.42904 0.31403 1.2604 2.5458 1.5947 5.0002-2.1553 2.8227-4.3125zm237.08 0.89562c0-1.0892-0.59971-1.6133-1.3327-1.1645-0.73299 0.4488-1.3327 1.7072-1.3327 2.7964 0 1.0892 0.59971 1.6133 1.3327 1.1645 0.73298-0.44879 1.3327-1.7072 1.3327-2.7964zm-5.4245-2.2326c-0.0904-2.789-0.13476-2.798-1.239-0.25215-1.5763 3.6341-1.5763 4.926 0 3.9609 0.73298-0.4488 1.2906-2.1177 1.239-3.7088zm4.0918-2.3884c0-0.72616-0.59972-0.9531-1.3327-0.50431-0.733 0.4488-1.3327 1.4101-1.3327 2.1363 0 0.72616 0.59971 0.9531 1.3327 0.50431 0.73298-0.4488 1.3327-1.4101 1.3327-2.1363zm-236.23-1.4779c0.16937-2.2275-0.06707-2.4865-0.96116-1.0533-0.65218 1.0454-0.8901 2.3747-0.52871 2.954 1.0054 1.6116 1.2462 1.3043 1.4899-1.9008zm49.104-11.233c-1.4558-1.4423-2.4541 0.85141-1.4089 3.2371 0.99109 2.2622 1.0629 2.2601 1.6152-0.04644 0.31785-1.3276 0.22504-2.7635-0.20625-3.1907zm188.46 3.1686c0-0.25054-1.2867-1.5873-2.8593-2.9707-2.844-2.5017-2.8509-2.4992-1.2858 0.45551 1.2991 2.4526 4.1451 4.1795 4.1451 2.5152zm-9.0667-4.2642c-1.648-1.1435-3.7305-1.8054-4.6278-1.4709-0.93193 0.34742-0.20287 1.2031 1.7002 1.9955 4.9663 2.0678 6.3152 1.8261 2.9276-0.52454zm-12.257-0.36256c0-0.5265-1.1994-1.0468-2.6654-1.1562-1.466-0.1094-2.6654 0.23187-2.6654 0.75837s1.1994 1.0468 2.6654 1.1562c1.466 0.1094 2.6654-0.23186 2.6654-0.75837zm5.0561-1.1891c-0.29786-1.7574 0.3992-2.2224 2.9118-1.9425 2.3731 0.26438 2.8966-0.03505 1.8586-1.0633-0.80063-0.79319-2.9857-1.0482-4.901-0.57192-3.0115 0.7488-3.2523 1.183-1.8712 3.3738 1.9694 3.1243 2.506 3.1789 2.0018 0.20391zm-176.31-2.0516c0.73299-0.60064-0.09176-0.69244-1.8328-0.20399-2.1531 0.60406-2.8738 0.42059-2.2536-0.57366 0.50154-0.80396 0.27679-1.4618-0.49946-1.4618-0.77624 0-1.4114 0.47531-1.4114 1.0562 0 1.7147 3.0878 4.2645 3.9093 3.2281 0.41536-0.52408 1.3549-1.4443 2.0879-2.0449zm75.298-0.84118c0-0.6833-0.59972-1.6096-1.3327-2.0584-0.73298-0.44879-1.3327 0.11027-1.3327 1.2424 0 1.1321 0.59972 2.0584 1.3327 2.0584 0.73299 0 1.3327-0.55906 1.3327-1.2424zm69.026-3.5685c-0.38837-1.8152-0.72349-1.4832-1.2922 1.2802-0.49584 2.4093-0.3101 3.2774 0.52436 2.4508 0.7107-0.70409 1.0562-2.383 0.76783-3.7309zm24 1.5771c2.4658-0.76266 2.7611-1.3164 1.5027-2.8186-1.7085-2.0395-5.868-2.6274-4.6378-0.65555 0.4165 0.66762-0.11927 2.0822-1.1906 3.1436-1.0713 1.0613-1.5676 2.3064-1.1028 2.7669 0.46478 0.46044 1.1859 0.31418 1.6024-0.32502 0.41656-0.63921 2.1383-1.5893 3.8261-2.1113zm-33.36-1.3872c0.15166-1.8154-0.31725-3.3007-1.042-3.3007-1.4775 0-1.8046 4.3588-0.4293 5.7213 1.2122 1.2009 1.1619 1.2837 1.4713-2.4205zm5.6364-0.07793c0-1.9162-0.57685-3.0255-1.3327-2.5627-0.73299 0.4488-1.3327 1.9692-1.3327 3.3787 0 1.4095 0.59971 2.5627 1.3327 2.5627 0.73298 0 1.3327-1.5204 1.3327-3.3787zm8.3863 0.75292c-0.38121-1.4442-1.2246-2.3003-1.8743-1.9025-1.8828 1.1528-1.3662 4.5283 0.6931 4.5283 1.2146 0 1.6304-0.92414 1.1812-2.6258zm8.8452-1.0051c-0.0819-3.1697-0.22984-3.2955-1.1659-0.99023-0.58975 1.4523-0.81208 3.0862-0.49404 3.6308 1.1289 1.9332 1.7524 0.94138 1.66-2.6406zm-50.998 0.41537c-0.40374-1.0423-0.0601-2.1177 0.76352-2.3897 0.92329-0.3049 1.0989-1.4768 0.45801-3.056-0.97372-2.3991-1.1187-2.3577-2.287 0.65313-1.2256 3.1585-0.72493 6.6877 0.94871 6.6877 0.46793 0 0.52044-0.85282 0.11675-1.8952zm13.412-2.1002c0.11233-1.4773-0.63183-2.6062-1.7181-2.6062-1.149 0-1.9162 1.305-1.9162 3.2593 0 3.9165 3.3324 3.3177 3.6343-0.65315zm-173.74 0.69459c-0.42191-1.0892-0.06787-1.9805 0.78683-1.9805 0.85466 0 1.1833-0.59414 0.73028-1.3203-0.45301-0.72616-1.388-1.3203-2.0777-1.3203-1.4293 0-1.7098 4.3896-0.36558 5.7213 1.4253 1.412 1.7499 1.0264 0.92617-1.1002zm7.8474 1.106c-0.91623-0.36626-2.4155-0.36626-3.3318 0-0.91624 0.36627-0.16659 0.66595 1.6659 0.66595 1.8325 0 2.5821-0.29967 1.6659-0.66595zm16.992-0.31481c0.3665-0.09348-0.83294-0.94051-2.6654-1.8822-3.1378-1.6125-5.2473-0.81721-5.3104 2.0021-0.01639 0.7345 4.9177 0.66033 7.9758-0.1199zm127.86-5.8946c-1.2673-1.1564-1.445-0.94654-0.77919 0.9204 0.47437 1.3302 0.94416 3.4097 1.044 4.6211 0.0999 1.2114 0.45046 0.79721 0.7792-0.92041 0.32872-1.7176-0.14107-3.7971-1.044-4.621zm3.6591 4.1957c-0.42543-1.0533-0.74123-0.74039-0.80517 0.79768-0.0579 1.3918 0.25711 2.1716 0.69996 1.7329 0.44285-0.43872 0.49018-1.5775 0.10515-2.5306zm8.3248-0.74267c-0.0819-3.1697-0.22984-3.2955-1.1659-0.99022-0.58975 1.4523-0.81208 3.0862-0.49404 3.6308 1.1289 1.9332 1.7524 0.94138 1.66-2.6406zm3.6735 1.0242c-0.56159-3.6456-2.2472-4.9916-2.2472-1.7944 0 2.3641 1.0241 4.401 2.2128 4.401 0.23973 0 0.25519-1.173 0.0344-2.6066zm9.7472-0.03406c0-1.4523-0.59972-2.6406-1.3327-2.6406s-1.3327 1.1883-1.3327 2.6406 0.59972 2.6406 1.3327 2.6406 1.3327-1.1883 1.3327-2.6406zm2.8899-1.626c-0.98896-0.97975-1.1624-0.46427-0.58271 1.7319 0.47125 1.7853 1.0754 2.3838 1.4081 1.395 0.32049-0.95252-0.0509-2.3596-0.82536-3.1268zm-119.26 0.05813c-0.42542-1.0533-0.74122-0.7404-0.80517 0.79768-0.0579 1.3918 0.25712 2.1716 0.69996 1.7329 0.44285-0.43872 0.4902-1.5775 0.10522-2.5306zm83.05-0.4126c0-1.8154-0.59972-3.3007-1.3327-3.3007-1.4889 0-1.8267 4.3517-0.44423 5.7213 1.4691 1.4554 1.7769 1.0361 1.7769-2.4205zm2.2562-1.6252c-0.3379-1.2846-0.63658-0.55325-0.66375 1.6252-0.0272 2.1785 0.2493 3.2295 0.61437 2.3357 0.36505-0.89389 0.38727-2.6763 0.0495-3.9609zm-131.53 0.88717c0-1.4952-0.59972-2.3513-1.3327-1.9025-0.73299 0.4488-1.3327 1.6721-1.3327 2.7185s0.59972 1.9025 1.3327 1.9025c0.73298 0 1.3327-1.2233 1.3327-2.7185zm22.656 1.4761c0-0.6833-0.59972-1.6096-1.3327-2.0584-0.73299-0.4488-1.3327 0.11027-1.3327 1.2424 0 1.1321 0.59972 2.0584 1.3327 2.0584 0.73298 0 1.3327-0.55907 1.3327-1.2424zm63.729-0.61744c5.2287 0.36527 5.5911 0.25583 2.2398-0.67644-2.8435-0.79101-3.2283-1.1695-1.3327-1.3104l2.6654-0.1982-2.6654-2.0125c-2.4337-1.8376-1.6227-1.958 9.3289-1.3851 7.178 0.37549 10.924 0.17741 9.3289-0.4933-3.1086-1.3071-19.467-1.6757-22.539-0.50783-1.1552 0.43916-1.6957 1.4472-1.201 2.2401 0.49463 0.79288-0.85818 0.20751-3.0062-1.3008-4.613-3.2392-29.751-6.0344-27.923-3.105 0.55449 0.88884 2.3148 1.2508 4.0202 0.82677 1.8583-0.46207 3.6726 0.0079 4.6822 1.2133 0.9066 1.0822 2.6244 1.9259 3.8174 1.8749 1.6688-0.0714 1.5544-0.35448-0.49635-1.2275-2.3872-1.0163-2.2942-1.1444 0.89052-1.2275 1.9558-0.05109 4.6155 0.31002 5.9106 0.80235 1.8099 0.68807 1.1415 1.256-2.8896 2.455l-5.2442 1.5598 7.0266 1.0198c3.8646 0.56089 7.3807 1.5874 7.8134 2.2811 0.49988 0.8013 1.2518 0.80075 2.0616-2e-3 0.70109-0.69456 4.0818-1.0667 7.5126-0.82707zm-13.336-3.003c0.96203-0.3814 2.1115-0.33449 2.5544 0.10424 0.44284 0.43872-0.3443 0.75077-1.7492 0.69344-1.5525-0.06338-1.8683-0.37621-0.80518-0.79769zm33.456 2.6927c1.3217-1.1199-6.0785-0.30512-7.8852 0.86817-1.4064 0.91337-0.61627 1.0469 2.6654 0.45028 2.5654-0.46638 4.9143-1.0597 5.2198-1.3185zm-130.94-1.5474c-3.2293-3.5352-4.2036-9.9485-1.8103-11.916 1.6108-1.3244 1.9382-1.223 1.7808 0.55139-0.18805 2.1195 3.7571 5.6957 4.9347 4.4733 0.32506-0.3374 0.88762-2.8415 1.2501-5.5646 0.56458-4.2409 0.2891-4.9511-1.9204-4.9511-3.6038 0-9.1219 5.8461-9.1219 9.6642 0 2.9224 4.4847 10.14 6.3004 10.14 0.4269 0-0.20922-1.0787-1.4136-2.3972zm31.762 1.0769c0.45302-0.72616 0.18855-1.3203-0.58769-1.3203-0.77624 0-1.4114 0.59414-1.4114 1.3203 0 0.72617 0.26446 1.3203 0.5877 1.3203s0.95835-0.59414 1.4114-1.3203zm106.23-2.2739c-1.2641-0.45785-1.3355-1.0843-0.26846-2.358 0.974-1.1627 1.0052-2.0087 0.0948-2.5662-1.6461-1.0079-3.4034 5.1134-2.0779 7.2381 0.69964 1.1215 1.3324 1.0983 2.4577-0.09001 1.137-1.2008 1.0856-1.7561-0.20605-2.2239zm3.2705-0.69679c-0.36971-0.9077-0.6722-0.16503-0.6722 1.6504s0.30249 2.5581 0.6722 1.6504c0.3697-0.90771 0.3697-2.393 0-3.3008zm5.1145 2.9707c0.45301-0.72616 0.41344-1.9779-0.088-2.7816-0.89574-1.4358-3.175 0.76444-3.2234 3.1116-0.0299 1.4472 2.3506 1.2099 3.3114-0.33008zm-17.828-2.3738c-2.4754-0.25253-5.0086 0.04397-5.6292 0.65887-0.62068 0.61491 1.4046 0.82152 4.5007 0.45914 5.4907-0.64265 5.5185-0.67016 1.1285-1.118zm-70.464 0.1791c-0.91624-0.36627-1.6659-1.8047-1.6659-3.1965 0-2.0036 0.95493-2.5306 4.5858-2.5306 4.9816 0 7.335-1.8794 3.9601-3.1624-1.1552-0.43918-5.0499-0.7985-8.6549-0.7985-5.6998 0-6.5545 0.34974-6.5545 2.682 0 1.4751 1.0495 3.0642 2.3322 3.5313 1.2827 0.46708 2.8118 1.6367 3.398 2.5992 0.58616 0.96247 1.7856 1.703 2.6654 1.6457 1.1741-0.07655 1.1565-0.2814-0.06627-0.77018zm-9.7949-9.3579c0.07306-0.90771-0.39696-1.6504-1.0445-1.6504-1.4729 0-2.8641 6.7842-1.7556 8.5611 0.75712 1.2136 2.4905-3.0644 2.8001-6.9107zm18.791 6.2714c0-0.72616-0.63511-1.3203-1.4114-1.3203-0.77626 0-1.0407 0.59414-0.58771 1.3203 0.45301 0.72616 1.0881 1.3203 1.4114 1.3203 0.32323 0 0.5877-0.59414 0.5877-1.3203zm3.5841-4.9511c-0.33521-1.2708-0.60948-0.23105-0.60948 2.3105 0 2.5416 0.27427 3.5813 0.60948 2.3105 0.33521-1.2708 0.33521-3.3503 0-4.6211zm-30.429 2.6957c0.92537-1.6382 0.66995-2.7231-0.9333-3.9641-2.0307-1.5719-2.0207-1.6443 0.12486-0.90407 1.2945 0.44662 2.3322 0.16222 2.3322-0.6392 0-1.7762-8.6151-5.4708-12.49-5.3565-2.7843 0.08219-2.7813 0.1054 0.16275 1.2778 3.7118 1.4781 3.9885 3.0887 0.33318 1.9393-2.3186-0.72905-2.6654-0.23726-2.6654 3.7801 0 3.7395 0.57053 4.7271 2.9986 5.1904 6.285 1.1993 8.9055 0.85713 10.137-1.3236zm-29.128-5.0062c0-2.4559-0.59972-4.8324-1.3327-5.2812-0.81497-0.499-1.3327 1.5526-1.3327 5.2812 0 3.7286 0.51772 5.7802 1.3327 5.2812 0.73299-0.4488 1.3327-2.8253 1.3327-5.2812zm14.566-2.3885c0.05447-2.155-0.46465-3.3669-1.239-2.8928-0.73298 0.4488-1.2905 3.306-1.239 6.3493 0.07287 4.3017 0.3486 4.9456 1.239 2.8928 0.62995-1.4523 1.1875-4.3095 1.239-6.3494zm-7.0976 1.9505c0.63512 1.0181 1.3584 0.50068 2.1086-1.5084 1.3271-3.5542 1.4488-3.379-3.0972-4.4574-3.115-0.73888-3.5807-0.39341-4.0883 3.0326-0.49672 3.3528-0.26174 3.7016 1.7687 2.625 1.5772-0.83622 2.6571-0.73565 3.3082 0.30813zm-0.80495-11.445c0-1.0892-0.59972-1.9805-1.3327-1.9805s-1.3327 0.8912-1.3327 1.9805 0.59972 1.9805 1.3327 1.9805 1.3327-0.8912 1.3327-1.9805zm5.0471-1.5821c0.28243-3.3807 0.20126-3.432-1.5902-1.0048-1.0383 1.4067-1.6057 3.0099-1.261 3.5625 1.2791 2.0503 2.5624 0.89911 2.8512-2.5577zm-10.77-6.0097c-0.31766-1.6339-0.57756-0.29707-0.57756 2.9707s0.2599 4.6045 0.57756 2.9707c0.31765-1.6339 0.31765-4.3075 0-5.9414zm17.584 3.3007c1.2929-2.4618 1.2097-2.9707-0.48583-2.9707-1.328 0-2.0459 1.2355-2.0459 3.5208 0 3.8707 0.23717 3.8191 2.5318-0.55013zm0.13363-7.5917c0-1.0892-0.89957-1.9805-1.9991-1.9805-1.0995 0-1.9991-0.82764-1.9991-1.8392 0-3.3074-8.5946-4.8968-9.6879-1.7916-1.1681 3.3175 0.73031 4.9511 5.7537 4.9511 2.8103 0 5.4802 0.59414 5.9332 1.3203 1.1832 1.8967 1.9991 1.6273 1.9991-0.66014zm-7.9962-3.3008c0-0.72616 0.59972-1.3203 1.3327-1.3203 0.73298 0 1.3327 0.59414 1.3327 1.3203 0 0.72617-0.59972 1.3203-1.3327 1.3203-0.73299 0-1.3327-0.59414-1.3327-1.3203zm21.443-1.0988c-1.9164-3.5475-5.1278-5.8561-6.7578-4.8581-0.78325 0.47958-1.2593 0.12479-1.0579-0.78843 0.53654-2.4327-6.5598-5.4786-12.84-5.5111-5.307-0.027429-12.782 0.68242-12.782 1.2138 0 2.9775 2.2724 3.7673 10.486 3.6447 5.019-0.07496 9.7544-0.52133 10.523-0.99205 0.88734-0.54331 1.128 0.22965 0.65895 2.1167-0.40636 1.6349-0.26139 2.5377 0.32217 2.0063 0.58355-0.53142 2.0408 0.15297 3.2383 1.5209 1.1975 1.3679 3.6573 2.7615 5.4661 3.0969 1.8088 0.33542 3.4598 0.69076 3.6689 0.78966 0.20904 0.09892-0.20801-0.9088-0.92676-2.2393zm-35.344-7.6984c-0.8514-2.177-1.3363-1.9969-4.7368 1.7593-2.0836 2.3015-4.1398 3.8364-4.5694 3.4108-0.4296-0.4256-0.78109-0.12422-0.78109 0.66973 0 2.769 4.6884 2.5037 7.8501-0.44422 2.2041-2.0551 2.8934-3.7175 2.2371-5.3956z"/>
	<path fill-opacity="1" d="m35.355 130.05c-5.1093-1.0048-10.207-2.2265-11.328-2.7149-1.1211-0.48843-3.2077-1.1102-4.6369-1.3818-3.5096-0.66688-16.59-7.0657-17.533-8.5769-0.41539-0.66587-0.02119-2.087 0.8761-3.1581 1.3119-1.566 1.1619-2.4613-0.76557-4.5713-4.0155-4.3958-1.0929-4.4856 3.615-0.11108 4.7531 4.4164 16.622 10.706 20.203 10.706 1.2097 0 2.1994 0.65855 2.1994 1.4634 0 0.8919 1.2693 1.1478 3.2501 0.6553 1.7875-0.44447 3.6221-0.21181 4.0768 0.51702 1.0289 1.6493 2.1133 1.6458 4.6675-0.0153 1.7769-1.1556 1.7769-1.4445 0-2.6002-1.2606-0.8198-1.401-1.3076-0.38006-1.3203 0.89044-0.0111 2.2806 1.2045 3.0893 2.7014 1.4572 2.6975 3.519 2.8429 18.905 1.3332 0.52674-0.0517 0.57475-1.0826 0.1067-2.291-0.57221-1.4773-0.3402-1.8843 0.70818-1.2424 0.85755 0.52506 1.5592 1.9029 1.5592 3.0618 0 1.8352 0.34406 1.7987 2.6654-0.28255 1.466-1.3143 2.6654-1.7387 2.6654-0.94308 0 0.95208 1.2203 0.81945 3.5694-0.38795 1.9632-1.009 4.0622-1.5328 4.6645-1.1641 0.6023 0.36878 1.0951 0.0413 1.0951-0.72772 0-0.76903 0.62868-1.3982 1.3971-1.3982s3.808-1.154 6.7548-2.5645c2.9467-1.4104 6.3146-2.2007 7.4841-1.7561 1.4018 0.53291 1.8012 0.28715 1.1722-0.72116-0.62342-0.99933-0.23722-1.257 1.1141-0.74327 1.1376 0.43245 2.0683 0.1399 2.0683-0.65012s-1.4747-1.8031-3.2771-2.2512c-1.8024-0.44816-3.9748-1.6478-4.8276-2.6658-1.9853-2.3698-7.6549-2.3642-13.399 0.0133-9.3144 3.8556-37.136 7.3632-37.136 4.682 0-0.78148-0.55828-1.079-1.2406-0.66126-0.68234 0.41778-1.6173 0.15578-2.0777-0.58224-0.4604-0.738-2.4037-1.3418-4.3184-1.3418-1.9147 0-4.4281-0.83091-5.5853-1.8465-3.8965-3.4195-12.258-7.4525-13.851-6.6804-0.86895 0.42118-0.17829-0.31011 1.5348-1.6251 8.8694-6.8081 14.555-12.379 19.768-19.37 6.0361-8.0938 7.1309-11.928 3.7709-13.205-1.0995-0.41798-1.9991-1.5544-1.9991-2.5254 0-0.97097-1.4993-3.7786-3.3318-6.2393-4.6338-6.2223-4.543-13.388 0.21654-17.097 1.9516-1.5208 4.9287-3.1083 6.6158-3.5278 3.586-0.89165 4.9538-4.1734 3.7387-8.9699-0.57465-2.2683-0.32138-3.413 0.7551-3.413 0.89226 0 1.2752-0.88951 0.85266-1.9805-0.55986-1.4454 0.21173-2.0166 2.856-2.1142 8.0289-0.29643 13.107 0.43755 16.066 2.3224 3.5087 2.2345 5.3805 1.4529 3.0844-1.2879-0.83108-0.99207-1.0847-2.2261-0.56371-2.7423 0.52104-0.51618-0.02319-0.56955-1.2095-0.11859-1.1862 0.45097-2.61 0.09348-3.1639-0.79436-0.70413-1.1287-0.44401-1.2781 0.86472-0.49672 1.554 0.92782 1.5817 0.76266 0.16304-0.97269-1.8327-2.2419-9.3377-3.8969-10.346-2.2813-0.33495 0.53692-1.6579 0.737-2.9399 0.44464-3.3428-0.76236-8.8114 4.1774-7.8022 7.0478 0.70948 2.018 0.59237 2.0606-0.91676 0.33317-0.95158-1.0892-2.6023-2.7583-3.6682-3.709-1.6757-1.4946-1.6411-1.6167 0.25591-0.90154 1.3915 0.52457 2.9104-0.18634 4.1529-1.9437 2.6482-3.7456 8.2943-5.1358 16.309-4.0157 9.4861 1.3258 10.35 1.6462 13.369 4.9587 2.6214 2.8759 8.6201 4.1483 8.6201 1.8284 0-0.62823-1.2607-2.7301-2.8016-4.6707-2.2425-2.8244-3.1794-3.2179-4.695-1.9718-1.5166 1.247-1.7366 1.1521-1.1057-0.4769 1.3178-3.4022-2.1818-4.7988-14.054-5.6083-9.6911-0.66079-13.391 0.26961-12.322 3.0985 0.69125 1.8297 0.48984 1.9181-1.2259 0.53821-1.6979-1.3656-2.6751-1.0801-5.649 1.6504-1.9778 1.8159-4.2002 3.3016-4.9387 3.3016s-0.97205 0.59414-0.51903 1.3203c0.453 0.72616-0.23618 1.3203-1.5315 1.3203-4.3625 0 8.3138-11.166 15.639-13.775 8.0634-2.8726 14.333-2.2919 23.365 2.164 8.65 4.2673 16.367 15.572 10.63 15.572-1.2182 0-1.6303 0.9244-1.1773 2.6406 0.52778 1.9995 0.04088 2.6406-2.0054 2.6406-2.8795 0-9.6028 6.9322-9.6028 9.9012 0 1.695 7.7703 5.1404 11.994 5.3184 1.0995 0.04634 4.6978 0.86524 7.9962 1.8198 3.4748 1.0056 8.9324 1.4377 12.976 1.0273 3.8383-0.38956 7.322-0.1579 7.7417 0.51478 0.41964 0.67269 3.4152 1.2231 6.6568 1.2231 3.2416 0 9.953 0.59832 14.914 1.3296 16.927 2.495 38.153 3.6776 40.454 2.254 1.5931-0.98568 3.029-0.76082 5.3278 0.83429 1.7308 1.201 5.2324 2.1836 7.7813 2.1836 3.3951 0 4.239 0.3918 3.1555 1.4652-1.0834 1.0734-1.0786 2.5739 0.0184 5.6113l1.4972 4.1461 0.89017-3.9609 0.89015-3.9609 0.63072 7.9218 1.0173-3.9609 1.0174-3.9609 0.15769 3.6308c0.18855 4.3419 2.7552 4.9103 2.9808 0.66015 0.12754-2.4017 0.35254-2.2121 1.175 0.99023 1.0125 3.9421 1.0181 3.9374 1.175-0.99023 0.1439-4.5186-0.16252-4.9668-3.5073-5.1309-3.506-0.172-3.5236-0.20608-0.40784-0.78554 4.0608-0.75522 6.5467 2.311 5.8683 7.2383-0.42824 3.1102-0.31986 3.2516 0.75779 0.98867 1.0854-2.2791 1.2703-2.3243 1.3512-0.33007 0.12034 2.9687 2.7591 3.0431 2.7591 0.07773 0-1.947 0.25047-1.9047 1.9567 0.33007 1.8542 2.4287 1.9589 2.344 1.999-1.6181 0.0233-2.2995-0.70726-4.4806-1.6235-4.8469-1.028-0.41096-0.80522-0.70585 0.58191-0.77018 1.5898-0.07377 2.37 1.1519 2.6654 4.1867 0.35342 3.6314 1.0092 4.3579 4.2659 4.7263 3.0227 0.34192 3.6785-3e-3 3.0568-1.6081-0.43532-1.1239-0.28615-2.3528 0.33149-2.731 0.61763-0.37817 1.5546 0.64254 2.0821 2.2682 0.81411 2.5089 1.0533 2.6065 1.5819 0.6453 0.71809-2.664 3.0928-3.1388 3.0928-0.61832 0 1.9495 11.153 5.5803 13.232 4.3075 0.76298-0.46717 1.2691-2.2635 1.1247-3.9918-0.21975-2.6306-0.9219-3.0987-4.3109-2.8737-2.2266 0.14778-4.7352 0.69669-5.5746 1.2198-0.84115 0.5242-1.8692 0.06555-2.2904-1.0217-1.1066-2.857-12.842-2.7788-12.842 0.08546 0 1.1321-0.57353 1.7072-1.2745 1.278-0.70097-0.42919-0.90527-1.7336-0.45401-2.8986 0.70612-1.823 2.5488-1.9979 13.219-1.2548 14.895 1.0373 20.687 2.0808 19.763 3.5607-0.37806 0.60604-1.5678 0.7672-2.6438 0.35814-1.193-0.45355-1.9564 0.04199-1.9564 1.27 0 1.1075-0.41213 3.102-0.91587 4.4322-0.73027 1.9284-0.52769 2.1404 0.99953 1.0462 1.0535-0.75479 3.8645-1.2521 6.2467-1.1051 3.7644 0.23229 4.3313-0.14967 4.3313-2.9186 0-1.9517-0.77443-3.1859-1.9991-3.1859-1.0995 0-1.999-0.6292-1.999-1.3982 0-0.76903 0.62598-1.0149 1.3911-0.54649 0.76511 0.46845 2.175 0.20722 3.133-0.58051 0.95807-0.78772 4.4317-1.7975 7.7193-2.2439 5.4209-0.7361 6.4417-0.40776 10.965 3.527 4.5717 3.9767 4.7846 4.4574 2.5508 5.7611-3.6315 2.1194-3.5228 4.5873 0.2361 5.3601 1.8282 0.37585 4.928 1.0178 6.8884 1.4265 3.1862 0.66431 3.3716 0.51293 1.7469-1.4265-1.0945-1.3065-3.0638-1.9336-4.95-1.5764-1.9406 0.36752-2.933 0.03119-2.6082-0.88405 0.28834-0.81251 1.5115-1.3027 2.7182-1.0893 2.5552 0.45183 2.9839-1.8326 0.5281-2.8143-1.2528-0.50083-1.2219-0.69179 0.12474-0.77018 0.98486-0.05733 2.1043 1.084 2.4877 2.5364 0.38336 1.4523 1.4567 2.6406 2.3852 2.6406 3.0958 0 3.2301 5.0196 0.19065 7.1251-2.3669 1.6396-2.4701 1.9903-0.60248 2.0477 1.2395 0.03812 2.6186-0.5158 3.0646-1.2308 0.44608-0.71505 2.2478-1.1823 4.0037-1.0383 2.3146 0.18978 2.8284 0.6966 1.8683 1.8427-0.8334 0.99483-0.8527 1.8697-0.0521 2.3599 1.9764 1.2101 0.19339 5.8907-3.9602 10.396-2.0761 2.2519-3.4399 4.425-3.0307 4.8291 0.40918 0.40412 2.223-0.96767 4.0307-3.0484 4.0723-4.6874 4.8362-4.1045 2.8832 2.1999-1.1626 3.7529-2.212 4.884-4.5313 4.884-1.7905 0-3.3439 1.0162-3.8187 2.498-1.0792 3.3685-4.1919 4.0883-21.367 4.9407-8.0615 0.40013-14.96 1.2121-15.329 1.8044-1.0365 1.6615-10.356 3.0505-12.983 1.9349-2.4794-1.053-30.217-0.90759-40.29 0.21124-3.2798 0.36428-6.7206 1.2849-7.6461 2.0459-0.92549 0.76095-2.5899 1.0386-3.6988 0.61712-1.3892-0.52812-2.016 0.0621-2.016 1.8983 0 3.7801-3.4629 9.9343-6.9524 12.356-1.7451 1.2109-5.7619 2.0606-9.7414 2.0606-5.9105 0-7.3137-0.55379-11.031-4.3538-2.5449-2.6012-4.2255-5.6572-4.1751-7.5917l0.0845-3.2379 1.4564 3.3007c0.80103 1.8154 1.3627 3.7464 1.2482 4.291-0.11448 0.54462 0.45569 0.99022 1.2671 0.99022 0.8114 0 1.1087-0.94639 0.66066-2.1031-0.44804-1.1567-1.1769-3.5332-1.6198-5.2812-0.44283-1.7479-1.3398-3.1781-1.9934-3.1781-2.2808 0-1.1647-5.1593 1.8104-8.3686 4.6586-5.0253 10.593-6.4114 17.34-4.0498 4.4577 1.5605 7.4768 1.7099 14.312 0.70858 4.7644-0.69801 9.862-1.3147 11.328-1.3703 1.466-0.05565 5.2255-0.46665 8.3545-0.91328 3.666-0.52328 6.391-0.2349 7.663 0.81096 1.5614 1.2838 2.3865 1.2838 3.948 0 1.2768-1.0498 3.9834-1.3321 7.663-0.79939 11.758 1.7023 28.947 1.5297 29.655-0.29785 0.48485-1.2517 3.094-1.6204 9.341-1.3203 4.7675 0.22906 8.6694 0.79278 8.6709 1.2527 5e-3 1.4364-5.9703 2.4669-6.4387 1.1105-0.58732-1.701-10.884-1.6692-10.884 0.03367 0 0.72617 2.049 1.3203 4.5534 1.3203 2.5044 0 4.7706 0.6457 5.0362 1.4349 0.85184 2.5317 10.065-0.0185 10.853-3.0042 0.57747-2.1877 1.3996-2.4885 4.7871-1.7514 2.7714 0.60303 4.0899 0.38493 4.0899-0.67652 0-0.86156-0.89957-1.2245-1.999-0.8065-1.1841 0.45015-1.999 0.01436-1.999-1.069 0-1.0059 0.61304-2.0314 1.3623-2.2789 0.74929-0.24744 1.6586-2.0683 2.0206-4.0464 0.48257-2.6364-0.0591-4.0403-2.0287-5.2589-1.4778-0.91433-2.687-2.4107-2.687-3.3253 0-2.216-4.9137-2.1347-6.2641 0.1037-0.58616 0.97161-3.6828 2.4109-6.8815 3.1985-5.137 1.2649-5.8868 1.1626-6.425-0.87623-0.87702-3.3225-14.806-6.4179-36.403-8.0898-40.249-3.1158-40.551-3.1215-42.499-0.79562-2.2343 2.6671-4.9506 2.7809-5.9316 0.24837-0.4064-1.0492-2.7195-2.2043-5.1402-2.5669-10.891-1.6315-43.659-4.8053-49.427-4.7874-6.0282 0.01872-6.2966 0.16894-4.9049 2.7453 1.2147 2.2485 0.86349 3.5164-2.0063 7.2439-4.3914 5.7038-7.7349 7.485-12.041 6.4144-4.0017-0.99503-5.9894-4.159-5.9894-9.5339 0-5.3704-2.4123-6.8637-10.086-6.244-11.996 0.96882-12.57 1.4031-12.57 9.5158 0 3.9453 0.84167 8.7857 1.8704 10.756 1.8731 3.5885 15.676 17.278 17.707 17.561 0.59362 0.0828 2.8195 0.35121 4.9465 0.59646s4.4958 1.0687 5.2642 1.8299c0.76836 0.76121 2.3619 1.384 3.5412 1.384 1.1793 0 3.3083 0.85447 4.7311 1.8988 2.5564 1.8764 2.5555 1.9237-0.0785 4.006-1.466 1.159-3.8648 2.691-5.3308 3.4045-1.466 0.71349-5.3085 2.7726-8.539 4.5759-3.2305 1.8033-6.5859 3.2787-7.4565 3.2787s-2.5849 1.0969-3.8096 2.4376c-1.5294 1.6742-4.4112 2.5354-9.2023 2.75-10.112 0.45288-12.806 0.80865-13.834 1.8272-1.4426 1.4291-13.584 0.83222-23.754-1.1679zm124.57-5.6928c0-0.64147-1.1994-1.477-2.6654-1.8568-2.6197-0.67868-3.5241 0.41204-1.7769 2.143 1.2929 1.2809 4.4423 1.078 4.4423-0.2861zm8.895-2.0104c-0.39547-1.021 0.46574-2.9186 1.9138-4.2169 2.3698-2.1247 2.5464-2.1371 1.7666-0.12406-0.49965 1.2899-0.22792 2.2365 0.64197 2.2365 1.709 0 4.5962-6.5577 3.4062-7.7366-0.42686-0.42288-1.334 0.10513-2.0159 1.1733-0.83963 1.3153-1.2464 1.4095-1.2602 0.29184-0.0112-0.90771-1.2198-1.6504-2.6858-1.6504-1.4808 0-2.6654-0.8802-2.6654-1.9804 0-2.9649-7.4693-2.5024-10.662 0.66015-3.188 3.1583-3.5011 8.6419-0.55735 9.761 1.1594 0.44078 4.158 0.80141 6.6635 0.80141 2.5055 0 4.5554 0.59414 4.5554 1.3203 0 0.72616 0.36402 1.3203 0.80894 1.3203 0.44491 0 0.48536-0.83539 0.0899-1.8564zm-16.992-15.668c1.5762-2.0379 1.5274-2.2331-0.37712-1.5091-1.2032 0.4574-2.1875 1.7583-2.1875 2.8909 0 1.1326 0.1697 1.8117 0.37711 1.5091 0.20741-0.30256 1.1918-1.6035 2.1876-2.8909zm30.708 1.5142c3.6277 0.16476 4.2716-0.13506 2.9986-1.3962-2.3248-2.3032-2.0173-3.3079 1.2732-4.1604 3.137-0.81272 13.098 1.776 13.098 3.4039 0 0.54936 1.4993 0.99884 3.3318 0.99884 1.8325 0 3.3318-0.59413 3.3318-1.3203 0-0.72616-1.4993-1.3203-3.3318-1.3203-2.0731 0-3.3318-0.74818-3.3318-1.9805 0-1.3203 1.3327-1.9804 3.9981-1.9804 2.199 0 3.9981-0.62106 3.9981-1.3801 0-1.6367-9.7563-0.16997-10.439 1.5694-0.5665 1.4423-5.1864 1.4825-5.775 0.0503-0.24432-0.59442-2.993-0.82909-6.1082-0.52147-4.3411 0.42866-5.664 1.1106-5.664 2.92 0 2.7402-1.8729 3.6494-6.9967 3.3968-2.3492-0.11581-3.6649 0.48672-3.6649 1.6783 0 1.425 1.0112 1.6224 4.3313 0.8457 2.3822-0.55733 6.4102-0.9189 8.951-0.80352zm-24.532-1.772c1.4228-1.0661 3.6364-1.9574 4.9192-1.9804 1.2827-0.0231 2.3322-0.63612 2.3322-1.3623 0-1.8496-5.796-1.6516-7.7297 0.26405-1.2438 1.2323-1.5992 1.2323-1.5992 0 0-0.8714-0.52475-1.5844-1.1661-1.5844-0.64137 0-1.1661 1.4853-1.1661 3.3008 0 3.8055 0.81373 4.0569 4.4097 1.3623zm33.239 0.61817c0.45301-0.72617 0.18855-1.3203-0.5877-1.3203-0.77624 0-1.4114 0.59414-1.4114 1.3203 0 0.72616 0.26445 1.3203 0.58769 1.3203s0.95834-0.59414 1.4114-1.3203zm-149.6-0.87441c-3.7251-1.4891-1.1658-2.44 7.2169-2.6815 5.5934-0.16114 9.265-0.89102 9.9625-1.9804 0.84452-1.3192 1.1093-1.3368 1.1249-0.0749 0.0112 0.9077 1.5469 1.6504 3.4126 1.6504 3.1357 0 3.3279-0.33926 2.5424-4.4873-0.63049-3.3295-0.31381-4.7844 1.2274-5.6389 2.2045-1.2222 1.5992-7.0378-0.73253-7.0378-0.69075 0-0.96024-0.47396-0.59886-1.0533 1.2227-1.96-1.1798-4.0276-5.181-4.4589-2.1897-0.23605-4.4219-1.0233-4.9604-1.7495-0.53852-0.72616-1.0263 0.16504-1.084 1.9805l-0.10488 3.3007-1.2508-3.0926c-0.68794-1.7009-0.94896-3.5765-0.58004-4.1678 0.36892-0.59138-0.52948-0.76429-1.9965-0.38423-1.4919 0.3865-2.6672 0.04129-2.6672-0.78328 0-0.81087-0.59972-1.4743-1.3327-1.4743-2.3636 0-1.4185 2.1488 1.6659 3.7873 3.2834 1.7442 4.8275 9.8684 2.1833 11.487-1.0183 0.62352-0.91419 1.2469 0.33984 2.0341 1.4086 0.88419 1.2927 1.1395-0.52407 1.1553-1.2827 0.01109-2.3322 0.65979-2.3322 1.4415 0 0.84059 2.1697 1.2661 5.3105 1.0414 2.9208-0.20892 5.4696 0.19125 5.664 0.88927 0.44917 1.6126-9.892 2.3801-17.305 1.2844-4.6992-0.69462-5.6571-1.3295-5.6235-3.727 0.03638-2.5977 0.17784-2.6562 1.3989-0.57925 0.80799 1.3743 2.9516 2.3105 5.2903 2.3105 3.9724 0 5.3371-1.8588 2.266-3.0865-1.1396-0.45555-1.0343-0.69965 0.33317-0.77264 1.4584-0.07783 1.9991-1.6811 1.9991-5.9279 0-8.419-1.3093-8.4672-3.33-0.12267-0.9681 3.998-2.2641 7.2691-2.88 7.2691-1.3965 0-1.4454 0.34534 0.84077-5.9414 2.2812-6.2732 2.5395-9.9023 0.70479-9.9023-0.73299 0-1.3327 1.4574-1.3327 3.2386 0 5.4192-2.6224 9.7283-5.4712 8.9903-1.3888-0.35979-2.5251-1.2483-2.5251-1.9745 0-0.72616 1.1994-1.0096 2.6654-0.62976s2.7324 0.30055 2.8144-0.17609c0.08196-0.47664 0.3648-2.9461 0.62857-5.4877l0.4796-4.6211-2.7326 3.3008c-1.5029 1.8154-4.9727 5.6773-7.7105 8.5819-7.8341 8.3114-7.8288 8.1449-0.28303 8.8963 1.8591 0.18514 2.3792 1.0501 1.9713 3.2785-0.56262 3.0738 1.819 3.7161 3.8123 1.0282 0.55684-0.75087 0.98792-0.3521 0.99953 0.92461 0.02019 2.2225 3.4456 4.996 6.0176 4.8724 0.73298-0.0353 0.58305-0.36376-0.33317-0.73003zm12.327-17.484c0-2.1092 0.44979-3.5594 0.99953-3.2228 0.54974 0.3366 0.99953 2.0623 0.99953 3.8348 0 1.7726-0.44979 3.2228-0.99953 3.2228s-0.99953-1.7257-0.99953-3.8348zm3.7916 1.7974c-0.43404-1.1206-0.49139-2.3324-0.12744-2.693 0.36396-0.36057 0.98162 0.55626 1.3726 2.0374 0.83048 3.1462-0.09226 3.632-1.2451 0.65558zm150.99 14.58c-0.49299-1.2728 0.0275-1.9804 1.4567-1.9804 1.7296 0 1.8684-0.35209 0.62453-1.5844-2.1121-2.0924-4.6615 0.34381-3.4994 3.344 0.46894 1.2107 1.1525 2.2012 1.519 2.2012 0.36649 0 0.32115-0.8912-0.10075-1.9804zm19.14-1.38 4.6644-1.6296-3.7517-1.4659c-4.9281-1.9255-12.027-1.9395-10.83-0.0213 0.49568 0.79454 2.2755 1.1844 3.9551 0.86628 2.1586-0.40881 2.8524-0.0582 2.3666 1.196-0.37801 0.97588-2.4222 1.7743-4.5428 1.7743-2.1205 0-3.8555 0.60545-3.8555 1.3455 0 1.4244 3.9551 0.7434 11.994-2.0653zm13.327 2.0401c0-0.72616-1.4993-1.3203-3.3318-1.3203-1.8325 0-3.3318 0.59413-3.3318 1.3203 0 0.72618 1.4993 1.3203 3.3318 1.3203 1.8325 0 3.3318-0.59413 3.3318-1.3203zm-67.968-3.3008c-0.91249-1.0892-2.1665-1.9804-2.7868-1.9804s-0.7825 0.89121-0.36059 1.9804c0.42192 1.0892 1.676 1.9805 2.7868 1.9805 1.6441 0 1.7112-0.36823 0.36059-1.9805zm4.6644 0.66016c0.45302-0.72617 0.18855-1.3203-0.58769-1.3203s-1.4114 0.59414-1.4114 1.3203c0 0.72616 0.26446 1.3203 0.5877 1.3203 0.32323 0 0.95835-0.59414 1.4114-1.3203zm70.856-0.66016c0.24399-0.72616-1.5055-1.2838-3.8877-1.2393-2.3822 0.0446-5.1063-0.4947-6.0536-1.1983-1.1391-0.84609-2.2448-0.76174-3.2651 0.24907-1.1685 1.1577-0.75076 1.5664 1.7224 1.6848 1.7958 0.0861 4.0148 0.06 4.931-0.0578 0.91624-0.11788 1.6659 0.44943 1.6659 1.2607 0 1.7799 4.259 1.1707 4.8872-0.69908zm11.105 1.4743c0-1.1721-5.3917-1.7847-6.0745-0.69018-0.41049 0.65799 0.78834 1.1964 2.6641 1.1964 1.8757 0 3.4104-0.22778 3.4104-0.50617zm15.229-2.8229c1.4125-1.0586 2.1454-2.3436 1.6288-2.8553-0.5166-0.51179-2.2553 0.37328-3.8638 1.9668-3.275 3.2445-1.7286 3.8592 2.2349 0.88853zm-200.96-1.292c0.63516-2.1044-3.6942-6.9215-4.4425-4.9429-0.34499 0.91224-1.1757 1.3228-1.8461 0.9123-1.8199-1.1143-1.4719 2.5916 0.41926 4.4652 1.8427 1.8255 5.2636 1.5722 5.8694-0.43463zm89.78-0.15391c0-0.27843-1.4993-0.50623-3.3318-0.50623-1.8325 0-3.3318 0.51174-3.3318 1.1372 0 0.62548 1.4993 0.85328 3.3318 0.50624 1.8325-0.34704 3.3318-0.85879 3.3318-1.1372zm121.28-11.665c0-0.96871 0.89957-2.1033 1.999-2.5212s1.9991-1.3988 1.9991-2.1796c0-1.7024-4.2579-1.192-5.6436 0.67658-1.4807 1.9967-1.2181 7.5389 0.31277 6.6015 0.73298-0.44879 1.3327-1.6086 1.3327-2.5773zm-234.56-1.3057c0-0.32023-0.59972-0.94943-1.3327-1.3982-0.73298-0.4488-1.3327-0.1868-1.3327 0.58223 0 0.76902 0.59972 1.3982 1.3327 1.3982 0.73299 0 1.3327-0.262 1.3327-0.58223zm53.308-8.6599c0-0.72616-0.89958-1.3203-1.9991-1.3203s-1.9991 0.59414-1.9991 1.3203c0 0.72617 0.89957 1.3203 1.9991 1.3203s1.9991-0.59414 1.9991-1.3203zm-6.9967-3.3007c0-1.9204-0.7663-3.3007-1.8325-3.3007-1.8705 0-2.5517 4.1286-0.944 5.7213 1.7448 1.7285 2.7765 0.82912 2.7765-2.4206zm6.9967-2.7185c0-1.0464-0.89958-1.9025-1.9991-1.9025-2.0073 0-2.7396 2.7871-1.1468 4.3651 1.2437 1.2322 3.1459-0.25682 3.1459-2.4626zm150.98 0.73938c0.38317-1.4516 0.15326-2.972-0.51092-3.3787-0.66417-0.40667-1.2076 0.78101-1.2076 2.6393 0 4.0454 0.75957 4.3723 1.7185 0.73938zm-146.24-1.4367c0.49249-0.78944 0.14004-2.1262-0.78321-2.9707-1.2866-1.1768-1.459-1.1499-0.73812 0.11504 0.51729 0.9077 0.30541 1.6504-0.47083 1.6504-0.77625 0-1.4114 0.59414-1.4114 1.3203 0 1.7627 2.2802 1.6856 3.4035-0.11504zm-57.562-1.8654c0.42191-1.0892 0.18621-1.9805-0.52377-1.9805s-1.2909 0.8912-1.2909 1.9805 0.2357 1.9805 0.52377 1.9805c0.28807 0 0.86897-0.8912 1.2909-1.9805zm217.68-0.13042c0.23793-0.70713-0.77408-1.3757-2.2489-1.4858-2.6857-0.20042-3.4843 1.041-1.7653 2.744 1.1578 1.1471 3.4463 0.42979 4.0142-1.2582zm-170.85-2.7089c2.5786-2.027 2.5473-2.0681-0.96402-1.262-3.064 0.70342-3.5006 0.47071-2.8024-1.4936 0.65378-1.8395 0.46972-1.9998-0.87881-0.76523-1.7095 1.565-1.0175 5.7369 0.93852 5.658 0.57274-0.02307 2.2408-0.98484 3.7068-2.1372zm7.3299 0.27667c0-0.32023-0.59971-0.94943-1.3327-1.3982-0.73299-0.4488-1.3327-0.1868-1.3327 0.58223 0 0.76902 0.59971 1.3982 1.3327 1.3982s1.3327-0.262 1.3327-0.58223zm67.968-1.3203c0-2.1028-2.418-4.0639-3.5851-2.9077-1.0963 1.0861 0.61507 4.8102 2.2105 4.8102 0.75599 0 1.3745-0.85614 1.3745-1.9025zm89.957-0.73807c-0.46714-0.74882 0.65252-1.3203 2.5868-1.3203 4.0853 0 4.6002-3.2372 0.83262-5.2347-3.6805-1.9514-4.0857-1.7597-4.0857 1.934 0 2.3584-0.72028 3.3007-2.5228 3.3007-1.3876 0-2.8563-0.86095-3.2639-1.9132-0.52388-1.3525-0.0775-1.6874 1.5233-1.1427 1.7296 0.58854 1.6383 0.28848-0.38636-1.2705-3.2967-2.5384-4.6792-1.7806-4.6792 2.5651 0 2.141 0.60565 3.1392 1.6659 2.7454 0.91622-0.34028 2.8653-0.14854 4.3313 0.42609 3.7483 1.4693 4.9539 1.4422 3.9981-0.08991zm-193.79-3.7904c2.6656-2.4603 2.6633-2.4677-0.56586-1.8561-1.785 0.33805-3.7044-0.12693-4.2706-1.0346-0.64154-1.0284-0.48425-1.3154 0.41804-0.76294 0.79559 0.48712 1.7976 0.32291 2.2267-0.36493 1.5663-2.5107-1.6393-2.6179-3.9113-0.1308-4.7528 5.2029 0.84099 9.0061 6.103 4.1494zm-23.738-1.4422c0.37631-1.4256-0.15346-3.2808-1.1773-4.1226-1.5259-1.2546-1.8615-0.78732-1.8615 2.5921 0 4.5769 1.9724 5.5703 3.0387 1.5305zm7.9814 1.726c-0.90228-0.36166-2.7014-0.38367-3.9981-0.04892-1.2967 0.33476-0.55844 0.63066 1.6405 0.65756 2.199 0.02693 3.2599-0.24698 2.3576-0.60864zm54.282-3.1728c0-0.68332-0.59971-1.2424-1.3327-1.2424-0.73298 0-1.3327 0.92627-1.3327 2.0584s0.59972 1.6912 1.3327 1.2424c0.73299-0.4488 1.3327-1.3751 1.3327-2.0584zm-67.643 0.52107c-0.9208-0.36778-1.326-1.2268-0.90047-1.9089 0.42555-0.68214 0.27936-1.1552-0.32487-1.0512-3.0422 0.52356-4.643-0.31085-3.9632-2.0659 0.41377-1.0682-0.12006-2.8065-1.1863-3.8628-1.1123-1.102-1.5605-2.8968-1.0514-4.211 0.78703-2.0319 1.0074-1.9684 1.9523 0.56205 0.69426 1.8593 2.2014 2.8525 4.3288 2.8525 2.9795 0 3.2636-0.51718 3.2636-5.9414 0-7.104-1.723-7.5805-7.6332-2.1109-2.5141 2.3267-4.139 5.1377-4.139 7.1604 0 4.0047 6.0156 11.496 9.1142 11.35 1.3977-0.06585 1.5966-0.35075 0.53958-0.77292zm11.142-2.7262c-1.3547-1.3421-2.4725 0.67849-1.361 2.4602 0.83965 1.3459 1.1536 1.347 1.605 5e-3 0.30864-0.91732 0.19885-2.0268-0.244-2.4655zm8.5237 0.96272c0-1.4523-0.53556-2.6406-1.1901-2.6406-1.498 0-2.8953 3.4343-1.8277 4.492 1.6043 1.5893 3.0178 0.72214 3.0178-1.8514zm22.636 1.6504c-0.0112-0.54462-0.60176-1.8814-1.3123-2.9707-1.0447-1.6015-1.2958-1.412-1.3123 0.99023-0.0112 1.6339 0.5793 2.9707 1.3123 2.9707 0.73298 0 1.3235-0.4456 1.3123-0.99023zm5.3512-0.33007c0-0.72617-1.0495-1.3112-2.3322-1.3001-1.9931 0.01733-2.0416 0.20631-0.33317 1.3001 2.5151 1.6102 2.6654 1.6102 2.6654 0zm44.423-1.3001c2.326 0.01634 2.5014 0.26208 0.90173 1.264-1.4755 0.92416-1.0468 1.1446 1.668 0.85787 2.0096-0.21226 4.0527-0.78108 4.5402-1.264 1.2302-1.2188 3.4069-1.1059 2.6319 0.13643-0.34809 0.55799 1.7155 0.79266 4.5858 0.52147 2.8703-0.27118 5.2187-1.0248 5.2187-1.6747 0-0.6499 1.3494-1.1725 2.9986-1.1614 2.3686 0.01594 2.5867 0.27825 1.0381 1.2485-3.2646 2.0454-0.63782 2.943 5.8093 1.9852 5.361-0.79646 6.061-1.2786 5.8322-4.0175-0.32983-3.948-0.90325-4.0535-32.108-5.9034-23.614-1.3999-31.455-1.1345-22.709 0.76871 2.1022 0.45744 5.3792 1.4118 7.2822 2.1208 1.903 0.70899 5.2015 0.9441 7.3299 0.52246 3.7471-0.74231 3.7652-0.72163 0.56939 0.65212-1.8152 0.78032-4.8138 1.0058-6.6635 0.5011-1.8497-0.50471-5.2827-1.1021-7.629-1.3275-3.2846-0.3156-4.0948 0.03169-3.5224 1.5097 0.54317 1.4023 3.0396 1.9196 9.2635 1.9196 7.1857 0 8.5365 0.36184 8.6252 2.3105 0.0629 1.3803 0.37584 1.6461 0.7774 0.66015 0.36971-0.90771 1.9716-1.6413 3.5597-1.6302zm15.363-4.1227c-1.2329-0.77389-0.42692-1.1447 2.5179-1.1585 2.3822-0.01109 4.3313 0.20755 4.3313 0.48594 0 1.2005-5.1953 1.7107-6.8492 0.67253zm12.923 0.26474c-0.41077-0.65845 0.45341-0.88622 1.9204-0.50616 3.1118 0.80619 3.5052 1.7033 0.74685 1.7033-1.0562 0-2.2565-0.53873-2.6672-1.1972zm16.173 1.5524c-0.33789-1.2846-0.63658-0.55324-0.66374 1.6253-0.0272 2.1785 0.2493 3.2295 0.61436 2.3356s0.38727-2.6763 0.0495-3.9609zm4.4073 3.5278c0-0.76903 0.54379-1.0653 1.2084-0.65833 0.66464 0.40694 0.89454-0.4492 0.51092-1.9025-1.0074-3.8166-4.3847-3.3095-4.3847 0.65833 0 1.8154 0.59971 3.3007 1.3327 3.3007 0.733 0 1.3327-0.6292 1.3327-1.3982zm-59-0.71976c-0.44285-0.43873-1.5923-0.48563-2.5544-0.10424-1.0631 0.42148-0.74734 0.73433 0.80518 0.79769 1.4049 0.05733 2.192-0.25473 1.7492-0.69344zm52.336-3.8234c0-4.782-1.7726-6.1897-3.1892-2.5326-1.4356 3.7062-0.86202 7.1537 1.1901 7.1537 1.3962 0 1.999-1.3937 1.999-4.6211zm-81.246 0.05783c-2.122-2.5331-0.52194-4.9044 3.0774-4.5605 1.5792 0.15085 3.9174-0.17339 5.1959-0.72054 4.4255-1.8939 0.81033-3.3587-8.2893-3.3587-6.1056 0-9.3367-0.54781-9.7342-1.6504-0.90104-2.4994-1.9523-0.87378-2.9884 4.621-0.78584 4.1679-0.56923 4.9511 1.3693 4.9511 1.6463 0 2.1042-0.75243 1.6061-2.6393-0.38317-1.4516-0.15326-2.972 0.51092-3.3787 0.66416-0.40667 1.2076 0.48395 1.2076 1.9791 0 1.4952 0.8354 2.7185 1.8565 2.7185 1.0211 0 2.2017 0.8912 2.6236 1.9805 0.42191 1.0892 1.7589 1.9805 2.9712 1.9805 1.7786 0 1.8932-0.37114 0.59345-1.9226zm9.2805-2.7764c0-1.1321-0.59972-1.6912-1.3327-1.2424-0.73299 0.44879-1.3327 1.3751-1.3327 2.0584 0 0.6833 0.59972 1.2424 1.3327 1.2424 0.73298 0 1.3327-0.92627 1.3327-2.0584zm5.2371-0.25215c-0.0515-1.2708-0.60908-3.4988-1.239-4.9511-0.91879-2.1183-1.1639-1.6612-1.239 2.3105-0.0515 2.7231 0.50605 4.9511 1.239 4.9511 0.73299 0 1.2906-1.0397 1.239-2.3105zm-56.546-0.33007c-0.45301-0.72617-1.4234-1.3203-2.1563-1.3203-0.73299 0-0.96206 0.59414-0.50905 1.3203 0.453 0.72616 1.4234 1.3203 2.1564 1.3203 0.73298 0 0.96205-0.59414 0.50904-1.3203zm3.9981 0c0.45302-0.72617 0.18855-1.3203-0.58769-1.3203-0.77624 0-1.4114 0.59414-1.4114 1.3203 0 0.72616 0.26446 1.3203 0.5877 1.3203s0.95835-0.59414 1.4114-1.3203zm20.809 0.33007c1.2586-8.2017 1.1959-8.3393-5.0007-10.971-7.84-3.3293-8.0518-3.2897-8.1902 1.5341-0.1569 5.4667-1.6208 6.7355-1.6208 1.4048 0-4.8244-1.9757-5.5815-3.1581-1.2103-1.2312 4.5513-0.99008 8.912 0.49272 8.912 0.73298 0 1.3509-0.74267 1.3732-1.6504 0.02249-0.91592 0.64504-0.62214 1.3989 0.66015 1.0042 1.7081 3.0785 2.3105 7.9557 2.3105 3.6285 0 6.6657-0.4456 6.7492-0.99023zm-29.471-6.2714c0-3.2677-0.59972-5.9414-1.3327-5.9414-0.73298 0-1.3327 2.6736-1.3327 5.9414 0 3.2677 0.59972 5.9414 1.3327 5.9414 0.73299 0 1.3327-2.6736 1.3327-5.9414zm9.5684-1.9805c1.8512-4.0472 1.0942-5.2812-3.2381-5.2782-3.8148 3e-3 -4.3464 0.43992-4.4582 3.667-0.10754 3.1049 0.40091 3.6585 3.3318 3.6278 1.9023-0.0199 3.8663-0.92738 4.3645-2.0166zm-2.9049-9.1642c0-3.0161-2.1012-4.6911-3.3578-2.6768-1.1195 1.7945 0.18446 5.2395 1.9832 5.2395 0.75599 0 1.3745-1.1532 1.3745-2.5627zm5.3308-2.1363c0-1.7726-0.52977-3.2228-1.1773-3.2228-1.4262 0-2.97 5.2943-1.9981 6.8522 1.216 1.9492 3.1754-0.2903 3.1754-3.6293zm-9.2523-7.1837c0.69084 0 1.2561-0.59414 1.2561-1.3203 0-0.72617-0.89957-1.3203-1.9991-1.3203-1.5527 0-1.9471 1.5479-1.7662 6.9316 0.2226 6.627 0.25525 6.685 0.74298 1.3203 0.28058-3.0862 1.0754-5.6113 1.7662-5.6113zm15.508 5.2812c1.2336-3.2377 1.1653-3.9609-0.37417-3.9609-1.0358 0-1.8833 1.0694-1.8833 2.3765 0 1.3071-0.71966 3.0895-1.5992 3.9609-1.2439 1.2323-1.1607 1.5844 0.37417 1.5844 1.0854 0 2.6525-1.7824 3.4825-3.9609zm-7.5883-4.1022c0-1.8981-2.3124-1.3542-3.1213 0.73417-0.49532 1.2787-0.10063 1.6697 1.1901 1.179 1.0621-0.40379 1.9312-1.2647 1.9312-1.9132zm-22.656 91.242c-1.7228-1.103-1.6876-1.2827 0.25452-1.3001 1.2395-0.0111 2.6242 0.57392 3.0772 1.3001 1.0424 1.671-0.72183 1.671-3.3318 0zm253.04-45.88c-1.6577-2.0941-1.6106-2.1408 0.50317-0.49849 2.22 1.7248 2.9259 2.809 1.829 2.809-0.27674 0-1.3262-1.0397-2.3322-2.3105zm-54.471-8.2519c0-0.72617 0.59972-1.3203 1.3327-1.3203 0.73299 0 1.3327 0.59414 1.3327 1.3203 0 0.72616-0.59972 1.3203-1.3327 1.3203-0.73298 0-1.3327-0.59414-1.3327-1.3203z"/>
</svg>
