<svg width="161" height="80" version="1.1" viewBox="0 0 214 106" xmlns="http://www.w3.org/2000/svg">
	<path fill-opacity=".2" d="m103.68 105.74c-0.0979-0.73614-0.10707-1.7902-0.0204-2.3423 0.0866-0.5521-0.44134-1.0038-1.1734-1.0038s-1.331-0.6023-1.331-1.3384c0-1.9928 3.6012-1.619 4.393 0.45597 0.37663 0.98694 0.1504 2.6432-0.50273 3.6807-0.65312 1.0375-1.2676 1.284-1.3655 0.54784zm2.8729-0.35067c0.0405-0.54327 1.8944-2.4362 4.1198-4.2066 2.9236-2.3258 4.3206-2.7724 5.0352-1.6097 0.738 1.2007 1.4228 1.0835 2.6983-0.46186 0.9401-1.1391 2.4223-2.071 3.2938-2.071 2.2748 0 9.1273-7.5247 8.5202-9.3561-0.3079-0.92883-2.5432 0.08362-5.6292 2.5498-2.8152 2.2497-5.6462 3.7624-6.291 3.3617-0.64486-0.40077-1.1725 0.25449-1.1725 1.4561 0 1.3729-0.86565 2.0049-2.3293 1.7008-1.2811-0.26621-2.2427-1.5354-2.1369-2.8204 0.14125-1.7152-0.47803-2.1224-2.3293-1.5316-1.3998 0.44674-2.5217 0.1692-2.5217-0.62383 0-0.78574 1.3776-1.4286 3.0614-1.4286 3.6708 0 6.2558-2.3229 6.2558-5.6214 0-1.325 0.58398-2.4092 1.2978-2.4092 0.73919 0 0.9453-1.772 0.47889-4.1171-0.61632-3.0987-0.36118-4.027 1.0315-3.7529 2.9519 0.58094 7.9577-1.5632 7.0599-3.024-0.45032-0.73268 0.43943-1.663 1.9772-2.0674 1.5378-0.40438 2.796-1.2484 2.796-1.8756 0-0.62718 0.89844-0.79364 1.9965-0.36992s1.9965 0.15697 1.9965-0.59279c0-1.4906-2.4215-1.4251-4.8994 0.13245-1.7678 1.1112-3.4992-1.071-4.0294-5.0786-0.32228-2.4363-0.2301-2.4664 1.0259-0.3346 1.9885 3.375 3.3353 2.9237 6.4633-2.1656 3.6125-5.8777 3.4947-6.7384-0.55695-4.0689-3.4321 2.2613-4.2549 1.3832-1.9965-2.1307 0.84664-1.3174 1.2973-1.4369 1.3106-0.34772 0.0137 1.1151 0.89421 0.90758 2.6824-0.63206 2.6772-2.3051 3.8354-7.938 1.3093-6.3681-0.744 0.46238-1.0337 1.3598-0.6438 1.9942 0.38991 0.63441 0.14159 1.5061-0.55184 1.937-0.69342 0.43094-1.637 0.17141-2.0968-0.57674-1.3688-2.227-3.341-1.5466-3.341 1.1527 0 3.2688-3.5136 6.4292-4.3533 3.9157-0.32046-0.95927-0.35644-0.37831-0.08 1.291 0.4341 2.6209-0.0223 2.9949-3.3438 2.7404-2.1156-0.1621-5.2742 0.63399-7.0192 1.7691-1.7449 1.1351-4.9695 2.4195-7.1657 2.8542-2.1962 0.43473-5.1395 1.2361-6.5407 1.7808-1.708 0.66399-2.2492 0.50481-1.6421-0.483 1.8485-3.0076-1.5438-2.8031-5.793 0.34928-2.4147 1.7914-4.9 2.9405-5.5228 2.5534-0.62281-0.38706-1.1324 0.23525-1.1324 1.3829 0 1.4262-1.2638 2.0866-3.9931 2.0866-2.6621 0-3.9931 0.66922-3.9931 2.0077 0 1.1042-0.56781 2.0077-1.2618 2.0077-0.7661 0-0.71495 1.5774 0.13021 4.0153 1.4635 4.2216 3.1365 5.1518 4.2126 2.3423 0.35242-0.92017 0.62184-0.46845 0.59871 1.0038-0.02316 1.4723 0.40148 3.7309 0.94358 5.0191 0.63786 1.5158 0.3939 2.3423-0.69146 2.3423-0.92441 0-0.39095 1.1217 1.1886 2.4992 2.7395 2.3892 3.8599 5.5314 1.9722 5.5314-0.49141 0-2.1282-1.054-3.6374-2.3423-2.6196-2.2361-2.661-2.2346-0.91341 0.03232 2.9962 3.8868 1.1061 3.7859-7.2391-0.38626-5.3987-2.6991-9.2685-3.7737-12.25-3.4018-4.2633 0.53173-7.4582-1.2735-8.6576-4.8918-0.41258-1.2446-1.4405-1.0839-4.0455 0.63238-3.306 2.1782-3.5847 2.1767-5.2226-0.02831-1.7888-2.4082-3.6019-2.8859-11.974-3.1543-3.8804-0.12444-5.0047-0.73843-5.3241-2.9076-0.56474-3.8354-3.4351-4.4143-3.9626-0.79926-0.56749 3.8891-3.763 4.9908-3.763 1.2973 0-1.5863-0.86073-2.7884-1.9965-2.7884-1.2294 0-1.9965-1.2553-1.9965-3.2671 0-4.6012 2.0377-5.3254 5.2448-1.8639 1.5078 1.6274 2.7414 2.3875 2.7414 1.689 0-0.69843 1.5216-2.92 3.3814-4.9369 2.3987-2.6013 2.8084-3.667 1.4096-3.667-1.0845 0-2.3259 0.57599-2.7586 1.28-1.2246 1.9925-4.7842 0.01516-4.3853-2.4361 0.19598-1.2045 1.4097-2.9806 2.6971-3.947 1.96-1.4712 2.6793-1.4167 4.4209 0.3346 2.6779 2.6928 5.883 2.6895 5.883-6e-3 0-1.4594-0.77752-1.8497-2.5547-1.2825-1.8512 0.5908-2.8039 0.0259-3.4595-2.0514-0.68232-2.1617 0.19147-4.0101 3.553-7.5158 2.4518-2.557 3.8589-4.4542 3.1268-4.2159-0.73206 0.23822-1.4741-0.16918-1.6489-0.90531-0.17484-0.73614 0.53366-1.346 1.5744-1.3553 1.0408-9e-3 3.3765-1.419 5.1905-3.1326 1.814-1.7136 4.3533-2.9106 5.6429-2.66 1.9918 0.38714 1.7092 1.1554-1.8778 5.1039-4.5422 5-4.9703 6.1058-2.8698 7.4112 0.74401 0.46237 0.95094 1.4944 0.45986 2.2934-0.54376 0.88472-0.27086 1.0662 0.69794 0.46409 0.91185-0.56668 1.2228-2.1546 0.72857-3.7205-0.49784-1.5773-0.33214-2.4024 0.39204-1.9523 0.68986 0.42873 2.2417-1.3027 3.4486-3.8477s3.1025-4.6272 4.2124-4.6272c1.1099 0 2.0181-0.6023 2.0181-1.3384 0-0.73614 0.59896-1.3384 1.331-1.3384 0.73206 0 1.331 0.75857 1.331 1.6857 0 0.92712 1.1979 2.438 2.6621 3.3574 3.3447 2.1004 3.3498 0.57783 0.01158-3.449-2.7973-3.3743-5.3333-3.9349-11.104-2.4544-2.4888 0.63847-3.4808 0.49409-2.9163-0.42445 0.47053-0.76564 0.13594-1.3921-0.74357-1.3921s-7.1549 5.5197-13.945 12.266c-6.7904 6.7463-13.294 12.799-14.452 13.451-1.158 0.65167-2.1055 2.0857-2.1055 3.1867 0 1.55-1.0171 1.8099-4.5062 1.1517-2.7148-0.51216-4.8625-0.27025-5.4026 0.60855-1.1143 1.8129-3.4014 1.9148-3.4014 0.15144 0-1.3276 9.5041-6.525 13.502-7.3835 1.2034-0.25844 8.0664-6.2386 15.251-13.289 7.1846-7.0506 13.64-12.819 14.345-12.819s2.3837-1.0025 3.7301-2.2278c2.2962-2.0896 2.6476-2.0393 5.6662 0.81235 3.0228 2.8556 3.4035 2.9096 6.2718 0.88935 1.6795-1.1829 4.1422-2.1508 5.4726-2.1508 5.1378 0 14.088-6.0737 25.22-17.116 10.572-10.485 12.089-11.525 17.211-11.788 4.5453-0.23336 6.0981 0.32601 8.1356 2.9307 1.385 1.7705 3.6874 3.2191 5.1165 3.2191 1.4837 0 3.0958 1.3155 3.7578 3.0665 0.63768 1.6866 2.0558 3.8146 3.1514 4.7289 1.0956 0.91432 2.6948 3.3687 3.5539 5.4542 0.85905 2.0855 4.5081 6.9975 8.1091 10.916l6.5472 7.1238 3.1009-2.9294c1.7055-1.6111 4.3522-2.9294 5.8816-2.9294 3.1644 0 12.355 7.6313 12.355 10.259 0 1.2703 1.517 1.5298 5.6569 0.96772 5.2077-0.70708 6.1048-0.35051 11.299 4.4911 3.1033 2.8925 8.0659 6.0634 11.028 7.0465 2.9621 0.98303 6.8168 3.2264 8.566 4.9854 1.7492 1.7589 3.9741 3.0899 4.9443 2.9577 0.97018-0.13221 2.9619-0.12147 4.426 0.02389 2.2137 0.21975 2.0558 0.48724-0.93733 1.5881-1.9797 0.72814-3.9666 2.4875-4.4155 3.9096-0.44888 1.4222-1.6742 2.5858-2.723 2.5858-2.345 0-2.531-3.4993-0.24306-4.573 1.331-0.6246 1.331-0.9369 0-1.5615-0.91509-0.42942-1.673-1.7846-1.6842-3.0115-0.0156-1.7078-0.28059-1.8181-1.1304-0.47058-0.73275 1.162-3.0081 1.5693-6.6951 1.1985-4.5492-0.45745-5.5101-0.17021-5.1809 1.5488 0.42175 2.2022 4.0773 2.6227 7.9914 0.91919 4.143-1.8031 5.3594-0.17901 2.553 3.4086-2.3432 2.9955-3.5466 3.3772-9.7454 3.0914-5.397-0.24885-5.9937-0.11482-2.5193 0.5658 5.2946 1.0372 6.4511 3.0621 3.2612 5.7101-1.6995 1.4108-2.3918 1.4724-2.8013 0.24914-0.66033-1.9723-4.0851-0.27664-10.716 5.3055-2.4047 2.0244-4.9292 3.6807-5.61 3.6807-1.8634 0-4.25-5.1921-3.184-6.9266 0.57182-0.93038 0.33813-1.1481-0.60396-0.56257-2.2802 1.4171-1.9017-3.0424 0.45986-5.4171 1.0981-1.1042 1.9965-2.6314 1.9965-3.3937s-0.89845-1.0394-1.9965-0.61563c-2.309 0.89096-2.574-0.91342-0.66193-4.5061 0.91145-1.7125 0.88337-2.7881-0.0885-3.3921-1.9061-1.1846-2.687-0.21473-2.884 3.5822-0.0902 1.7395-0.74182 3.9294-1.4479 4.8664-0.94939 1.2599-0.71469 1.4841 0.901 0.86063 1.2372-0.47741 2.1848-0.18223 2.1848 0.68058 0 0.83799-0.83938 1.8475-1.8653 2.2434-2.1542 0.83124-2.016 3.8593 0.28149 6.1696 0.87108 0.87591 1.5838 3.5801 1.5838 6.0094 0 3.3834-0.56838 4.4168-2.4292 4.4168-1.8205 0-2.4692-1.09-2.5889-4.3499-0.37668-10.261-0.90025-14.388-1.8251-14.388-0.54262 0-3.7061-4.9689-7.0299-11.042-3.3238-6.0731-6.0544-9.9881-6.0678-8.6998-0.0135 1.2882-0.60473 2.3423-1.3138 2.3423-0.70908 0-0.92521 0.95394-0.48027 2.1199 0.63756 1.6707 1.0364 1.7498 1.8824 0.37337 1.1797-1.9194 1.0963-1.9796 4.2138 3.0417 2.7821 4.481 1.4667 6.0145-1.8049 2.1041l-2.4719-2.9546 0.82787 4.6845c0.45533 2.5765 1.3374 5.3422 1.9601 6.1461 0.62269 0.80387 0.84289 1.8629 0.48931 2.3534-0.35358 0.4905 1e-3 0.35418 0.78931-0.30294 3.2751-2.7322 9.1982 1.9323 6.9984 5.5113-0.55506 0.90311-1.4895 0.57257-2.5658-0.90761-0.93109-1.2804-2.6524-2.1245-3.8252-1.8758-1.8881 0.40041-1.8233 1.0596 0.56501 5.7543 1.4835 2.9162 2.6974 5.3838 2.6974 5.4835 0 0.09978-1.126 1.487-2.5023 3.0827-1.4976 1.7364-3.3446 2.5763-4.6001 2.0918-1.7597-0.67902-1.9151-0.16906-0.96431 3.1646 1.0299 3.611 0.87252 3.9193-1.7223 3.3746-2.5516-0.53559-2.6077-0.44-0.52642 0.8976 1.2811 0.82336 2.3293 2.0694 2.3293 2.769 0 2.0244-6.2653 1.4727-8.4717-0.74599-1.1037-1.1099-2.3476-1.4634-2.7641-0.78568-0.41654 0.67774-3.2998 1.6539-6.4072 2.1692-3.1074 0.51535-6.3086 1.4698-7.1136 2.121-1.8549 1.5005-15.199 2.8338-15.1 1.5087zm34.111-21.984c-0.42489-1.0677-0.74029-0.75056-0.80415 0.80864-0.0578 1.4109 0.25678 2.2014 0.69908 1.7567 0.44229-0.44476 0.48957-1.5992 0.10502-2.5653zm-64.25-2.41c-0.86622-0.87104-1.3883-0.34603-1.5295 1.538-0.16138 2.1544 0.16326 2.4808 1.3152 1.3225 1.0074-1.013 1.0805-1.9894 0.21428-2.8605zm58.017-0.01596c0-0.73615-0.26414-1.3384-0.58696-1.3384-0.32283 0-0.95715 0.6023-1.4096 1.3384-0.45244 0.73614-0.18831 1.3384 0.58697 1.3384 0.77526 0 1.4096-0.6023 1.4096-1.3384zm-72.423-25.62-2.0041-4.4952 0.7215 4.0153c1.0685 5.9466 2.0445 8.2855 2.7134 6.5028 0.31532-0.84027-0.32854-3.5506-1.4308-6.023zm97.713 4.3291c0-1.3898-3.0062-4.1398-4.5255-4.1398-0.79096 0-0.72516 0.60924 0.1622 1.5015 0.82126 0.82584 1.1738 2.3384 0.78351 3.3613-0.48798 1.2788-0.0396 1.6012 1.435 1.0321 1.1796-0.45518 2.1447-1.245 2.1447-1.7551zm38.6-0.12449c0-0.73614-0.63431-1.3384-1.4096-1.3384-0.77527 0-1.0394 0.6023-0.58695 1.3384 0.45244 0.73614 1.0868 1.3384 1.4096 1.3384s0.58696-0.6023 0.58696-1.3384zm-5.3241-2.607c0.36603-0.06093-0.14949-0.63007-1.1456-1.2647-2.0025-1.2758-6.4772-0.4792-7.6036 1.3536-0.58025 0.94407 2.7492 0.91024 8.7492-0.08894zm-153.07-1.9985c0-0.32462-0.59896-0.96246-1.331-1.4174-0.73207-0.45495-1.331-0.18935-1.331 0.59023s0.59896 1.4174 1.331 1.4174c0.73206 0 1.331-0.2656 1.331-0.59023zm128.29-2.8254c0.45453-1.1911 0.2314-1.7284-0.5231-1.2594-0.72369 0.44975-1.3158 1.3845-1.3158 2.0772 0 1.9252 0.95403 1.501 1.8389-0.81772zm-22.766-6.9269c-0.49549-1.3049-1.9867-3.5482-3.3139-4.9851-2.1942-2.3755-2.6028-2.4216-4.5057-0.50814-1.9029 1.9135-1.7682 2.1862 1.4845 3.0071 3.2696 0.82516 3.5018 1.3069 2.7005 5.6019l-0.87668 4.6991 2.7061-2.7212c1.7382-1.7478 2.3839-3.5698 1.8052-5.0938zm-15.543 1.2876c0.80548-0.54083 2.2039-2.3943 3.1076-4.1187l1.6431-3.1354-4.1059 3.0525c-2.2582 1.6789-4.1059 3.5415-4.1059 4.1392 0 1.3411 1.516 1.3684 3.4611 0.06244zm44.456-0.31411c2.4331-1.5811 0.33154-1.5811-3.3276 0-1.7553 0.75846-1.982 1.1753-0.66551 1.2239 1.0981 0.04045 2.895-0.51028 3.9931-1.2239zm-101.96-8.5644c-0.39296-1.0297-0.06489-2.276 0.72901-2.7694 2.6401-1.6408 0.03354-3.4641-2.7842-1.9477-2.5657 1.3808-2.5834 1.5689-0.37844 4.0189 2.7463 3.0515 3.4038 3.2401 2.4337 0.69808zm5.3998-6.0659c0.42118-0.68527 0.15705-1.6243-0.58696-2.0866-0.744-0.46238-1.3527 0.09828-1.3527 1.2459 0 2.351 0.79869 2.6972 1.9397 0.84069zm40.367-2.327c0.35716-4.3396 0.33199-4.3121 4.3618-4.7634 2.4667-0.27626 3.2564 0.27875 3.2913 2.3134 0.0252 1.4723-0.57369 3.1194-1.331 3.6602-0.87126 0.62219-0.731 0.99086 0.38188 1.0038 2.5665 0.02991 5.8851-3.6359 4.2254-4.6674-0.74628-0.46379-3.765-4.489-6.7084-8.945-3.7657-5.701-4.6485-7.8326-2.9792-7.1934 1.6242 0.62187 1.9436 0.4733 1.0129-0.47112-0.74772-0.75868-2.6359-1.5753-4.196-1.8147-1.5601-0.23941-3.6436-1.1029-4.6301-1.9188-2.6982-2.2316-7.1763-2.6984-6.7757-0.70618 0.23579 1.1727-0.6653 1.4467-2.9018 0.88219-2.7946-0.70532-3.143-0.43117-2.516 1.9798 0.75518 2.9039 2.5292 3.7308 3.3012 1.5388 0.90389-2.5664 8.2206-2.7679 10.517-0.28966 3.7803 4.0803 5.6006 8.2383 3.6169 8.262-1.3102 0.01566-1.3329 0.26188-0.0968 1.0517 2.2334 1.4272 0.63521 6.9718-1.7449 6.0534-1.026-0.39589-1.8654-0.0531-1.8654 0.76183 0 0.8149 0.9338 1.4816 2.0751 1.4816 1.1413 0 1.7049 0.6023 1.2525 1.3384-0.68684 1.1175 0.12094 4.0153 1.1193 4.0153 0.16316 0 0.42899-1.6078 0.59073-3.5729zm1.6176-8.473c0-0.73614 0.59897-1.3384 1.331-1.3384 0.73206 0 1.331 0.6023 1.331 1.3384 0 0.73614-0.59896 1.3384-1.331 1.3384-0.73207 0-1.331-0.6023-1.331-1.3384zm-27.453-6.6178c-0.31466-0.32717-1.9032 0.8136-3.53 2.5351l-2.9578 3.1299 3.53-2.5351c1.9415-1.3943 3.2725-2.8027 2.9578-3.1299zm3.4949-2.7512c0-0.73614-0.26413-1.3384-0.58696-1.3384-0.32282 0-0.95713 0.6023-1.4096 1.3384-0.45244 0.73614-0.1883 1.3384 0.58696 1.3384 0.77527 0 1.4096-0.6023 1.4096-1.3384zm10.648 89.006c0-1.1042 0.97178-2.0077 2.1595-2.0077 1.7687 0 1.8596 0.36338 0.50254 2.0077-0.91134 1.1042-1.8831 2.0076-2.1595 2.0076-0.27639 0-0.50252-0.90345-0.50252-2.0076zm-11.979-4.0153c0-1.1042 0.59896-2.0077 1.331-2.0077s1.331 0.90344 1.331 2.0077c0 1.1042-0.59896 2.0077-1.331 2.0077s-1.331-0.90344-1.331-2.0077zm2.3293-4.7917c-1.3193-0.7727-2.3205-2.9314-2.3089-4.9784 0.02356-4.1769 2.4863-8.5023 3.4723-6.0985 1.0756 2.622 5.9999 0.46405 5.1421-2.2535-0.41634-1.3191-0.20175-2.7434 0.47686-3.1651 1.8725-1.1637 3.0168 4.9677 1.1537 6.182-1.2218 0.79626-1.1382 1.3591 0.34426 2.3174 1.0769 0.69611 1.4441 1.7501 0.81604 2.3423-0.62807 0.59213-1.4093 0.32373-1.7362-0.59644-0.32681-0.92018-1.8156-1.673-3.3083-1.673-2.2616 0-2.4379 0.3347-1.0571 2.0077 1.2468 1.5107 1.265 2.0077 0.07327 2.0077-0.97798 0-1.2605 1.0238-0.73879 2.6769 0.96145 3.0461 0.86054 3.0995-2.3293 1.2312zm78.466-0.78157c0.57149-1.4976 0.33977-1.9102-0.70727-1.2594-0.95094 0.59097-1.5572 0.09958-1.5572-1.2621 0-1.4834 0.70474-1.9579 2.1054-1.4174 1.158 0.44683 2.3559 0.81242 2.6621 0.81242 0.30614 0 0.55664 1.2046 0.55664 2.6769s-0.87965 2.6769-1.9548 2.6769c-1.2764 0-1.6598-0.77295-1.1048-2.2272zm5.0562-0.44965c0.45245-0.73614 1.0868-1.3384 1.4096-1.3384 0.32282 0 0.58695 0.6023 0.58695 1.3384 0 0.73614-0.63431 1.3384-1.4096 1.3384-0.77526 0-1.0394-0.6023-0.58695-1.3384zm-93.837-1.3384c0-0.73614 0.59896-1.3384 1.331-1.3384 0.73206 0 1.331 0.6023 1.331 1.3384 0 0.73614-0.59896 1.3384-1.331 1.3384-0.73206 0-1.331-0.6023-1.331-1.3384zm21.296-1.3384c0-0.73614 0.59896-1.3384 1.331-1.3384 0.73206 0 1.331 0.6023 1.331 1.3384 0 0.73615-0.59897 1.3384-1.331 1.3384-0.73207 0-1.331-0.6023-1.331-1.3384zm76.718-0.66921c0.42139-1.1042 1.0016-2.0077 1.2893-2.0077 0.2877 0 0.5231 0.90344 0.5231 2.0077s-0.58016 2.0077-1.2892 2.0077c-0.70908 0-0.94449-0.90344-0.52312-2.0077zm-96.484-1.9407c0.29282-0.88337 0.96666-1.5609 1.4974-1.5057 1.5915 0.16556 1.2833 2.0013-0.43258 2.5765-0.87848 0.29445-1.3576-0.18738-1.0648-1.0708zm25.09-0.06696c0-0.73614 0.59897-1.3384 1.331-1.3384s1.331 0.6023 1.331 1.3384c0 0.73614-0.59896 1.3384-1.331 1.3384s-1.331-0.6023-1.331-1.3384zm44.775 0.40975c-1.499-1.5073-0.91293-3.0866 1.1454-3.0866 1.0981 0 1.9965 0.56675 1.9965 1.2594 0 1.6877-2.0785 2.8965-3.1419 1.8272zm-50.099-4.1509c0-0.74288 1.8863-2.0119 4.1917-2.8201 5.2643-1.8454 5.1255-1.8599 5.1255 0.53829 0 1.1042-1.1489 2.0077-2.5532 2.0077s-3.5006 0.36558-4.6586 0.81241c-1.158 0.44683-2.1054 0.2046-2.1054-0.53828zm-25.074-3.5993c-1.7119-0.94833-2.5147-2.0958-1.7839-2.55 1.9551-1.2151 5.562 0.51782 5.562 2.6722 0 1.0255-0.14974 1.8054-0.33276 1.7332-0.18301-0.07218-1.7334-0.90715-3.4453-1.8555zm14.426 0.64829c-1.6145-1.0492-1.4234-1.3014 0.99827-1.3179 1.6471-0.01124 2.9948 0.58181 2.9948 1.3179 0 1.677-1.4125 1.677-3.9931 0zm97.901-1.2241c-0.42856-0.69729-0.21185-1.6204 0.48157-2.0513 0.69343-0.43094 1.6114-0.21303 2.04 0.48424 0.42856 0.69729 0.21186 1.6204-0.48156 2.0513-0.69343 0.43094-1.6114 0.21303-2.04-0.48424zm-87.844-5.3473c-1.0051-1.6354 0.54263-5.4745 2.2071-5.4745 0.73206 0 0.98626 0.90344 0.56488 2.0077-0.42138 1.1042-0.18598 2.0077 0.52311 2.0077s1.2892 0.6023 1.2892 1.3384c0 1.6729-3.5726 1.767-4.5844 0.12078zm15.233-0.12078c0-0.73614 0.63431-1.3384 1.4096-1.3384s1.0394 0.6023 0.58696 1.3384c-0.45244 0.73615-1.0868 1.3384-1.4096 1.3384-0.32283 0-0.58696-0.6023-0.58696-1.3384zm-19.86-2.1192c0.0639-1.5592 0.37926-1.8764 0.80417-0.80863 0.38449 0.96618 0.3372 2.1206-0.10509 2.5653-0.44229 0.44476-0.75688-0.34576-0.69908-1.7567zm16.812-2.731c-0.52262-0.52552 0.0992-2.1516 1.382-3.6136 2.3117-2.6347 2.2996-2.637-1.3697-0.26193-4.1912 2.7129-6.3259 1.8877-3.2133-1.2423 1.8602-1.8706 8.9533-2.4952 8.8821-0.78218-0.0751 1.8043-4.8366 6.7492-5.6811 5.8999z"/>
	<path fill-opacity=".4" d="m107.19 105.15c-0.34119-0.55512 0.85662-1.8042 2.6618-2.7756 1.8052-0.97148 3.2821-2.3406 3.2821-3.0425 0-0.70188 0.83624-0.57827 1.8583 0.27469 3.2681 2.7274 15.445-6.8021 15.445-12.087 0-1.4854-5.5148 1.1807-6.9675 3.3684-0.58923 0.88736-1.0387 0.40876-1.131-1.2042-0.12583-2.2004-0.3281-2.0813-1.1365 0.66922-0.54088 1.8403-1.6791 3.1955-2.5294 3.0115-0.85028-0.18403-1.546 0.26769-1.546 1.0038 0 0.73614-0.89845 1.3384-1.9965 1.3384-2.8715 0-2.4584-4.5186 0.67367-7.3688 1.4686-1.3365 2.3956-2.7061 2.0599-3.0436-0.33566-0.33754 0.2803-1.5092 1.3688-2.6038 1.5524-1.5611 1.637-2.4046 0.39234-3.9127-1.2019-1.4562-1.213-2.2984-0.0459-3.472 1.1671-1.1736 1.5408-1.1523 1.5408 0.08753 0 1.1257 1.08 0.92541 3.4581-0.64148 2.9612-1.951 3.8698-2.0207 6.3224-0.48505 2.6079 1.6329 2.7007 1.5945 1.0375-0.42926-1.0047-1.2225-2.8016-2.244-3.9931-2.2701-1.4778-0.03232-1.1087-0.63993 1.1612-1.9116 1.9426-1.0883 3.5199-1.3238 3.7898-0.56593 0.27682 0.77751 1.2111 0.67325 2.3293-0.25996 2.442-2.038 2.3801-3.9073-0.12944-3.9073-1.1195 0-1.9965-1.1944-1.9965-2.7189 0-1.4954 0.89844-3.0656 1.9965-3.4893 1.1381-0.43915 1.9965-2.4353 1.9965-4.6425 0-2.1297 0.64289-3.8721 1.4286-3.8721 0.78575 0 1.2268-1.054 0.98005-2.3423-0.24672-1.2882-1.3388-2.3423-2.4269-2.3423-1.0881 0-1.8581 0.66367-1.7113 1.4748 0.15759 0.87028-1.0378 1.224-2.9161 0.86292-3.1628-0.60797-3.1666-0.62973-0.5998-3.4002 2.6637-2.8751 3.464-5.5245 1.431-4.7374-2.6682 1.033-16.211 14.5-14.582 14.5 0.98099 0 2.5317-1.2046 3.4461-2.6769 2.1817-3.513 6.964-3.5672 6.964-0.079 0 1.4288-0.69332 3.0288-1.5407 3.5554-1.0612 0.65952-1.3009 0.03554-0.77025-2.0051 0.50328-1.9352 0.22982-2.7801-0.7886-2.4363-0.85747 0.28944-1.6397 1.3779-1.7383 2.4187-0.0985 1.0408-0.24832 2.7097-0.33276 3.7087-0.0904 1.0696-1.003 1.4885-2.2198 1.0189-1.1364-0.43852-3.5883 0.20549-5.4485 1.4312-2.1502 1.4167-6.4264 2.289-11.739 2.3946-5.9216 0.11771-9.0158 0.82897-10.619 2.441-1.2442 1.2512-3.068 2.2748-4.0528 2.2748-0.98479 0-2.0218 0.6977-2.3045 1.5504-0.28267 0.85275-1.9797 1.7674-3.7712 2.0327-3.6901 0.54627-6.5849 3.7906-6.5849 7.3802 0 3.0989-2.2755 3.1572-3.0756 0.0788-0.33479-1.2882-0.6782-0.42034-0.76312 1.9287-0.17472 4.8329 2.2521 7.2322 4.0492 4.0032 1.3557-2.436 4.5287-1.6991 5.6806 1.3192 1.023 2.6809-0.34842 4.7569-2.3227 3.5159-0.86449-0.54341-2.3126-1.1011-3.218-1.2392-2.0192-0.30814-0.19143 3.5545 2.9046 6.1383 1.1381 0.94977 2.0692 2.5317 2.0692 3.5153 0 1.1817-2.2063 0.40936-6.5031-2.2766-5.0592-3.1624-7.6452-3.9472-11.646-3.5344-4.2077 0.4341-5.6761-0.08141-8.0717-2.8338-2.6853-3.0853-3.2112-3.2122-6.3379-1.5295-2.9676 1.597-3.6233 1.5565-5.0579-0.31309-0.90656-1.1814-3.7447-2.3282-6.3069-2.5484-2.9557-0.25406-5.2495-1.3893-6.2752-3.1056-1.5792-2.6426-1.6177-2.6337-1.6638 0.38526-0.02615 1.7107-0.6414 2.7212-1.3782 2.2633-0.73206-0.45496-1.331-1.9962-1.331-3.4251 0-1.4288-0.89844-2.5979-1.9965-2.5979-1.0981 0-1.9965 1.169-1.9965 2.5979 0 3.3405-2.4413 4.8916-3.4673 2.203-0.48343-1.2668 1.283-4.4955 4.5844-8.3793 5.4294-6.3872 6.1273-9.5951 1.5517-7.1327-3.7725 2.0302-5.155 1.6243-4.3969-1.291 1.2465-4.793 3.9188-5.8716 6.9631-2.8103 3.5692 3.5891 4.4082 3.4806 6.3975-0.8272 2.0284-4.3926 1.2286-5.515-1.7766-2.4931-2.0399 2.0512-2.4443 2.0673-4.3294 0.17165-1.8851-1.8956-1.6512-2.5351 2.5041-6.8462 3.8328-3.9764 4.259-4.974 2.6023-6.0911-1.6947-1.1427-1.6627-1.2794 0.22153-0.94544 1.2115 0.21473 3.4804-1.0834 5.0421-2.8847 2.559-2.9517 6.731-4.9082 6.731-3.1566 0 0.38104-1.6974 2.8875-3.7719 5.5699-4.3527 5.628-5.8961 9.2465-4.7436 11.122 1.0743 1.7479 7.1845-4.0767 7.1845-6.8486 0-1.1799 1.8201-4.1491 4.0447-6.5983l4.0447-4.453 3.2034 3.4758c3.829 4.1546 5.7174 2.3171 2.575-2.5056-2.4608-3.7766-6.9138-5.4072-11.11-4.0681-1.6848 0.5377-2.7581 0.28882-2.7581-0.6395 0-0.83588-1.8428-0.20029-4.0951 1.4124-5.8813 4.2112-25.908 24.482-25.481 25.791 0.19772 0.60681-0.25432 0.72184-1.0045 0.25561-0.7502-0.46624-1.364-0.05933-1.364 0.90434 0 1.2102-2.0584 1.752-6.6551 1.752-3.6603 0-6.6551-0.09687-6.6551-0.21521 0-0.49915 12.796-6.4199 14.412-6.6682 0.97175-0.14936 4.266-2.9131 7.3206-6.1416 8.1735-8.6389 24.955-22.444 27.283-22.444 1.1106 0 3.1035 0.98657 4.4285 2.1924 1.8162 1.6528 2.8505 1.8241 4.2023 0.69585 0.98627-0.82309 2.9441-1.7009 4.3508-1.9506 8.3075-1.4751 17.217-6.1013 22.427-11.645 12.378-13.171 19.452-19.019 21.22-17.544 1.2036 1.0044 2.1393 0.97677 3.2049-0.094761 1.1193-1.1255 2.5344-0.40521 5.5218 2.8106 2.2092 2.3782 4.6043 3.9588 5.3224 3.5126 1.3221-0.82165 10.747 12.083 10.747 14.715 0 0.78559 2.0874 3.4628 4.6387 5.9493 2.5513 2.4865 4.3574 4.8037 4.0138 5.1493-0.95864 0.96399 3.7148 4.1485 6.1587 4.1966 1.1915 0.02339 2.8632-0.80178 3.7149-1.8338 3.4296-4.1555 7.7513-3.7333 12.697 1.2403 2.5929 2.6073 4.7144 5.6884 4.7144 6.8468 0 1.4887 0.68292 1.8176 2.3293 1.1217 6.1082-2.5818 8.6016-2.3357 11.452 1.1303 1.5712 1.9108 7.0495 5.6553 12.174 8.3213 5.1244 2.6659 9.9552 5.6648 10.735 6.6642 0.77978 0.99939 3.3338 1.7623 5.6756 1.6953 2.3418-0.06696 4.6487 0.27131 5.1264 0.7517 0.47773 0.48038-0.40806 0.87343-1.9684 0.87343-1.5604 0-3.4782 1.2046-4.2618 2.6769-0.78357 1.4723-2.302 2.6769-3.3744 2.6769-2.5609 0-2.5081-2.175 0.0771-3.1725 1.7609-0.6795 1.7173-1.1069-0.33276-3.259-1.2977-1.3623-3.2064-2.1771-4.2416-1.8106-1.1935 0.42258-1.5279 0.09004-0.9139-0.90893 0.57376-0.93355-0.0151-1.8839-1.4454-2.3328-1.3275-0.4166-3.4862-1.3362-4.7971-2.0435-1.3109-0.70734-2.958-0.92897-3.6603-0.49252-0.70233 0.43644-1.2769 0.03524-1.2769-0.89157 0-1.2999-0.361-1.3221-1.5791-0.09727-1.218 1.2248-2.1309 1.0856-3.9931-0.60897-3.4334-3.1245-2.9932-1.2099 0.62416 2.7151 2.3161 2.5131 3.5814 2.9908 5.3241 2.0101 1.2573-0.70752 2.2859-0.75692 2.2859-0.10979s1.287 1.1288 2.8601 1.0703c1.5731-0.05842 3.1047 0.5992 3.4036 1.4615 0.34612 0.99844-0.44357 1.3082-2.1747 0.85295-1.495-0.39313-3.7753-0.25011-5.0674 0.3178-1.292 0.56792-2.9481 0.89394-3.6802 0.72449-0.73207-0.16946-0.58703 0.45296 0.32231 1.3831 2.0664 2.1138 9.4723 2.7107 12.619 1.0171 2.7205-1.4641 2.9448-0.7532 0.94676 3.0009-1.2214 2.2949-2.4233 2.5777-8.6517 2.0353-3.9783-0.34642-7.2332-0.0796-7.2332 0.59294 0 0.67254 1.0834 1.2228 2.4076 1.2228 1.3242 0 3.4747 0.78456 4.7788 1.7435 2.2063 1.6223 2.2169 1.8721 0.15295 3.5946-1.7441 1.4555-2.4369 1.4952-3.2417 0.18584-0.7914-1.2876-2.1194-1.1163-5.8554 0.75528-2.6575 1.3313-4.8466 3.1329-4.8646 4.0035-0.0391 1.8915-4.7739 3.6219-6.676 2.4398-0.73861-0.45903-1.3429-2.0036-1.3429-3.4325 0-1.4288-0.64781-2.5979-1.4396-2.5979-0.79178 0-0.19282-2.0286 1.331-4.5079 3.4754-5.6546 3.4578-6.0772-0.2242-5.3902-1.6472 0.30731-2.2461 0.20074-1.331-0.23684 1.9527-0.93377 2.2394-6.749 0.38944-7.8987-1.4651-0.91051-5.7022 6.5569-4.4404 7.8257 0.45884 0.4614 0.0951 0.83892-0.8083 0.83892-1.08 0-1.3375 1.0315-0.75182 3.0115 2.2049 7.4543-9.574-11.54-15.214-24.534-3.444-7.9342-15.37-19.868-12.599-12.608 0.42139 1.1042 1.6005 2.0077 2.6203 2.0077 2.3882 0 2.3465 1.0345-0.1424 3.5373-2.6191 2.6336-2.6691 5.3824-0.0583 3.2035 2.8593-2.3862 4.7169-0.50814 4.7169 4.7691 0 2.5628 1.1848 6.2916 2.6329 8.2862 1.4481 1.9946 3.566 8.1352 4.7063 13.646 1.1404 5.5106 2.6509 10.6 3.3567 11.31 2.5981 2.6126 1.3164 6.3287-2.7098 7.8569-2.8066 1.0653-3.9931 2.4102-3.9931 4.5262 0 2.1262-0.58651 2.7843-1.9966 2.2402-1.2961-0.50014-1.9965 0.03433-1.9965 1.5236 0 1.4893 0.70041 2.0238 1.9965 1.5236 1.2162-0.46929 1.9966-2e-3 1.9966 1.1952 0 2.9002-4.8787 2.3884-7.0581-0.74044-1.6648-2.3901-2.0812-2.4682-3.566-0.66922-0.9246 1.1203-3.5708 2.0369-5.8806 2.0369-2.3097 0-5.3809 0.81537-6.8249 1.812-3.0491 2.1044-13.647 3.7623-14.559 2.2777zm33.613-21.672c-0.33229-1.0024-0.93563-0.39571-1.4063 1.4141-0.57896 2.2263-0.40574 2.7488 0.58197 1.7556 0.77346-0.77776 1.1444-2.2042 0.82432-3.1698zm-71.593-1.2986c0-1.9242-2.3095-1.3728-3.1174 0.74425-0.49469 1.2963-0.10051 1.6927 1.1886 1.1952 1.0608-0.40933 1.9287-1.2821 1.9287-1.9395zm66.513-1.143c1.0769-0.68484 1.6118-1.5932 1.1888-2.0187-1.0485-1.0544-5.1433 0.62516-5.1433 2.1096 0 1.5255 1.4657 1.4918 3.9545-0.09095zm-67.655-7.023c-3.295-5.1745-3.7665-4.0467-0.75583 1.8078 1.1521 2.2403 2.4247 3.7413 2.8281 3.3357s-0.52914-2.7202-2.0723-5.1435zm73.018-2.9886c0-0.32462-0.59896-0.96246-1.331-1.4174-0.73206-0.45495-1.331-0.18935-1.331 0.59023s0.59896 1.4174 1.331 1.4174c0.73207 0 1.331-0.2656 1.331-0.59023zm-75.869-3.4251c0-0.73614-0.63431-1.3384-1.4096-1.3384s-1.0394 0.6023-0.58696 1.3384c0.45245 0.73615 1.0868 1.3384 1.4096 1.3384 0.32283 0 0.58695-0.6023 0.58695-1.3384zm7.4538-6.1568c-0.4737-1.2413-1.1608-1.9558-1.5268-1.5877-0.36604 0.36807-0.27794 1.6848 0.19576 2.9262s1.1608 1.9558 1.5268 1.5877c0.36604-0.36807 0.27794-1.6848-0.19576-2.9262zm-24.587-0.20076c1.6556-2.1228 1.6086-2.1702-0.50253-0.50534-2.2172 1.7485-2.9222 2.8476-1.8268 2.8476 0.2764 0 1.3246-1.054 2.3293-2.3423zm15.803-2.2408c0-1.6976-1.1783-4.5929-2.6185-6.434-1.4402-1.841-2.1889-3.8257-1.6638-4.4104 0.52507-0.58467 0.17342-0.60955-0.78144-0.05531-1.3988 0.81194-1.3341 1.6247 0.33275 4.1828 1.1379 1.7463 2.0689 5.0387 2.0689 7.3164 0 2.4201 0.55322 3.7976 1.331 3.3142 0.73206-0.45496 1.331-2.2162 1.331-3.9138zm96.112 0.65862c-0.23327-1.0589 0.38439-1.46 1.5536-1.0088 1.0674 0.4119 2.21 0.03403 2.5391-0.83962 0.38797-1.0301-1.1363-1.6546-4.336-1.7764-4.5492-0.17322-4.8858 0.06696-4.3136 3.0771 0.40955 2.1543 1.356 3.1018 2.7823 2.7853 1.1889-0.26388 1.9874-1.2708 1.7745-2.2375zm-92.687-0.98773c-0.46916-1.2294-0.2054-2.6377 0.5861-3.1296 0.97094-0.60341 0.80765-1.4214-0.50193-2.5143-1.3194-1.1011-2.2173-1.1704-2.8036-0.21646-0.47441 0.77188-0.1929 1.4034 0.62557 1.4034 0.81848 0 1.1002 0.63114 0.62612 1.4025-0.94058 1.5304 0.10488 5.2896 1.4711 5.2896 0.46733 0 0.46584-1.0059-3e-3 -2.2353zm105.96-2.07c-1.2127-1.2195-1.9578-1.1961-3.2388 0.1016-1.334 1.3514-1.2021 1.5087 0.66551 0.7937 1.4633-0.5602 2.3293-0.25794 2.3293 0.813 0 0.93758 0.40929 1.2931 0.90952 0.7901 0.50025-0.50303 0.20077-1.6273-0.66551-2.4984zm-3.6989-4.5436c0.58891-1.5432 0.25082-1.9359-1.1886-1.3804-1.1064 0.42693-2.0116 0.2939-2.0116-0.29563s2.2192-1.7568 4.9316-2.5938c4.1331-1.2755 5.3185-1.1699 7.3206 0.6521 2.6312 2.3944 3.3515 0.58548 0.79181-1.9884-2.2115-2.2238-7.2037-2.008-10.971 0.47426-2.0991 1.383-3.4482 1.6073-4.0248 0.66922-0.47703-0.77614-1.4765-1.4112-2.221-1.4112-1.4099 0 4.1913 7.8265 5.6942 7.9566 0.47073 0.04075 1.2262-0.89646 1.6789-2.0826zm-84.393-2.0166c0-0.73614-0.59896-0.96619-1.331-0.51124-0.73206 0.45496-1.331 1.4295-1.331 2.1656 0 0.73614 0.59896 0.96619 1.331 0.51124 0.73206-0.45496 1.331-1.4295 1.331-2.1656zm22.627-3.0121c0-1.3202-4-0.08081-4.5714 1.4165-0.54346 1.4241-0.12534 1.5101 1.9393 0.39905 1.4476-0.77907 2.6321-1.5961 2.6321-1.8155zm5.3241 0.49323c0-0.73614-0.59896-1.3384-1.331-1.3384-0.73206 0-1.331 0.6023-1.331 1.3384 0 0.73614 0.59896 1.3384 1.331 1.3384 0.73207 0 1.331-0.6023 1.331-1.3384zm-38.092-3.4156c0.45454-1.1911 0.2314-1.7284-0.5231-1.2594-0.72369 0.44975-1.3158 1.3845-1.3158 2.0772 0 1.9252 0.95404 1.501 1.8389-0.81772zm45.374-1.8622c1.1142-2.1666 1.5126-4.2583 0.88534-4.6481-1.6143-1.0033-2.7825 0.49589-1.9949 2.56 0.36551 0.95778 0.0248 2.139-0.75722 2.625-0.78197 0.48597-1.4218 1.4503-1.4218 2.143 0 2.3112 1.2425 1.2987 3.2885-2.6799zm-12.124 0.59325c-0.42138-1.1042-1.0016-2.0077-1.2893-2.0077s-0.5231 0.90344-0.5231 2.0077 0.58016 2.0077 1.2892 2.0077c0.70908 0 0.94449-0.90344 0.52311-2.0077zm50.693-0.78353c-0.42855-0.69729-1.3465-0.9152-2.04-0.48426-0.69343 0.43094-0.91014 1.354-0.48157 2.0513 0.42855 0.69729 1.3465 0.9152 2.04 0.48426 0.69343-0.43094 0.91013-1.354 0.48156-2.0513zm-9.9124-1.2241c0-1.6649-0.88056-2.6691-2.3293-2.6564-1.8422 0.01616-1.9457 0.26479-0.49498 1.1888 1.0089 0.64256 1.4227 1.8379 0.91972 2.6564-0.50302 0.81844-0.28029 1.4881 0.49498 1.4881s1.4096-1.2046 1.4096-2.6769zm-76.017-3.0115c-0.14575-0.92017 0.44074-3.1788 1.3033-5.0191 1.5466-3.2998 1.5584-3.2905 0.85173 0.66922-0.67761 3.7971-0.60695 3.8741 1.3004 1.4172 3.6793-4.7393 1.2314-7.5752-3.601-4.1716-1.6283 1.1469-4.4744 2.1035-6.3247 2.1259-3.1964 0.03865-3.2314 0.1178-0.70211 1.5863 1.4641 0.85011 3.4535 2.3375 4.4209 3.3054 2.2071 2.2082 3.0919 2.236 2.7515 0.08673zm39.837-1.673c0.83388-1.8404 2.4628-3.3461 3.6198-3.3461 1.157 0 1.7335-0.6023 1.281-1.3384-0.45243-0.73614-0.2071-1.3384 0.54519-1.3384s1.023-0.90344 0.60167-2.0077-0.15209-2.0077 0.59842-2.0077 2.312-0.36559 3.47-0.81242c2.794-1.0781 2.7706 2.5626-0.0442 6.8825-2.5478 3.91-1.5249 4.3171 1.9832 0.78943 1.3726-1.3803 3.2511-2.7628 4.1744-3.0723 1.3256-0.44433 1.2906-1.2538-0.16638-3.848-1.0148-1.8069-2.1601-3.5865-2.545-3.9545-0.38495-0.36807-2.7763-3.3495-5.3141-6.6253-3.0368-3.9199-3.8213-5.6501-2.2949-5.0611 3.593 1.3864 2.7146-0.83464-1.0187-2.5758-2.1624-1.0085-3.3172-1.068-3.3172-0.17072 0 0.83933-0.74817 0.75202-1.9174-0.22378-1.0546-0.8801-1.5895-2.4596-1.1886-3.51 0.40085-1.0504 0.11567-1.9098-0.63371-1.9098s-1.637 0.75287-1.9726 1.673c-0.48805 1.3384-0.96279 1.3384-2.3737 0-0.96999-0.92017-2.2428-1.673-2.8284-1.673-1.4077 0-0.7572 3.0652 0.93172 4.3906 0.73207 0.57447-0.4146 0.63489-2.5482 0.13428-3.3139-0.77757-3.7503-0.57251-2.9948 1.4072 0.48641 1.2746 0.88437 2.8756 0.88437 3.5578 0 1.3451 5.337-1.2875 7.0283-3.4669 0.57129-0.73615 0.6561 0.31787 0.18846 2.3423-0.53493 2.3157-0.30312 3.6807 0.62509 3.6807 0.81142 0 1.4753-1.2046 1.4753-2.6769 0-3.4906 1.5454-3.3865 4.9675 0.3346 3.1701 3.4471 3.7748 13.258 0.74509 12.088-0.96575-0.37266-1.7195 0.27934-1.7195 1.4873 0 1.183 0.65017 2.1508 1.4448 2.1508s-0.0616 2.7103-1.9028 6.023c-1.8412 3.3126-2.887 6.023-2.324 6.023 0.56303 0 1.706-1.5057 2.5398-3.3461zm41.504 2.0077c0-0.73615-0.7487-1.3808-1.6638-1.4325-0.91507-0.0518-0.46585-0.6117 0.99828-1.2444 2.5401-1.0976 2.5248-1.1546-0.33276-1.2444-2.8339-0.08904-4.0444 2.4196-2.1075 4.3674 1.3252 1.3326 3.1057 1.0768 3.1057-0.44614zm-57.9-2.6769c0.45244-0.73614 0.1883-1.3384-0.58696-1.3384s-1.4096 0.6023-1.4096 1.3384c0 0.73614 0.26413 1.3384 0.58696 1.3384 0.32282 0 0.95713-0.6023 1.4096-1.3384zm5.9896 0c0-0.73614-0.89844-1.3384-1.9965-1.3384-1.0981 0-1.9965 0.6023-1.9965 1.3384 0 0.73614 0.89844 1.3384 1.9965 1.3384 1.0981 0 1.9965-0.6023 1.9965-1.3384zm-41.262-2.0866c0-1.1477-0.59896-1.7144-1.331-1.2594-0.73206 0.45495-1.331 1.3939-1.331 2.0866 0 0.69269 0.59896 1.2594 1.331 1.2594 0.73206 0 1.331-0.93899 1.331-2.0866zm-11.279-3.0086c-0.4098-0.41208-1.4838-8.43e-4 -2.3867 0.91386-1.3048 1.3219-1.1519 1.4756 0.74511 0.74925 1.3127-0.50262 2.0514-1.251 1.6416-1.6631zm36.529-8.9171c1.6982-1.8177 3.692-2.9292 4.4308-2.4701 0.76317 0.47429 0.93308 0.16748 0.39349-0.71047-0.52236-0.84988-0.31541-1.5452 0.45985-1.5452 0.77527 0 1.4096-0.90344 1.4096-2.0077 0-1.1042 0.89844-2.0077 1.9965-2.0077s1.9965-0.90344 1.9965-2.0077c0-1.1042-0.16849-2.0077-0.37442-2.0077-0.20593 0-3.9307 3.6138-8.2772 8.0306s-7.2773 8.0306-6.5127 8.0306c0.76456 0 2.7795-1.4872 4.4777-3.3048zm28.599-3.2948c0.42117-0.68527 0.2198-1.5853-0.44749-2-0.66729-0.41471-1.5567 0.14597-1.9765 1.2459-0.82749 2.1684 1.1723 2.7905 2.424 0.75401zm-7.6188 81.386c0.90288-0.91471 1.9769-1.3259 2.3867-0.91386 0.40981 0.41209-0.32891 1.1605-1.6416 1.6631-1.897 0.72635-2.0499 0.5726-0.7451-0.74926zm-21.718-4.3269c-0.46158-1.2096-1.6736-2.1992-2.6934-2.1992s-1.8541-0.6023-1.8541-1.3384c0-0.73614 0.50613-1.3384 1.1247-1.3384 1.7416 0 6.0638 5.2635 5.1099 6.2227-0.46632 0.46892-1.2255-0.13706-1.6871-1.3466zm9.4283 0.47765c0.45245-0.73614 1.0868-1.3384 1.4096-1.3384 0.32283 0 0.58695 0.6023 0.58695 1.3384 0 0.73615-0.63431 1.3384-1.4096 1.3384s-1.0394-0.6023-0.58696-1.3384zm80.527-4.0153c0-0.73614 0.59897-1.3384 1.331-1.3384 0.73206 0 1.331 0.6023 1.331 1.3384 0 0.73615-0.59896 1.3384-1.331 1.3384-0.73207 0-1.331-0.6023-1.331-1.3384zm-80.384-2.4446c-0.37392-0.60839-0.35345-2.3613 0.04552-3.8954 0.66686-2.5643 0.92133-2.6205 3.1552-0.69715 2.0375 1.7543 2.1403 2.3833 0.63653 3.8954-2.0752 2.0868-2.892 2.2352-3.8373 0.69714zm69.05-1.5707c-2.2895-3.5659-4.3649-10.719-3.3016-11.38 1.4289-0.888 5.5966 8.2861 5.042 11.099-0.39092 1.9824-0.62426 2.0201-1.7405 0.28162zm9.3376 0c0.45245-0.73614 1.0868-1.3384 1.4096-1.3384s0.58695 0.6023 0.58695 1.3384c0 0.73615-0.63431 1.3384-1.4096 1.3384-0.77528 0-1.0394-0.6023-0.58697-1.3384zm-74.637-5.1922c0.39782-0.64728 1.8858-1.4826 3.3065-1.8562 1.8171-0.47783 2.3731-0.1288 1.8749 1.1769-0.38958 1.0209-1.8775 1.8562-3.3065 1.8562-1.429 0-2.2727-0.52959-1.8749-1.1769zm13.41-3.4926c4.2675-1.8972 5.459-1.7309 4.0478 0.56515-0.48253 0.78512-2.4891 1.3786-4.4591 1.3188l-3.5818-0.1087zm-14.641-0.68423c-0.45244-0.73614 0.11117-1.3384 1.2525-1.3384 1.1413 0 2.0751 0.6023 2.0751 1.3384 0 0.73614-0.5636 1.3384-1.2525 1.3384-0.68886 0-1.6226-0.6023-2.0751-1.3384zm-81.838-2.3423c0.01118-0.5521 0.56452-1.8685 1.2296-2.9254 0.99828-1.5864 1.5726-1.6183 3.2925-0.18296 1.1458 0.95625 1.7551 2.2727 1.3539 2.9254-0.88432 1.4388-5.9047 1.5951-5.876 0.18296zm137.41-0.99825c-0.91508-1.0451-1.6638-2.2268-1.6638-2.626 0-1.1532 3.2287-0.19184 4.3055 1.2819 2.4502 3.3536 0.14482 4.5265-2.6417 1.344zm10.315-1.9342c0-0.69269 0.59211-1.6274 1.3158-2.0772 0.7545-0.4689 0.97764 0.06836 0.5231 1.2594-0.88484 2.3187-1.8389 2.743-1.8389 0.81772zm-55.865-1.3651c-1.0769-0.68484-1.6118-1.5932-1.1888-2.0187 1.0485-1.0543 5.1433 0.62517 5.1433 2.1096 0 1.5255-1.4657 1.4918-3.9545-0.09095zm12.802-7.4439c0.63036-1.6518 0.43423-2.1133-0.61979-1.4582-1.0452 0.64958-1.2538 0.20312-0.64744-1.3858 0.5548-1.4538 1.0977-1.7312 1.4295-0.73039 0.29421 0.88754 1.0827 1.2733 1.7523 0.85717 2.0387-1.267 1.3562 1.6347-0.80966 3.4422-1.7135 1.43-1.8844 1.3179-1.1048-0.7249zm28.089-2.6949c-2.438-3.2783-3.0351-5.9747-1.3232-5.9747 1.1128 0 4.8923 7.9108 4.1306 8.6456-0.26299 0.2537-1.5263-0.9482-2.8075-2.6709zm-18.302-5.9747c0-0.73614 0.63431-1.3384 1.4096-1.3384s1.0394 0.6023 0.58696 1.3384c-0.45244 0.73615-1.0868 1.3384-1.4096 1.3384-0.32283 0-0.58697-0.6023-0.58697-1.3384zm12-2.3423c0.0483-2.3794 2.3248-4.6099 3.2194-3.1544 0.50075 0.81472 0.54027 2.0836 0.0879 2.8198-0.95953 1.5612-3.337 1.8017-3.3072 0.3346z"/>
	<path fill-opacity="1" d="m112.08 103.92c-1.3696-0.86567-1.2798-1.4644 0.43421-2.8949 1.6922-1.4122 2.381-1.4454 3.1753-0.15311 0.77463 1.2603 1.4182 1.1609 2.7236-0.42067 0.9401-1.1391 2.4723-2.071 3.405-2.071 1.8833 0 9.9576-8.7201 9.9576-10.754 0-1.6292-2.7251-1.6341-5.2795-9e-3 -1.2374 0.78695-2.5773 0.71945-3.6603-0.18437-1.687-1.4079-1.9874-1.0176-2.2457 2.9173-0.0725 1.1042-0.90154 2.0077-1.8424 2.0077s-2.2551 0.886-2.9207 1.9689c-0.66556 1.0829-1.6494 1.5272-2.1862 0.98736-0.53685-0.53984 0.24481-2.6421 1.737-4.6716 1.4922-2.0296 3.1372-5.0336 3.6555-6.6757 0.51829-1.6421 1.6507-3.0039 2.5164-3.0263 0.86575-0.02238 0.5259-0.6546-0.75522-1.4049-2.6787-1.5689-3.138-4.1583-0.6655-3.7521 0.91507 0.15032 3.3988-0.44426 5.5194-1.3213 3.407-1.4091 4.1748-1.2502 6.5985 1.3659 1.8455 1.992 2.2171 3.1367 1.1357 3.4992-3.1356 1.051-1.5502 3.1774 2.0532 2.7537 3.2607-0.3834 3.6327-0.0269 3.4077 3.2653-0.21987 3.2164-4e-3 3.4458 1.6638 1.7686 2.7426-2.7579 2.3868-4.4235-1.4906-6.9782-2.6344-1.7357-3.0117-2.5301-1.6638-3.5032 1.2551-0.90608 1.0599-1.0355-0.69731-0.46205-3.4602 1.1291-2.1446-2.2044 1.5284-3.8727 1.5998-0.72666 2.9087-1.8213 2.9087-2.4324 0-1.4293-5.7162 0.34007-6.8536 2.1214-0.47517 0.74419-1.8608 0.96841-3.0792 0.49828-1.2184-0.47014-1.8364-1.4712-1.3734-2.2245 0.46302-0.75335 1.3454-1.0568 1.9608-0.67433 2.5126 1.5615 5.3522-1.0775 5.3522-4.9741 0-3.4627-0.2879-3.7957-2.027-2.3444-1.7206 1.4359-1.8862 1.3089-1.0954-0.83994 0.51241-1.3924 1.5206-2.928 2.2404-3.4124s1.3908-2.0008 1.4911-3.3696c0.10022-1.3688 0.64186-3.2364 1.2035-4.1503 0.56164-0.91382 0.64599-2.8502 0.18743-4.303-0.78579-2.4896-1.0228-2.517-4.1205-0.47594-1.8077 1.1911-3.6049 1.8457-3.9937 1.4547-1.245-1.2519 7.1083-4.7036 8.8154-3.6427 1.1044 0.68638 1.3474 2.6041 0.74147 5.852-0.55902 2.9964-0.38321 4.8311 0.46299 4.8311 2.2203 0 6.5856 9.9109 7.1722 16.283 0.29908 3.2492 1.5766 7.9158 2.8388 10.37 1.9994 3.888 2.0477 4.7116 0.37504 6.3936-1.056 1.0619-3.0565 2.1036-4.4456 2.3149-1.742 0.26498-2.3964 1.2753-2.1091 3.2566 0.27413 1.891-0.29436 2.8725-1.6638 2.8725-1.1441 0-2.0802 0.90344-2.0802 2.0077s0.89845 2.0077 1.9965 2.0077c1.0981 0 1.9966 0.60229 1.9966 1.3384 0 2.3672-3.7808 1.4265-5.7753-1.437-1.5127-2.1717-2.47-2.4838-4.4013-1.435-2.1432 1.1639-5.5148 2.2697-18.44 6.048-1.4641 0.42798-3.4391 0.28702-4.3888-0.31327zm21.596-11.05c-0.45984-0.74818-0.94558-1.1697-1.0794-0.93667-0.13384 0.23301-1.122 1.5763-2.196 2.985-1.8408 2.4147-1.779 2.4684 1.0794 0.93667 1.6676-0.8936 2.6559-2.2369 2.196-2.985zm8.0822-26.612c0.45245-0.73614 0.18831-1.3384-0.58695-1.3384-0.77527 0-1.4096 0.6023-1.4096 1.3384 0 0.73614 0.26413 1.3384 0.58696 1.3384 0.32282 0 0.95714-0.6023 1.4096-1.3384zm-65.689 27.422c-3.7175-2.137-7.8558-3.33-11.551-3.33-5.4766 0-9.0261-1.9217-10.224-5.5351-0.36153-1.0906-1.6086-0.85015-4.0984 0.79032-3.2466 2.1391-3.655 2.1581-4.4002 0.20526-0.45181-1.184-2.2942-2.1527-4.0941-2.1527-3.5838 0-8.5278-2.2351-10.065-4.5503-0.55529-0.83626-1.0334-0.0267-1.1064 1.8734l-0.12848 3.3461-1.6714-3.8014c-0.91927-2.0908-2.3508-4.2237-3.1812-4.7397-1.0176-0.63241-0.43749-2.1011 1.7795-4.5054 3.667-3.9767 4.3547-7.0807 1.2927-5.8348-1.0981 0.44683-2.8616 1.1651-3.9189 1.5962-1.3352 0.54439-1.8593-0.05812-1.7159-1.9727 0.26822-3.5805 3.2968-4.6994 5.8288-2.1533 2.508 2.522 5.7956 2.5984 5.7956 0.1348 0-1.0279 2.0302-3.6614 4.5115-5.8522 2.4813-2.1907 5.9684-6.9209 7.749-10.512 3.5638-7.1862 7.6913-9.4752 7.7253-4.2842 0.01647 2.5103 0.27296 2.7227 1.331 1.102 1.1609-1.7782 1.4564-1.7795 2.5862-0.01124 0.96404 1.5088 1.6508 1.6191 2.8119 0.45158 1.1611-1.1676 0.94521-2.3329-0.88387-4.7713-3.3287-4.4375-7.428-6.1755-11.23-4.7613-3.072 1.1427-3.0835 1.116-0.67084-1.5648 3.0972-3.4415 2.0643-3.446-4.0059-0.01757-2.6388 1.4904-4.442 2.1308-4.0071 1.4232 0.43493-0.70764 2.6803-2.2345 4.9896-3.3929 3.9688-1.9909 4.3631-1.9512 7.1957 0.72469 1.6482 1.5571 3.5889 2.463 4.3127 2.0132 0.72374-0.44977 1.6209-0.06113 1.9937 0.8636 0.53172 1.3189 0.94822 1.2941 1.9318-0.11503 1.0491-1.5029 1.7591-1.5029 4.3458 0 4.9363 2.8681 9.1419 7.8686 8.354 9.9332-0.3991 1.0459 2e-3 1.9015 0.89209 1.9015 1.0377 0 1.3336-1.1384 0.82519-3.1753-0.43614-1.7474 0.10596-4.9864 1.2055-7.2027 1.0989-2.2151 1.6442-4.9547 1.2117-6.0881-0.68434-1.7933-1.3746-1.7116-5.3206 0.62956-3.7021 2.1965-5.2101 2.429-8.2169 1.2668-2.6062-1.0073-2.867-1.3355-0.89224-1.1229 1.5347 0.16523 3.8958-0.603 5.2468-1.7072 1.4102-1.1525 2.0308-1.295 1.457-0.33454-0.54977 0.92018-0.36526 1.673 0.41001 1.673s1.4096-0.90344 1.4096-2.0077 0.99377-2.0077 2.2084-2.0077c1.2146 0 8.4343-6.091 16.044-13.536 7.6094-7.4446 14.212-13.157 14.673-12.693 0.46084 0.4634-0.55234 1.8867-2.2515 3.1628-5.4328 4.0802-21.357 20.246-21.357 21.681 0 2.307 1.3364 1.5835 4.8659-2.6343 1.8496-2.2104 3.9595-3.6482 4.6886-3.195 0.86266 0.53611 0.82028 1.3321-0.12132 2.2789-2.3945 2.4078-1.6298 3.7341 1.1474 1.99 1.7104-1.0741 2.1721-2.1409 1.355-3.1309-0.80324-0.97323-0.40447-2.4057 1.1331-4.0705 1.3049-1.4128 2.8842-3.7734 3.5096-5.2456 1.0211-2.4038 1.1939-2.438 1.6942-0.3346 0.68765 2.891 0.95001 2.8935 5.2656 0.04999 3.4654-2.2832 3.4726-2.2802 1.849 0.77051-1.4972 2.813-1.3777 3.0272 1.4655 2.6268 1.7026-0.23974 3.5562-1.0382 4.1191-1.7743 1.109-1.4502 5.0431 2.8189 4.861 5.2749-0.0578 0.77947-0.40719 0.66435-0.77644-0.25582-0.87519-2.181-4.5436-2.181-4.1098 0 0.18302 0.92017 1.4766 2.1409 2.8746 2.7128 2.4331 0.99528 2.4101 1.1633-0.53821 3.9253-2.6923 2.5222-2.802 2.9836-0.87119 3.6647 1.8949 0.66838 1.5422 1.7971-2.4801 7.9387-2.579 3.9377-4.5287 8.1448-4.3328 9.3491 0.19593 1.2043-0.37458 2.045-1.2678 1.8683-0.89323-0.1767-2.262 0.87731-3.0416 2.3423-1.8403 3.4577 0.2358 3.4299 3.3631-0.04497 1.6626-1.8473 2.8708-2.2729 3.8001-1.3384 1.7452 1.7549 4.8232 1.7751 4.8232 0.03162 0-0.73614-0.83437-1.3384-1.8541-1.3384-2.8327 0-3.8355-4.2214-1.549-6.5206 1.8044-1.8145 1.9591-1.7181 1.4564 0.90685-0.30936 1.6153 0.077 2.9369 0.85851 2.9369 0.84608 0 1.1197-1.5146 0.67638-3.7437-0.40953-2.059-0.31323-4.4456 0.214-5.3034 1.3166-2.1422 6.8524-0.53918 5.9852 1.7331-0.37936 0.9941-1.6711 1.4509-2.9027 1.0265-1.7601-0.60657-1.7009-0.35838 0.28622 1.1998 2.3912 1.8751 2.4007 2.1252 0.20762 5.4909-1.2638 1.9395-2.0276 4.2985-1.6974 5.2422 0.54771 1.5654 5.3025-7.1933 5.6077-10.33 0.37246-3.8272 6.4238-8.6998 10.804-8.6998 1.4802 0 1.8855-0.71134 1.2918-2.2672-0.75833-1.9872-0.52929-1.9615 1.8542 0.20744 1.4956 1.3611 2.7193 2.9546 2.7193 3.5412 0 0.58661 2.1882 3.2036 4.8628 5.8155 6.7436 6.5858 3.6691 5.9951-3.4265-0.65828-3.1716-2.974-5.9665-5.2063-6.2107-4.9607-0.92636 0.9315 1.135 6.2908 2.1718 5.6465 1.9002-1.1809 2.396 1.3078 0.59401 2.9813-1.3758 1.2777-1.8994 0.92456-2.5614-1.7278-0.45766-1.8336-1.4233-2.9664-2.1458-2.5173-0.72254 0.44904-0.93697 1.4294-0.47652 2.1786 0.82089 1.3356-6.5436 9.0302-12.889 13.467-2.6753 1.8705-2.8134 2.2573-0.82688 2.3158 1.3117 0.03865 3.6708-1.1344 5.2423-2.6067 1.5716-1.4723 3.6429-2.6769 4.6029-2.6769 2.1656 0 2.3026 3.5111 0.18835 4.8251-1.062 0.66001-1.2734 0.2239-0.66461-1.3713 0.59298-1.5539 0.33382-2.1545-0.77208-1.7894-0.91558 0.30232-1.8578 2.1971-2.0939 4.2106-0.34788 2.9674-0.78207 3.3664-2.2922 2.1061-1.442-1.2034-2.344-1.0711-3.9917 0.58579-1.1708 1.1773-2.8346 2.2323-3.6974 2.3444-3.3463 0.43487-4.3281 0.65688-7.1753 1.6226-1.6339 0.55419-4.1533 0.3482-5.6603-0.4628-2.1885-1.1778-3.2774-0.9353-5.609 1.249-1.5913 1.4908-3.9856 3.0591-5.3207 3.4852-1.3351 0.42609-2.4274 1.3364-2.4274 2.023 0 0.68654-1.4058 1.2482-3.1239 1.2482-4.6931 0-8.8686 4.2263-8.0343 8.1318 0.5977 2.7979 0.48812 2.9222-0.79557 0.90259-2.3197-3.6496-3.6168-2.7669-2.9501 2.0077 0.33405 2.3924 2.6772 7.2108 5.2069 10.707 2.5298 3.4967 4.3988 6.3503 4.1535 6.3414-0.24536-9e-3 -3.0528-1.5146-6.2388-3.3461zm-7.4066-10.022c1.0371 0 1.8856-0.6023 1.8856-1.3384 0-0.73614-0.64175-1.3384-1.4261-1.3384-2.0549 0-5.268 3.53-4.1951 4.6088 0.49894 0.50171 1.1193 0.27227 1.3786-0.50988 0.25927-0.78215 1.3199-1.4221 2.357-1.4221zm1.1153-7.0268c-0.5223-1.6563-2.2522-5.1195-3.8442-7.696-2.0525-3.3218-2.6153-5.6579-1.9348-8.0306 0.52787-1.8404 1.0195-2.5932 1.0924-1.673 0.07297 0.92018 0.772 1.673 1.5534 1.673 0.84291 0 1.0556-1.1569 0.52291-2.8445-0.60416-1.9141-0.41583-2.5449 0.57582-1.9287 2.0744 1.2892 1.7489-0.51963-1.0408-5.7848-2.1977-4.1478-2.4664-4.2907-3.1472-1.673-0.85693 3.2951-3.6556 3.8887-3.6556 0.77534 0-1.1477-0.51545-1.7663-1.1454-1.3748-2.0593 1.2798 3.11 18.429 8.2043 27.219 2.9297 5.0546 4.1778 5.6472 2.819 1.3384zm-0.62176-10.487c-0.81714-1.5353-1.7507-2.525-2.0747-2.1992-0.93158 0.93676 0.95697 4.9907 2.325 4.9907 0.67993 0 0.56741-1.2552-0.25025-2.7915zm-16.577-8.2208c1.755-1.5246 2.0503-2.3226 0.86678-2.3423-2.0973-0.03473-9.5185 7.5889-9.5185 9.7783 0 0.82187 1.3477 5e-3 2.9948-1.8146 1.6471-1.8199 4.1927-4.3495 5.6569-5.6214zm1.9965 5.5796c0-1.5157-0.59896-2.3836-1.331-1.9287-0.73206 0.45496-1.331 1.6951-1.331 2.7559s0.59896 1.9287 1.331 1.9287c0.73207 0 1.331-1.2401 1.331-2.7559zm19.02-1.2608c-0.38269-1.4715-1.2249-2.6755-1.8716-2.6755-1.3722 0-1.5023 1.6023-0.3708 4.5674 1.138 2.982 3.0831 1.341 2.2424-1.8918zm-31.664-1.3371c0.45245-0.73615-0.11117-1.3384-1.2525-1.3384-1.1413 0-2.0751 0.6023-2.0751 1.3384 0 0.73614 0.56361 1.3384 1.2525 1.3384 0.68887 0 1.6227-0.6023 2.0751-1.3384zm53.06-4.6768c-0.41976-1.1-1.3634-1.627-2.0969-1.1711-0.82005 0.50964-0.63819 1.272 0.47223 1.9795 2.4236 1.5442 2.5066 1.5029 1.6246-0.80833zm-43.743-4.6922c0.45245-0.73614 0.18831-1.3384-0.58695-1.3384-0.77528 0-1.4096 0.6023-1.4096 1.3384 0 0.73614 0.26413 1.3384 0.58696 1.3384s0.95714-0.6023 1.4096-1.3384zm34.465-0.78106c0.49744-1.3035 0.19996-1.9154-0.77268-1.5894-1.9897 0.66691-3.0852 3.7089-1.3357 3.7089 0.71474 0 1.6635-0.95378 2.1084-2.1195zm-2.805-5.0354c-0.86177-1.4021-2.9943 1.7014-3.0228 4.3992-0.01438 1.3625 0.53121 1.1703 1.8581-0.65445 1.0332-1.4208 1.5573-3.106 1.1646-3.7448zm-27.667 1.8012c0.45245-0.73614 0.18831-1.3384-0.58695-1.3384-0.77528 0-1.4096 0.6023-1.4096 1.3384 0 0.73614 0.26413 1.3384 0.58696 1.3384 0.32283 0 0.95714-0.6023 1.4096-1.3384zm35.888-9.45c-0.93503-1.5213-4.6088-1.6838-4.6088-0.20382 0 0.57949 1.2109 1.1453 2.6908 1.2574 1.48 0.11211 2.343-0.36202 1.918-1.0536zm14.026-1.1142c0-1.3121-3.0114-2.7423-7.6534-3.635-2.113-0.40632-2.9948 0.06515-2.9948 1.6011 0 1.3641 0.72958 1.8955 1.9539 1.4231 1.0746-0.41468 2.3079-0.17797 2.7406 0.52602 0.99398 1.6172 5.9537 1.6878 5.9537 0.08472zm-18.634-6.8354c0-0.73614-0.93379-1.3384-2.0751-1.3384-1.1413 0-1.7049 0.6023-1.2525 1.3384 0.45245 0.73614 1.3862 1.3384 2.0751 1.3384 0.68887 0 1.2525-0.6023 1.2525-1.3384zm-4.6586 61.568c-0.45244-0.73614-0.1883-1.3384 0.58696-1.3384s1.4096 0.6023 1.4096 1.3384c0 0.73615-0.26413 1.3384-0.58696 1.3384-0.32282 0-0.95713-0.6023-1.4096-1.3384zm13.614-3.0711c-0.33054-0.88738-0.22759-2.6652 0.22878-3.9507 0.78763-2.2186 0.90415-2.2175 2.2951 0.02209 1.0948 1.7628 1.037 2.7617-0.22878 3.9507-1.3095 1.2301-1.8305 1.225-2.2951-0.02208zm-19.037-2.4432c-0.30336-0.49358 0.3814-1.2574 1.5217-1.6974 1.1595-0.44742 1.6521-1.4852 1.1177-2.3547-0.59249-0.96401-0.37442-1.1935 0.574-0.60412 0.84124 0.5228 2.15 2.1164 2.9084 3.5413 1.2114 2.2761 0.95692 2.5556-2.0957 2.3016-1.911-0.15904-3.7227-0.69299-4.0261-1.1866zm86.837 0.60666c-0.48805-0.49075-0.88736-2.5988-0.88736-4.6845s-0.63431-3.7922-1.4096-3.7922-0.98654-0.68828-0.46952-1.5295c0.9743-1.5852 3.3506 2.0678 5.1305 7.8871 0.87425 2.8583-0.44921 4.0447-2.364 2.1192zm6.5805-3.8892c-0.44173-1.1575-0.31642-3.115 0.27848-4.3499 1.3267-2.754 1.2323-9.6941-0.16184-11.9-0.60411-0.95595 0.0888-2.7457 1.6842-4.3499 3.3669-3.3857 3.5066-6.741 0.28055-6.741-2.5854 0-8.2182 5.2291-8.2182 7.6293 0 0.78858-0.82607 3.0349-1.8357 4.9918l-1.8357 3.558-3.3226-5.7473c-4.9583-8.5768-10.309-19.526-10.309-21.095 0-0.76061 0.72072-1.2324 1.6016-1.0483 2.1862 0.45674 2.1634-4.8399-0.0247-5.7365-1.2687-0.51987-0.90855-1.4411 1.3081-3.3461 1.8332-1.5755 2.3947-1.7614 1.4014-0.46404-1.346 1.7581-1.2731 2.4853 0.38785 3.8714 2.507 2.0922 3.5221 1.2136 3.78-3.2714 0.10847-1.8876 0.41717-3.4325 0.68585-3.433 0.9701-2e-3 10.502 10.402 11.053 12.064 0.43673 1.3175 1.2084 1.3566 3.4082 0.17273 1.564-0.8417 4.2307-1.476 5.926-1.4097 2.3336 0.09135 1.9507 0.44582-1.5763 1.4591-2.5622 0.7361-5.3786 1.9361-6.2585 2.6667-0.87995 0.73059-2.9763 0.90264-4.6586 0.38232l-3.0587-0.94605 3.3276 3.8469c1.8302 2.1158 3.5099 4.1307 3.7327 4.4774 0.70344 1.0947 2.7788-3.1274 2.089-4.2498-0.36177-0.58863 1.013-1.709 3.055-2.4897 2.6436-1.0107 3.8512-1.0018 4.1934 0.03062 0.70431 2.1247 8.2264 5.806 8.2264 4.026 0-0.79848 0.60355-1.0767 1.3412-0.61826 0.82746 0.51425 0.54977 1.6294-0.72494 2.9112-3.0904 3.1077-1.6372 5.113 3.7053 5.113 6.2547 0 7.597 1.4086 1.498 1.572-2.5924 0.06947-5.3593 0.77582-6.1488 1.5697-2.0577 2.0692 5.1888 4.6172 10.645 3.7428 2.3792-0.38129 4.3258-0.20257 4.3258 0.39714 0 2.3877-3.6298 3.6778-9.4574 3.3614-8.4865-0.46085-11.523 1.6633-4.0868 2.859 4.2141 0.67761 5.5106 1.4222 4.9651 2.8514-0.40599 1.0639-0.74735 2.3368-0.75855 2.8287-0.0107 0.4919-0.51725 0.10657-1.1245-0.85629-1.5911-2.5227-6.9928-0.79544-12.056 3.8552-4.8613 4.4648-6.1485 4.7854-7.2825 1.8138zm-9.9039-21.854c0.86874-1.3988 2.2939-2.2677 3.1671-1.9307 0.87316 0.33692 1.9455-0.32547 2.383-1.472 0.64873-1.7-0.32815-2.0846-5.2948-2.0846-5.0067 0-5.9465 0.37669-5.2823 2.1171 0.44437 1.1644 0.80792 2.9713 0.80792 4.0153 0 2.707 2.3614 2.346 4.219-0.64514zm22.402-7.4949c-0.91134-1.1042-2.2559-2.0077-2.988-2.0077-0.74248 0-0.59834 0.88773 0.32595 2.0077 0.91135 1.1042 2.256 2.0077 2.988 2.0077 0.74248 0 0.59835-0.88772-0.32596-2.0077zm-28.617-0.66921c-0.45244-0.73614-0.18832-1.3384 0.58696-1.3384 0.77526 0 1.4096-0.67605 1.4096-1.5023 0-1.038-0.61711-0.98731-1.9965 0.16388-2.3184 1.9348-2.6226 4.0153-0.58696 4.0153 0.77527 0 1.0394-0.6023 0.58696-1.3384zm5.3241-10.484c0-2.4208-2.6052-1.9788-3.1219 0.52959-0.28748 1.3956 0.21147 2.0075 1.331 1.6322 0.98499-0.33016 1.7909-1.303 1.7909-2.1618zm3.3276-2.8999c0-0.73614-0.59896-1.3384-1.331-1.3384-0.73207 0-1.331 0.6023-1.331 1.3384 0 0.73614 0.59896 1.3384 1.331 1.3384 0.73206 0 1.331-0.6023 1.331-1.3384zm-142.42 40.965c0-1.0254 0.89844-2.2111 1.9965-2.6349 1.358-0.52403 1.9965 0.07228 1.9965 1.8645 0 1.4498-0.89796 2.6349-1.9965 2.6349-1.0981 0-1.9965-0.83901-1.9965-1.8645zm-3.47-5.6064c0.44436-1.1644 0.80792-2.4428 0.80792-2.8408s0.89844 0.0262 1.9965 0.94257c2.8144 2.3487 2.4791 4.0153-0.80792 4.0153-2.0105 0-2.5757-0.5994-1.9965-2.1171zm137.31 3.1e-5c-1.4199-1.044-2.0179-1.889-1.3289-1.8777 1.8398 0.03012 5.2721 2.4068 4.5396 3.1434-0.34599 0.34791-1.7908-0.22164-3.2107-1.2657zm-44.915-4.151c0.96083-0.38663 2.1088-0.33908 2.5511 0.10567s-0.34385 0.76109-1.747 0.70297c-1.5506-0.06424-1.866-0.38137-0.80415-0.80863zm93.421-3.101c0-0.73614 0.89844-1.3384 1.9965-1.3384s1.9965 0.6023 1.9965 1.3384c0 0.73615-0.89844 1.3384-1.9965 1.3384s-1.9965-0.6023-1.9965-1.3384zm-194.18-6.4794c1.7459-1.3553 4.5339-2.8077 6.1955-3.2277l3.0212-0.76364-3.0212 3.2046c-1.6617 1.7625-4.4497 3.215-6.1955 3.2277l-3.1743 0.02309zm141.31 0.79105c-1.9955-2.5945-3.2507-5.0191-2.5984-5.0191 0.32504 0 1.5721 1.5057 2.7713 3.3461 2.2439 3.4437 2.1189 4.6529-0.1729 1.673zm53.685 0.57679c-0.37057-0.60294 1.0915-0.83572 3.249-0.51731 2.1575 0.31842 3.9228 0.81173 3.9228 1.0963 0 1.0199-6.5123 0.49415-7.1718-0.57895zm-34.622-1.364c-0.42315-0.68848 0.0692-1.9516 1.094-2.8069 1.102-0.91964 2.1778-1.0436 2.6327-0.30331 0.42315 0.68847-0.0692 1.9516-1.094 2.8068-1.102 0.91964-2.1778 1.0436-2.6327 0.30332zm-138.88-3.0858c-1.1424-1.1487 0.19413-3.5152 5.3551-9.4819 6.0584-7.0042 11.607-11.719 11.607-9.8628 0 0.34854-1.7969 2.612-3.9931 5.0299s-3.9931 5.3928-3.9931 6.6109c0 1.2181-0.89844 2.9645-1.9965 3.8809-1.0981 0.91641-1.9965 2.4959-1.9965 3.51 0 2.2367-2.8894 2.4182-4.983 0.31301zm163.38-2.4845c-1.1996-0.77958-1.3638-1.3056-0.41131-1.3179 0.87187-0.01124 1.9554 0.5818 2.4078 1.3179 1.0213 1.6617 0.56052 1.6617-1.9965 0zm-172.37-2.6769c1.325-1.4723 2.7086-2.6769 3.0746-2.6769 0.36604 0-0.41858 1.2046-1.7436 2.6769-1.325 1.4723-2.7086 2.6769-3.0746 2.6769-0.36602 0 0.4186-1.2046 1.7436-2.6769zm123.12-1.3384c0-0.73614 0.63432-1.3384 1.4096-1.3384s1.0394 0.6023 0.58695 1.3384c-0.45243 0.73614-1.0868 1.3384-1.4096 1.3384s-0.58696-0.6023-0.58696-1.3384zm-117.13-4.5206c0-0.27793 1.0482-1.3319 2.3293-2.3423 2.1111-1.6648 2.1582-1.6175 0.50254 0.50534-1.7388 2.2295-2.8318 2.9385-2.8318 1.8369zm93.343-15.45c-1.515-0.94151-1.5132-1.2373 0.0112-1.85 1.4879-0.59811 1.4552-0.9848-0.18215-2.1492-1.1774-0.83731-1.3586-1.4283-0.44162-1.4403 0.85521-0.01124 2.5088-0.38854 3.6745-0.8384 1.5921-0.61433 2.0122-0.11015 1.688 2.0258-0.58402 3.8481-2.5574 5.6147-4.7499 4.2521zm9.1462-6.1292c-1.3571-1.6443-1.2661-2.0077 0.50253-2.0077 1.1877 0 2.1595 0.90344 2.1595 2.0077s-0.22614 2.0077-0.50253 2.0077c-0.2764 0-1.2482-0.90344-2.1595-2.0077zm-4.9536-6.957c-1.1342-1.7406-1.6794-3.5496-1.2117-4.02 0.46777-0.47036-0.0979-2.3107-1.2571-4.0897-1.1592-1.7789-1.8607-3.4827-1.5589-3.7861 0.45093-0.45344 6.1169 7.7639 9.3848 13.611 1.6455 2.9441-3.3668 1.3397-5.3571-1.7148zm-15.012-8.435c0-0.73615 0.59897-1.3384 1.331-1.3384s1.331 0.6023 1.331 1.3384c0 0.73614-0.59896 1.3384-1.331 1.3384s-1.331-0.6023-1.331-1.3384zm7.362-2.6097c-0.48992-0.79713-1.4495-1.1021-2.1323-0.67772-0.68285 0.42437-1.8394-0.80961-2.5701-2.7422-1.8662-4.9358-1.7994-4.9455 2.7243-0.39665 2.229 2.2414 3.7864 4.3432 3.4608 4.6706-0.32558 0.32739-0.9928-0.056917-1.4827-0.85406zm-9.3585-4.0825c-0.45244-0.73614-0.18831-1.3384 0.58696-1.3384 0.77526 0 1.4096 0.6023 1.4096 1.3384s-0.26413 1.3384-0.58696 1.3384-0.95714-0.6023-1.4096-1.3384z"/>
</svg>
