<svg version="1.1" viewBox="0 0 32 32" xmlns="http://www.w3.org/2000/svg">
	<path fill="rgb(144, 35, 41)" class="icone" id="masse" d="m28.774 0.17548-11.365 4.8067-0.52034 4.8326 1.6526 1.4206 0.01221 0.01221-9.7187 9.74-0.47457-0.47457a1.1856 1.2575 45 0 0-1.7274 0.05189 1.1856 1.2575 45 0 0-0.05035 1.7258l0.47762 0.47762-4.4679 4.4771-0.4822-0.4822a1.1856 1.2575 45 0 0-1.7274 0.05189 1.1856 1.2575 45 0 0-0.05035 1.7258l3.1251 3.1251a1.1856 1.2575 45 0 0 1.7274-0.04883 1.1856 1.2575 45 0 0 0.05035-1.7289l-0.46388-0.46388 4.4679-4.4771 0.46846 0.46846a1.1856 1.2575 45 0 0 1.7274-0.04883 1.1856 1.2575 45 0 0 0.05035-1.7289l-0.47151-0.47151 9.7172-9.7385 1.4649 1.5504 4.9959-0.56154 4.7075-11.116zm-2.53 0.36928-3.7706-0.54476-3.235 3.4334zm5.2111 5.2111-2.8886 7.0056 3.4334-3.235zm-5.4934-3.1678-6.8576 6.8575 0.79806-2.8062zm1.7243 1.7243-5.2355 5.9252-2.3332 1.6434 1.645-2.3316zm1.7258 1.7258-4.0514 6.0595-2.8062 0.79806z" fill-rule="evenodd"/>
</svg>
