<svg version="1.1" viewBox="0 0 32 32" xmlns="http://www.w3.org/2000/svg">
	<path fill="rgb(144, 35, 41)" class="icone" id="provisions" d="m22.301-0.029297c-0.50474-0.016137-1.0103 0.0047166-1.5098 0.064453-2.0005 0.23926-3.9012 1.1025-5.2754 2.707-1.9552 2.1441-1.7404 5.0245-1.5098 7.2578l0.001953 0.015625 0.001954 0.013672c0.24878 1.8665-0.34528 3.7777-1.4707 5.4043l-0.015624 0.021484-0.013672 0.023438c-1.8384 2.9839-3.9916 6.0035-7.3184 6.7422l0.052734-0.009765c-0.89316 0.14794-1.918 0.36987-2.8652 0.85352-0.93685 0.47835-1.8187 1.2849-2.1836 2.4688-0.90661 2.492 1.585 5.0563 4.1582 4.373 0.20449-0.05214 0.15825-0.07429 0.32227-0.14258 0.92885 2.3282 4.1553 3.039 5.9297 1.1523 1.0172-1.0832 1.3112-2.3988 1.502-3.541s0.31241-2.1513 0.7168-2.9121l0.019531-0.035157 0.015625-0.039062c0.67254-1.5604 1.8407-2.9352 3.3105-3.875l0.007812-0.003906 0.007813-0.00586c2.5314-1.6898 5.5772-2.6289 8.6777-3.5137h0.003907l0.003906-0.001953c2.9351-0.86375 6.0982-2.7768 6.8809-6.1426 1.0784-4.0182-1.4304-8.1161-5.1074-9.7852-1.3217-0.66041-2.8295-1.0414-4.3438-1.0898zm-6.2988 14.648-0.85547 2.9766 1.7285-0.60938-0.71289 1.1836c-0.36391 0.20833-0.7234 0.42891-1.0762 0.66406-1.7911 1.1469-3.1983 2.8052-4.0352 4.7207-0.63021 1.2041-0.74152 2.4456-0.91602 3.4902-0.17605 1.054-0.39121 1.8682-0.98633 2.502-0.70809 0.7529-2.3661 0.3713-2.7012-0.54492 0.011175-0.28751 0.010427-0.54842-0.1875-0.91992-0.12376-0.23229-0.42956-0.51354-0.75195-0.5918-0.3224-0.078255-0.55384-0.010821-0.70703 0.041016-0.61278 0.20735-0.75623 0.39132-0.94141 0.4375l-0.0078125 0.001953-0.0097656 0.003906c-1.0158 0.27234-2.1066-0.8827-1.7715-1.7715l0.011719-0.033203 0.0097657-0.035156c0.17578-0.59345 0.56502-0.96624 1.1973-1.2891s1.4784-0.5288 2.2832-0.66211l0.025391-0.003906 0.027344-0.00586c4.0946-0.9092 6.514-4.3253 8.3672-7.3027l2.0098-2.252z" color="#000000" color-rendering="auto" dominant-baseline="auto" image-rendering="auto" shape-rendering="auto" solid-color="#000000" style="font-feature-settings:normal;font-variant-alternates:normal;font-variant-caps:normal;font-variant-ligatures:normal;font-variant-numeric:normal;font-variant-position:normal;isolation:auto;mix-blend-mode:normal;shape-padding:0;text-decoration-color:#000000;text-decoration-line:none;text-decoration-style:solid;text-indent:0;text-orientation:mixed;text-transform:none;white-space:normal"/>
</svg>
