<svg version="1.1" viewBox="0 0 32 32" xmlns="http://www.w3.org/2000/svg">
	<path fill="rgb(144, 35, 41)" class="icone" id="fortune" d="m13.448-2.4044e-7c-1.9722 5.9621e-4 -3.5964 1.3724-3.5971 3.0354-4.84e-4 1.1415 0.88011 1.9802 1.9962 2.4958v2.2562c0 1.3898-0.84112 3.0659-2.1173 3.6563-4.0788 1.887-6.7257 5.5369-6.7298 9.5937-1.645e-4 6.0416 5.8355 10.963 13 10.963 7.1645 1.39e-4 13-4.9209 13-10.963-4e-3 -4.0568-2.6509-7.7067-6.7298-9.5937-1.2761-0.5904-2.1173-2.2665-2.1173-3.6563v-2.2562c1.1161-0.51567 1.9967-1.3543 1.9962-2.4958-7.06e-4 -1.6631-1.6274-3.0348-3.5996-3.0354h-5.0992zm0.0025 2.1333h5.0992c0.60523 1.835e-4 1.0695 0.39172 1.0697 0.90208 1.95e-4 0.46304-0.39311 0.81865-0.91657 0.88333l-1.0796 0.13542v3.7333c0 2.0341 0.99737 4.3988 3.4316 5.525 3.2348 1.4966 5.3473 4.3759 5.4056 7.6h-20.921c0.058224-3.2241 2.1707-6.1034 5.4056-7.6 2.4342-1.1262 3.4316-3.4909 3.4316-5.525v-3.7333l-1.0821-0.13542c-0.52346-0.064683-0.9143-0.42029-0.9141-0.88333 2.18e-4 -0.51037 0.46452-0.9019 1.0697-0.90208zm-2.5398 13.579v11.238h4.1357v-4.5917h5.1634v-2.2688h-5.1634v-1.9625h6.043v-2.4146z" color="#000000" color-rendering="auto" dominant-baseline="auto" fill-rule="evenodd" image-rendering="auto" shape-rendering="auto" solid-color="#000000" style="font-feature-settings:normal;font-variant-alternates:normal;font-variant-caps:normal;font-variant-ligatures:normal;font-variant-numeric:normal;font-variant-position:normal;isolation:auto;mix-blend-mode:normal;paint-order:fill markers stroke;shape-padding:0;text-decoration-color:#000000;text-decoration-line:none;text-decoration-style:solid;text-indent:0;text-orientation:mixed;text-transform:none;white-space:normal"/>
</svg>
